<COLLADA xmlns="http://www.collada.org/2005/11/COLLADASchema" version="1.4.1">
  <asset>
    <created>2026-06-28T19:57:27.503697</created>
    <modified>2026-06-28T19:57:27.503700</modified>
    <up_axis>Y_UP</up_axis>
  </asset>
  <library_effects>
    <effect id="26096473c6ed4b12b8dade1392472a01" name="26096473c6ed4b12b8dade1392472a01">
      <profile_COMMON>
        <technique sid="common">
          <phong>
            <emission>
              <color>0.0 0.0 0.0 1.0</color>
            </emission>
            <ambient>
              <color>0.0 0.0 0.0 1.0</color>
            </ambient>
            <diffuse>
              <color>0.0 0.0 0.0 1.0</color>
            </diffuse>
            <specular>
              <color>0.0 0.0 0.0 1.0</color>
            </specular>
            <shininess>
              <float>0.0</float>
            </shininess>
            <reflective>
              <color>0.0 0.0 0.0 1.0</color>
            </reflective>
            <reflectivity>
              <float>0.0</float>
            </reflectivity>
            <transparent>
              <color>0.0 0.0 0.0 1.0</color>
            </transparent>
            <transparency>
              <float>1.0</float>
            </transparency>
          </phong>
        </technique>
        <extra>
          <technique profile="GOOGLEEARTH">
            <double_sided>0</double_sided>
          </technique>
        </extra>
      </profile_COMMON>
    </effect>
  </library_effects>
  <library_geometries>
    <geometry id="08418c8e67634efa8c26677256f5b092" name="68b89645c6244a78995344515f23c446">
      <mesh>
        <source id="verts-array">
          <float_array count="5544" id="verts-array-array">-92.05514 -54.48803 -3.402918 -83.83143 -51.36973 -3.402918 -82.02231 -55.80128 -3.402918 -82.02231 -55.80128 -3.402918 -90.41051 -58.91958 -3.402918 -92.05514 -54.48803 -3.402918 -82.02231 -55.80128 -0.4029181 -83.83143 -51.36973 -0.4029181 -92.05514 -54.48803 -0.4029181 -92.05514 -54.48803 -0.4029181 -90.41051 -58.91958 -0.4029181 -82.02231 -55.80128 -0.4029181 -82.02231 -55.80128 -0.4029181 -90.41051 -58.91958 -0.4029181 -82.02231 -55.80128 -3.402918 -82.02231 -55.80128 -3.402918 -90.41051 -58.91958 -0.4029181 -90.41051 -58.91958 -3.402918 -90.41051 -58.91958 -0.4029181 -92.05514 -54.48803 -0.4029181 -90.41051 -58.91958 -3.402918 -90.41051 -58.91958 -3.402918 -92.05514 -54.48803 -0.4029181 -92.05514 -54.48803 -3.402918 -83.83143 -51.36973 -0.4029181 -82.02231 -55.80128 -0.4029181 -83.83143 -51.36973 -3.402918 -83.83143 -51.36973 -3.402918 -82.02231 -55.80128 -0.4029181 -82.02231 -55.80128 -3.402918 -92.05514 -54.48803 -0.4029181 -83.83143 -51.36973 -0.4029181 -92.05514 -54.48803 -3.402918 -92.05514 -54.48803 -3.402918 -83.83143 -51.36973 -0.4029181 -83.83143 -51.36973 -3.402918 -127.4169 -54.81537 -3.690544 -114.2588 -47.75815 -3.690544 -107.6802 -59.73983 -3.690544 -107.6802 -59.73983 -3.690544 -120.8383 -66.9612 -3.690544 -127.4169 -54.81537 -3.690544 -107.6802 -59.73983 -0.6905444 -114.2588 -47.75815 -0.6905444 -127.4169 -54.81537 -0.6905444 -127.4169 -54.81537 -0.6905444 -120.8383 -66.9612 -0.6905444 -107.6802 -59.73983 -0.6905444 -107.6802 -59.73983 -0.6905444 -120.8383 -66.9612 -0.6905444 -107.6802 -59.73983 -3.690544 -107.6802 -59.73983 -3.690544 -120.8383 -66.9612 -0.6905444 -120.8383 -66.9612 -3.690544 -120.8383 -66.9612 -0.6905444 -127.4169 -54.81537 -0.6905444 -120.8383 -66.9612 -3.690544 -120.8383 -66.9612 -3.690544 -127.4169 -54.81537 -0.6905444 -127.4169 -54.81537 -3.690544 -114.2588 -47.75815 -0.6905444 -107.6802 -59.73983 -0.6905444 -114.2588 -47.75815 -3.690544 -114.2588 -47.75815 -3.690544 -107.6802 -59.73983 -0.6905444 -107.6802 -59.73983 -3.690544 -127.4169 -54.81537 -0.6905444 -114.2588 -47.75815 -0.6905444 -127.4169 -54.81537 -3.690544 -127.4169 -54.81537 -3.690544 -114.2588 -47.75815 -0.6905444 -114.2588 -47.75815 -3.690544 -64.42339 -36.59835 -1.980662 -73.7984 -41.68623 -1.980662 -75.27861 -39.06013 -1.980662 7.94439 3.120672 -1.980662 -1.265979 -2.131502 -1.980662 -64.42339 -36.59835 -1.980662 -1.265959 63.0282 -1.980662 19.78619 24.7859 -1.980662 1.530023 14.60978 -1.980662 -22.15345 64.17717 -1.980662 -6.693404 72.71188 -1.980662 -1.265959 63.0282 -1.980662 -75.27728 35.08344 -1.980662 -75.27728 35.12673 -1.980662 -26.92305 61.55111 -1.980662 -120.5084 -32.32973 -1.980662 -138.5992 0.4968656 -1.980662 -79.38907 32.82898 -1.980662 -64.42339 -36.59835 -1.980662 -75.27861 -39.06013 -1.980662 -75.27861 -39.01089 -1.980662 1.530023 14.60978 -1.980662 7.94439 3.120672 -1.980662 -64.42339 -36.59835 -1.980662 -22.15345 64.17717 -1.980662 -1.265959 63.0282 -1.980662 1.530023 14.60978 -1.980662 -79.38907 32.82898 -1.980662 -75.27728 35.08344 -1.980662 -26.92305 61.55111 -1.980662 -88.60037 -14.93273 -1.980662 -120.5084 -32.32973 -1.980662 -79.38907 32.82898 -1.980662 -64.42339 -36.59835 -1.980662 -75.27861 -39.01089 -1.980662 -88.60037 -14.93273 -1.980662 -22.15345 64.17717 -1.980662 1.530023 14.60978 -1.980662 -64.42339 -36.59835 -1.980662 -88.60037 -14.93273 -1.980662 -79.38907 32.82898 -1.980662 -26.92305 61.55111 -1.980662 -22.15345 64.17717 -1.980662 -64.42339 -36.59835 -1.980662 -88.60037 -14.93273 -1.980662 -88.60037 -14.93273 -1.980662 -26.92305 61.55111 -1.980662 -22.15345 64.17717 -1.980662 -75.27861 -39.06013 7.319338 -73.7984 -41.68623 7.319338 -64.42339 -36.59835 7.319338 -64.42339 -36.59835 7.319338 -1.265979 -2.131502 7.319338 7.94439 3.120672 7.319338 1.530023 14.60978 7.319338 19.78619 24.7859 7.319338 -1.265959 63.0282 7.319338 -1.265959 63.0282 7.319338 -6.693404 72.71188 7.319338 -22.15345 64.17717 7.319338 -26.92305 61.55111 7.319338 -75.27728 35.12673 7.319338 -75.27728 35.08344 7.319338 -79.38907 32.82898 7.319338 -138.5992 0.4968656 7.319338 -120.5084 -32.32973 7.319338 -75.27861 -39.01089 7.319338 -75.27861 -39.06013 7.319338 -64.42339 -36.59835 7.319338 -64.42339 -36.59835 7.319338 7.94439 3.120672 7.319338 1.530023 14.60978 7.319338 1.530023 14.60978 7.319338 -1.265959 63.0282 7.319338 -22.15345 64.17717 7.319338 -26.92305 61.55111 7.319338 -75.27728 35.08344 7.319338 -79.38907 32.82898 7.319338 -79.38907 32.82898 7.319338 -120.5084 -32.32973 7.319338 -88.60037 -14.93273 7.319338 -88.60037 -14.93273 7.319338 -75.27861 -39.01089 7.319338 -64.42339 -36.59835 7.319338 -64.42339 -36.59835 7.319338 1.530023 14.60978 7.319338 -22.15345 64.17717 7.319338 -26.92305 61.55111 7.319338 -79.38907 32.82898 7.319338 -88.60037 -14.93273 7.319338 -88.60037 -14.93273 7.319338 -64.42339 -36.59835 7.319338 -22.15345 64.17717 7.319338 -22.15345 64.17717 7.319338 -26.92305 61.55111 7.319338 -88.60037 -14.93273 7.319338 -75.27861 -39.06013 7.319338 -75.27861 -39.01089 7.319338 -75.27861 -39.06013 -1.980662 -75.27861 -39.06013 -1.980662 -75.27861 -39.01089 7.319338 -75.27861 -39.01089 -1.980662 -75.27861 -39.01089 7.319338 -88.60037 -14.93273 7.319338 -75.27861 -39.01089 -1.980662 -75.27861 -39.01089 -1.980662 -88.60037 -14.93273 7.319338 -88.60037 -14.93273 -1.980662 -88.60037 -14.93273 7.319338 -120.5084 -32.32973 7.319338 -88.60037 -14.93273 -1.980662 -88.60037 -14.93273 -1.980662 -120.5084 -32.32973 7.319338 -120.5084 -32.32973 -1.980662 -120.5084 -32.32973 7.319338 -138.5992 0.4968656 7.319338 -120.5084 -32.32973 -1.980662 -120.5084 -32.32973 -1.980662 -138.5992 0.4968656 7.319338 -138.5992 0.4968656 -1.980662 -138.5992 0.4968656 7.319338 -79.38907 32.82898 7.319338 -138.5992 0.4968656 -1.980662 -138.5992 0.4968656 -1.980662 -79.38907 32.82898 7.319338 -79.38907 32.82898 -1.980662 -79.38907 32.82898 7.319338 -75.27728 35.08344 7.319338 -79.38907 32.82898 -1.980662 -79.38907 32.82898 -1.980662 -75.27728 35.08344 7.319338 -75.27728 35.08344 -1.980662 -75.27728 35.08344 7.319338 -75.27728 35.12673 7.319338 -75.27728 35.08344 -1.980662 -75.27728 35.08344 -1.980662 -75.27728 35.12673 7.319338 -75.27728 35.12673 -1.980662 -75.27728 35.12673 7.319338 -26.92305 61.55111 7.319338 -75.27728 35.12673 -1.980662 -75.27728 35.12673 -1.980662 -26.92305 61.55111 7.319338 -26.92305 61.55111 -1.980662 -26.92305 61.55111 7.319338 -22.15345 64.17717 7.319338 -26.92305 61.55111 -1.980662 -26.92305 61.55111 -1.980662 -22.15345 64.17717 7.319338 -22.15345 64.17717 -1.980662 -22.15345 64.17717 7.319338 -6.693404 72.71188 7.319338 -22.15345 64.17717 -1.980662 -22.15345 64.17717 -1.980662 -6.693404 72.71188 7.319338 -6.693404 72.71188 -1.980662 -6.693404 72.71188 7.319338 -1.265959 63.0282 7.319338 -6.693404 72.71188 -1.980662 -6.693404 72.71188 -1.980662 -1.265959 63.0282 7.319338 -1.265959 63.0282 -1.980662 -1.265959 63.0282 7.319338 19.78619 24.7859 7.319338 -1.265959 63.0282 -1.980662 -1.265959 63.0282 -1.980662 19.78619 24.7859 7.319338 19.78619 24.7859 -1.980662 19.78619 24.7859 7.319338 1.530023 14.60978 7.319338 19.78619 24.7859 -1.980662 19.78619 24.7859 -1.980662 1.530023 14.60978 7.319338 1.530023 14.60978 -1.980662 1.530023 14.60978 7.319338 7.94439 3.120672 7.319338 1.530023 14.60978 -1.980662 1.530023 14.60978 -1.980662 7.94439 3.120672 7.319338 7.94439 3.120672 -1.980662 7.94439 3.120672 7.319338 -1.265979 -2.131502 7.319338 7.94439 3.120672 -1.980662 7.94439 3.120672 -1.980662 -1.265979 -2.131502 7.319338 -1.265979 -2.131502 -1.980662 -1.265979 -2.131502 7.319338 -64.42339 -36.59835 7.319338 -1.265979 -2.131502 -1.980662 -1.265979 -2.131502 -1.980662 -64.42339 -36.59835 7.319338 -64.42339 -36.59835 -1.980662 -73.7984 -41.68623 7.319338 -75.27861 -39.06013 7.319338 -73.7984 -41.68623 -1.980662 -73.7984 -41.68623 -1.980662 -75.27861 -39.06013 7.319338 -75.27861 -39.06013 -1.980662 -64.42339 -36.59835 7.319338 -73.7984 -41.68623 7.319338 -64.42339 -36.59835 -1.980662 -64.42339 -36.59835 -1.980662 -73.7984 -41.68623 7.319338 -73.7984 -41.68623 -1.980662 -1.265979 -2.131502 -0.8416735 7.94439 3.120672 -0.8416735 12.71407 -5.085826 -0.8416735 12.71407 -5.085826 -0.8416735 3.503689 -10.33801 -0.8416735 -1.265979 -2.131502 -0.8416735 12.71407 -5.085826 2.158327 7.94439 3.120672 2.158327 -1.265979 -2.131502 2.158327 -1.265979 -2.131502 2.158327 3.503689 -10.33801 2.158327 12.71407 -5.085826 2.158327 12.71407 -5.085826 2.158327 3.503689 -10.33801 2.158327 12.71407 -5.085826 -0.8416735 12.71407 -5.085826 -0.8416735 3.503689 -10.33801 2.158327 3.503689 -10.33801 -0.8416735 3.503689 -10.33801 2.158327 -1.265979 -2.131502 2.158327 3.503689 -10.33801 -0.8416735 3.503689 -10.33801 -0.8416735 -1.265979 -2.131502 2.158327 -1.265979 -2.131502 -0.8416735 7.94439 3.120672 2.158327 12.71407 -5.085826 2.158327 7.94439 3.120672 -0.8416735 7.94439 3.120672 -0.8416735 12.71407 -5.085826 2.158327 12.71407 -5.085826 -0.8416735 -1.265979 -2.131502 2.158327 7.94439 3.120672 2.158327 -1.265979 -2.131502 -0.8416735 -1.265979 -2.131502 -0.8416735 7.94439 3.120672 2.158327 7.94439 3.120672 -0.8416735 65.34333 92.24388 -0.4550582 74.22449 96.83968 -0.4550582 77.67842 90.27453 -0.4550582 77.67842 90.27453 -0.4550582 68.96172 85.67873 -0.4550582 65.34333 92.24388 -0.4550582 77.67842 90.27453 2.644942 74.22449 96.83968 2.644942 65.34333 92.24388 2.644942 65.34333 92.24388 2.644942 68.96172 85.67873 2.644942 77.67842 90.27453 2.644942 77.67842 90.27453 2.644942 68.96172 85.67873 2.644942 77.67842 90.27453 -0.4550582 77.67842 90.27453 -0.4550582 68.96172 85.67873 2.644942 68.96172 85.67873 -0.4550582 68.96172 85.67873 2.644942 65.34333 92.24388 2.644942 68.96172 85.67873 -0.4550582 68.96172 85.67873 -0.4550582 65.34333 92.24388 2.644942 65.34333 92.24388 -0.4550582 74.22449 96.83968 2.644942 77.67842 90.27453 2.644942 74.22449 96.83968 -0.4550582 74.22449 96.83968 -0.4550582 77.67842 90.27453 2.644942 77.67842 90.27453 -0.4550582 65.34333 92.24388 2.644942 74.22449 96.83968 2.644942 65.34333 92.24388 -0.4550582 65.34333 92.24388 -0.4550582 74.22449 96.83968 2.644942 74.22449 96.83968 -0.4550582 -19.85189 -145.9095 -4.51 -14.91756 -139.8367 -4.51 1.20113 -152.4748 -4.51 1.20113 -152.4748 -4.51 -3.89766 -158.7117 -4.51 -19.85189 -145.9095 -4.51 1.20113 -152.4748 -1.51 -14.91756 -139.8367 -1.51 -19.85189 -145.9095 -1.51 -19.85189 -145.9095 -1.51 -3.89766 -158.7117 -1.51 1.20113 -152.4748 -1.51 1.20113 -152.4748 -1.51 -3.89766 -158.7117 -1.51 1.20113 -152.4748 -4.51 1.20113 -152.4748 -4.51 -3.89766 -158.7117 -1.51 -3.89766 -158.7117 -4.51 -3.89766 -158.7117 -1.51 -19.85189 -145.9095 -1.51 -3.89766 -158.7117 -4.51 -3.89766 -158.7117 -4.51 -19.85189 -145.9095 -1.51 -19.85189 -145.9095 -4.51 -14.91756 -139.8367 -1.51 1.20113 -152.4748 -1.51 -14.91756 -139.8367 -4.51 -14.91756 -139.8367 -4.51 1.20113 -152.4748 -1.51 1.20113 -152.4748 -4.51 -19.85189 -145.9095 -1.51 -14.91756 -139.8367 -1.51 -19.85189 -145.9095 -4.51 -19.85189 -145.9095 -4.51 -14.91756 -139.8367 -1.51 -14.91756 -139.8367 -4.51 -39.91806 -147.7148 -4.50751 -33.50341 -140.8214 -4.50751 -25.93753 -147.879 -4.50751 -31.85873 -152.1464 -4.50751 -33.33904 -153.7877 -4.50751 -39.91806 -147.7148 -4.50751 -25.93753 -147.879 -4.50751 -30.87188 -153.1312 -4.50751 -31.85873 -152.1464 -4.50751 -31.85873 -152.1464 -4.50751 -39.91806 -147.7148 -4.50751 -25.93753 -147.879 -4.50751 -25.93753 -147.879 -1.50751 -33.50341 -140.8214 -1.50751 -39.91806 -147.7148 -1.50751 -39.91806 -147.7148 -1.50751 -33.33904 -153.7877 -1.50751 -31.85873 -152.1464 -1.50751 -31.85873 -152.1464 -1.50751 -30.87188 -153.1312 -1.50751 -25.93753 -147.879 -1.50751 -25.93753 -147.879 -1.50751 -39.91806 -147.7148 -1.50751 -31.85873 -152.1464 -1.50751 -25.93753 -147.879 -1.50751 -30.87188 -153.1312 -1.50751 -25.93753 -147.879 -4.50751 -25.93753 -147.879 -4.50751 -30.87188 -153.1312 -1.50751 -30.87188 -153.1312 -4.50751 -30.87188 -153.1312 -1.50751 -31.85873 -152.1464 -1.50751 -30.87188 -153.1312 -4.50751 -30.87188 -153.1312 -4.50751 -31.85873 -152.1464 -1.50751 -31.85873 -152.1464 -4.50751 -31.85873 -152.1464 -1.50751 -33.33904 -153.7877 -1.50751 -31.85873 -152.1464 -4.50751 -31.85873 -152.1464 -4.50751 -33.33904 -153.7877 -1.50751 -33.33904 -153.7877 -4.50751 -33.33904 -153.7877 -1.50751 -39.91806 -147.7148 -1.50751 -33.33904 -153.7877 -4.50751 -33.33904 -153.7877 -4.50751 -39.91806 -147.7148 -1.50751 -39.91806 -147.7148 -4.50751 -33.50341 -140.8214 -1.50751 -25.93753 -147.879 -1.50751 -33.50341 -140.8214 -4.50751 -33.50341 -140.8214 -4.50751 -25.93753 -147.879 -1.50751 -25.93753 -147.879 -4.50751 -39.91806 -147.7148 -1.50751 -33.50341 -140.8214 -1.50751 -39.91806 -147.7148 -4.50751 -39.91806 -147.7148 -4.50751 -33.50341 -140.8214 -1.50751 -33.50341 -140.8214 -4.50751 92.31516 129.502 -3.846186 114.3533 141.484 -3.846186 126.5244 118.8344 -3.846186 115.9987 113.2536 -3.846186 104.4862 107.0164 -3.846186 92.31516 129.502 -3.846186 92.31516 129.502 -3.846186 126.5244 118.8344 -3.846186 115.9987 113.2536 -3.846186 126.5244 118.8344 -0.8461864 114.3533 141.484 -0.8461864 92.31516 129.502 -0.8461864 92.31516 129.502 -0.8461864 104.4862 107.0164 -0.8461864 115.9987 113.2536 -0.8461864 115.9987 113.2536 -0.8461864 126.5244 118.8344 -0.8461864 92.31516 129.502 -0.8461864 126.5244 118.8344 -0.8461864 115.9987 113.2536 -0.8461864 126.5244 118.8344 -3.846186 126.5244 118.8344 -3.846186 115.9987 113.2536 -0.8461864 115.9987 113.2536 -3.846186 115.9987 113.2536 -0.8461864 104.4862 107.0164 -0.8461864 115.9987 113.2536 -3.846186 115.9987 113.2536 -3.846186 104.4862 107.0164 -0.8461864 104.4862 107.0164 -3.846186 104.4862 107.0164 -0.8461864 92.31516 129.502 -0.8461864 104.4862 107.0164 -3.846186 104.4862 107.0164 -3.846186 92.31516 129.502 -0.8461864 92.31516 129.502 -3.846186 114.3533 141.484 -0.8461864 126.5244 118.8344 -0.8461864 114.3533 141.484 -3.846186 114.3533 141.484 -3.846186 126.5244 118.8344 -0.8461864 126.5244 118.8344 -3.846186 92.31516 129.502 -0.8461864 114.3533 141.484 -0.8461864 92.31516 129.502 -3.846186 92.31516 129.502 -3.846186 114.3533 141.484 -0.8461864 114.3533 141.484 -3.846186 122.2494 79.77126 -1.858638 145.4384 107.6741 -1.858638 163.5303 92.73895 -1.858638 146.9196 79.77205 -1.858638 137.2164 67.62608 -1.858638 122.2494 79.77126 -1.858638 163.5303 92.73895 -1.858638 150.7024 76.81784 -1.858638 146.9196 79.77205 -1.858638 146.9196 79.77205 -1.858638 122.2494 79.77126 -1.858638 163.5303 92.73895 -1.858638 163.5303 92.73895 1.141362 145.4384 107.6741 1.141362 122.2494 79.77126 1.141362 122.2494 79.77126 1.141362 137.2164 67.62608 1.141362 146.9196 79.77205 1.141362 146.9196 79.77205 1.141362 150.7024 76.81784 1.141362 163.5303 92.73895 1.141362 163.5303 92.73895 1.141362 122.2494 79.77126 1.141362 146.9196 79.77205 1.141362 163.5303 92.73895 1.141362 150.7024 76.81784 1.141362 163.5303 92.73895 -1.858638 163.5303 92.73895 -1.858638 150.7024 76.81784 1.141362 150.7024 76.81784 -1.858638 150.7024 76.81784 1.141362 146.9196 79.77205 1.141362 150.7024 76.81784 -1.858638 150.7024 76.81784 -1.858638 146.9196 79.77205 1.141362 146.9196 79.77205 -1.858638 146.9196 79.77205 1.141362 137.2164 67.62608 1.141362 146.9196 79.77205 -1.858638 146.9196 79.77205 -1.858638 137.2164 67.62608 1.141362 137.2164 67.62608 -1.858638 137.2164 67.62608 1.141362 122.2494 79.77126 1.141362 137.2164 67.62608 -1.858638 137.2164 67.62608 -1.858638 122.2494 79.77126 1.141362 122.2494 79.77126 -1.858638 145.4384 107.6741 1.141362 163.5303 92.73895 1.141362 145.4384 107.6741 -1.858638 145.4384 107.6741 -1.858638 163.5303 92.73895 1.141362 163.5303 92.73895 -1.858638 122.2494 79.77126 1.141362 145.4384 107.6741 1.141362 122.2494 79.77126 -1.858638 122.2494 79.77126 -1.858638 145.4384 107.6741 1.141362 145.4384 107.6741 -1.858638 43.96321 31.02303 2.023386 58.43643 39.55798 2.023386 61.06802 34.46998 2.023386 51.52892 22.81661 2.023386 47.41713 26.26329 2.023386 43.96321 31.02303 2.023386 55.64064 25.44274 2.023386 54.65384 24.12969 2.023386 53.50253 25.11445 2.023386 43.96321 31.02303 2.023386 61.06802 34.46998 2.023386 54.65381 26.26338 2.023386 53.50253 25.11445 2.023386 51.52892 22.81661 2.023386 43.96321 31.02303 2.023386 54.65381 26.26338 2.023386 55.64064 25.44274 2.023386 53.50253 25.11445 2.023386 53.50253 25.11445 2.023386 43.96321 31.02303 2.023386 54.65381 26.26338 2.023386 61.06802 34.46998 5.023386 58.43643 39.55798 5.023386 43.96321 31.02303 5.023386 43.96321 31.02303 5.023386 47.41713 26.26329 5.023386 51.52892 22.81661 5.023386 53.50253 25.11445 5.023386 54.65384 24.12969 5.023386 55.64064 25.44274 5.023386 54.65381 26.26338 5.023386 61.06802 34.46998 5.023386 43.96321 31.02303 5.023386 43.96321 31.02303 5.023386 51.52892 22.81661 5.023386 53.50253 25.11445 5.023386 53.50253 25.11445 5.023386 55.64064 25.44274 5.023386 54.65381 26.26338 5.023386 54.65381 26.26338 5.023386 43.96321 31.02303 5.023386 53.50253 25.11445 5.023386 61.06802 34.46998 5.023386 54.65381 26.26338 5.023386 61.06802 34.46998 2.023386 61.06802 34.46998 2.023386 54.65381 26.26338 5.023386 54.65381 26.26338 2.023386 54.65381 26.26338 5.023386 55.64064 25.44274 5.023386 54.65381 26.26338 2.023386 54.65381 26.26338 2.023386 55.64064 25.44274 5.023386 55.64064 25.44274 2.023386 55.64064 25.44274 5.023386 54.65384 24.12969 5.023386 55.64064 25.44274 2.023386 55.64064 25.44274 2.023386 54.65384 24.12969 5.023386 54.65384 24.12969 2.023386 54.65384 24.12969 5.023386 53.50253 25.11445 5.023386 54.65384 24.12969 2.023386 54.65384 24.12969 2.023386 53.50253 25.11445 5.023386 53.50253 25.11445 2.023386 53.50253 25.11445 5.023386 51.52892 22.81661 5.023386 53.50253 25.11445 2.023386 53.50253 25.11445 2.023386 51.52892 22.81661 5.023386 51.52892 22.81661 2.023386 51.52892 22.81661 5.023386 47.41713 26.26329 5.023386 51.52892 22.81661 2.023386 51.52892 22.81661 2.023386 47.41713 26.26329 5.023386 47.41713 26.26329 2.023386 47.41713 26.26329 5.023386 43.96321 31.02303 5.023386 47.41713 26.26329 2.023386 47.41713 26.26329 2.023386 43.96321 31.02303 5.023386 43.96321 31.02303 2.023386 58.43643 39.55798 5.023386 61.06802 34.46998 5.023386 58.43643 39.55798 2.023386 58.43643 39.55798 2.023386 61.06802 34.46998 5.023386 61.06802 34.46998 2.023386 43.96321 31.02303 5.023386 58.43643 39.55798 5.023386 43.96321 31.02303 2.023386 43.96321 31.02303 2.023386 58.43643 39.55798 5.023386 58.43643 39.55798 2.023386 55.47558 69.92203 1.316148 59.25832 72.05578 1.316148 64.52145 62.5363 1.316148 27.3516 56.79134 1.316148 54.48875 71.56332 1.316148 55.47558 69.92203 1.316148 61.72554 58.59713 1.316148 34.58833 43.66097 1.316148 27.3516 56.79134 1.316148 55.47558 69.92203 1.316148 64.52145 62.5363 1.316148 60.7387 60.40255 1.316148 61.72554 58.59713 1.316148 27.3516 56.79134 1.316148 55.47558 69.92203 1.316148 55.47558 69.92203 1.316148 60.7387 60.40255 1.316148 61.72554 58.59713 1.316148 64.52145 62.5363 4.316148 59.25832 72.05578 4.316148 55.47558 69.92203 4.316148 55.47558 69.92203 4.316148 54.48875 71.56332 4.316148 27.3516 56.79134 4.316148 27.3516 56.79134 4.316148 34.58833 43.66097 4.316148 61.72554 58.59713 4.316148 60.7387 60.40255 4.316148 64.52145 62.5363 4.316148 55.47558 69.92203 4.316148 55.47558 69.92203 4.316148 27.3516 56.79134 4.316148 61.72554 58.59713 4.316148 61.72554 58.59713 4.316148 60.7387 60.40255 4.316148 55.47558 69.92203 4.316148 64.52145 62.5363 4.316148 60.7387 60.40255 4.316148 64.52145 62.5363 1.316148 64.52145 62.5363 1.316148 60.7387 60.40255 4.316148 60.7387 60.40255 1.316148 60.7387 60.40255 4.316148 61.72554 58.59713 4.316148 60.7387 60.40255 1.316148 60.7387 60.40255 1.316148 61.72554 58.59713 4.316148 61.72554 58.59713 1.316148 61.72554 58.59713 4.316148 34.58833 43.66097 4.316148 61.72554 58.59713 1.316148 61.72554 58.59713 1.316148 34.58833 43.66097 4.316148 34.58833 43.66097 1.316148 34.58833 43.66097 4.316148 27.3516 56.79134 4.316148 34.58833 43.66097 1.316148 34.58833 43.66097 1.316148 27.3516 56.79134 4.316148 27.3516 56.79134 1.316148 27.3516 56.79134 4.316148 54.48875 71.56332 4.316148 27.3516 56.79134 1.316148 27.3516 56.79134 1.316148 54.48875 71.56332 4.316148 54.48875 71.56332 1.316148 54.48875 71.56332 4.316148 55.47558 69.92203 4.316148 54.48875 71.56332 1.316148 54.48875 71.56332 1.316148 55.47558 69.92203 4.316148 55.47558 69.92203 1.316148 59.25832 72.05578 4.316148 64.52145 62.5363 4.316148 59.25832 72.05578 1.316148 59.25832 72.05578 1.316148 64.52145 62.5363 4.316148 64.52145 62.5363 1.316148 55.47558 69.92203 4.316148 59.25832 72.05578 4.316148 55.47558 69.92203 1.316148 55.47558 69.92203 1.316148 59.25832 72.05578 4.316148 59.25832 72.05578 1.316148 41.33106 95.52619 -0.4022957 45.27825 97.65992 -0.4022957 50.37685 88.30455 -0.4022957 13.37168 82.39558 -0.4022957 40.50871 97.16748 -0.4022957 41.33106 95.52619 -0.4022957 47.58094 84.3654 -0.4022957 20.44385 69.42932 -0.4022957 13.37168 82.39558 -0.4022957 41.33106 95.52619 -0.4022957 50.37685 88.30455 -0.4022957 46.42965 86.17081 -0.4022957 46.42965 86.17081 -0.4022957 47.58094 84.3654 -0.4022957 13.37168 82.39558 -0.4022957 13.37168 82.39558 -0.4022957 41.33106 95.52619 -0.4022957 46.42965 86.17081 -0.4022957 50.37685 88.30455 2.597704 45.27825 97.65992 2.597704 41.33106 95.52619 2.597704 41.33106 95.52619 2.597704 40.50871 97.16748 2.597704 13.37168 82.39558 2.597704 13.37168 82.39558 2.597704 20.44385 69.42932 2.597704 47.58094 84.3654 2.597704 46.42965 86.17081 2.597704 50.37685 88.30455 2.597704 41.33106 95.52619 2.597704 13.37168 82.39558 2.597704 47.58094 84.3654 2.597704 46.42965 86.17081 2.597704 46.42965 86.17081 2.597704 41.33106 95.52619 2.597704 13.37168 82.39558 2.597704 50.37685 88.30455 2.597704 46.42965 86.17081 2.597704 50.37685 88.30455 -0.4022957 50.37685 88.30455 -0.4022957 46.42965 86.17081 2.597704 46.42965 86.17081 -0.4022957 46.42965 86.17081 2.597704 47.58094 84.3654 2.597704 46.42965 86.17081 -0.4022957 46.42965 86.17081 -0.4022957 47.58094 84.3654 2.597704 47.58094 84.3654 -0.4022957 47.58094 84.3654 2.597704 20.44385 69.42932 2.597704 47.58094 84.3654 -0.4022957 47.58094 84.3654 -0.4022957 20.44385 69.42932 2.597704 20.44385 69.42932 -0.4022957 20.44385 69.42932 2.597704 13.37168 82.39558 2.597704 20.44385 69.42932 -0.4022957 20.44385 69.42932 -0.4022957 13.37168 82.39558 2.597704 13.37168 82.39558 -0.4022957 13.37168 82.39558 2.597704 40.50871 97.16748 2.597704 13.37168 82.39558 -0.4022957 13.37168 82.39558 -0.4022957 40.50871 97.16748 2.597704 40.50871 97.16748 -0.4022957 40.50871 97.16748 2.597704 41.33106 95.52619 2.597704 40.50871 97.16748 -0.4022957 40.50871 97.16748 -0.4022957 41.33106 95.52619 2.597704 41.33106 95.52619 -0.4022957 45.27825 97.65992 2.597704 50.37685 88.30455 2.597704 45.27825 97.65992 -0.4022957 45.27825 97.65992 -0.4022957 50.37685 88.30455 2.597704 50.37685 88.30455 -0.4022957 41.33106 95.52619 2.597704 45.27825 97.65992 2.597704 41.33106 95.52619 -0.4022957 41.33106 95.52619 -0.4022957 45.27825 97.65992 2.597704 45.27825 97.65992 -0.4022957 75.04661 108.4929 -1.260973 78.33591 110.2984 -1.260973 87.05269 108.329 -1.260973 74.22449 96.83968 -1.260973 72.74422 100.4505 -1.260973 75.04661 108.4929 -1.260973 88.03998 84.69431 -1.260973 78.99421 87.32021 -1.260973 77.67842 90.27453 -1.260973 94.12504 95.69117 -1.260973 91.3293 86.49981 -1.260973 88.03998 84.69431 -1.260973 75.04661 108.4929 -1.260973 87.05269 108.329 -1.260973 94.12504 95.69117 -1.260973 77.67842 90.27453 -1.260973 74.22449 96.83968 -1.260973 75.04661 108.4929 -1.260973 94.12504 95.69117 -1.260973 88.03998 84.69431 -1.260973 77.67842 90.27453 -1.260973 77.67842 90.27453 -1.260973 75.04661 108.4929 -1.260973 94.12504 95.69117 -1.260973 87.05269 108.329 72.23903 78.33591 110.2984 72.23903 75.04661 108.4929 72.23903 75.04661 108.4929 72.23903 72.74422 100.4505 72.23903 74.22449 96.83968 72.23903 77.67842 90.27453 72.23903 78.99421 87.32021 72.23903 88.03998 84.69431 72.23903 88.03998 84.69431 72.23903 91.3293 86.49981 72.23903 94.12504 95.69117 72.23903 94.12504 95.69117 72.23903 87.05269 108.329 72.23903 75.04661 108.4929 72.23903 75.04661 108.4929 72.23903 74.22449 96.83968 72.23903 77.67842 90.27453 72.23903 77.67842 90.27453 72.23903 88.03998 84.69431 72.23903 94.12504 95.69117 72.23903 94.12504 95.69117 72.23903 75.04661 108.4929 72.23903 77.67842 90.27453 72.23903 87.05269 108.329 72.23903 94.12504 95.69117 72.23903 87.05269 108.329 -1.260973 87.05269 108.329 -1.260973 94.12504 95.69117 72.23903 94.12504 95.69117 -1.260973 94.12504 95.69117 72.23903 91.3293 86.49981 72.23903 94.12504 95.69117 -1.260973 94.12504 95.69117 -1.260973 91.3293 86.49981 72.23903 91.3293 86.49981 -1.260973 91.3293 86.49981 72.23903 88.03998 84.69431 72.23903 91.3293 86.49981 -1.260973 91.3293 86.49981 -1.260973 88.03998 84.69431 72.23903 88.03998 84.69431 -1.260973 88.03998 84.69431 72.23903 78.99421 87.32021 72.23903 88.03998 84.69431 -1.260973 88.03998 84.69431 -1.260973 78.99421 87.32021 72.23903 78.99421 87.32021 -1.260973 78.99421 87.32021 72.23903 77.67842 90.27453 72.23903 78.99421 87.32021 -1.260973 78.99421 87.32021 -1.260973 77.67842 90.27453 72.23903 77.67842 90.27453 -1.260973 77.67842 90.27453 72.23903 74.22449 96.83968 72.23903 77.67842 90.27453 -1.260973 77.67842 90.27453 -1.260973 74.22449 96.83968 72.23903 74.22449 96.83968 -1.260973 74.22449 96.83968 72.23903 72.74422 100.4505 72.23903 74.22449 96.83968 -1.260973 74.22449 96.83968 -1.260973 72.74422 100.4505 72.23903 72.74422 100.4505 -1.260973 72.74422 100.4505 72.23903 75.04661 108.4929 72.23903 72.74422 100.4505 -1.260973 72.74422 100.4505 -1.260973 75.04661 108.4929 72.23903 75.04661 108.4929 -1.260973 78.33591 110.2984 72.23903 87.05269 108.329 72.23903 78.33591 110.2984 -1.260973 78.33591 110.2984 -1.260973 87.05269 108.329 72.23903 87.05269 108.329 -1.260973 75.04661 108.4929 72.23903 78.33591 110.2984 72.23903 75.04661 108.4929 -1.260973 75.04661 108.4929 -1.260973 78.33591 110.2984 72.23903 78.33591 110.2984 -1.260973 122.4121 139.6788 -2.880895 130.7995 149.8551 -2.880895 175.2066 113.2557 -2.880895 140.5042 114.075 -2.880895 129.6491 122.9377 -2.880895 135.0763 129.339 -2.880895 175.2066 113.2557 -2.880895 166.3259 102.5869 -2.880895 145.2735 119.8198 -2.880895 135.0763 129.339 -2.880895 122.4121 139.6788 -2.880895 175.2066 113.2557 -2.880895 145.2735 119.8198 -2.880895 140.5042 114.075 -2.880895 135.0763 129.339 -2.880895 135.0763 129.339 -2.880895 175.2066 113.2557 -2.880895 145.2735 119.8198 -2.880895 175.2066 113.2557 0.1191051 130.7995 149.8551 0.1191051 122.4121 139.6788 0.1191051 135.0763 129.339 0.1191051 129.6491 122.9377 0.1191051 140.5042 114.075 0.1191051 145.2735 119.8198 0.1191051 166.3259 102.5869 0.1191051 175.2066 113.2557 0.1191051 175.2066 113.2557 0.1191051 122.4121 139.6788 0.1191051 135.0763 129.339 0.1191051 135.0763 129.339 0.1191051 140.5042 114.075 0.1191051 145.2735 119.8198 0.1191051 145.2735 119.8198 0.1191051 175.2066 113.2557 0.1191051 135.0763 129.339 0.1191051 175.2066 113.2557 0.1191051 166.3259 102.5869 0.1191051 175.2066 113.2557 -2.880895 175.2066 113.2557 -2.880895 166.3259 102.5869 0.1191051 166.3259 102.5869 -2.880895 166.3259 102.5869 0.1191051 145.2735 119.8198 0.1191051 166.3259 102.5869 -2.880895 166.3259 102.5869 -2.880895 145.2735 119.8198 0.1191051 145.2735 119.8198 -2.880895 145.2735 119.8198 0.1191051 140.5042 114.075 0.1191051 145.2735 119.8198 -2.880895 145.2735 119.8198 -2.880895 140.5042 114.075 0.1191051 140.5042 114.075 -2.880895 140.5042 114.075 0.1191051 129.6491 122.9377 0.1191051 140.5042 114.075 -2.880895 140.5042 114.075 -2.880895 129.6491 122.9377 0.1191051 129.6491 122.9377 -2.880895 129.6491 122.9377 0.1191051 135.0763 129.339 0.1191051 129.6491 122.9377 -2.880895 129.6491 122.9377 -2.880895 135.0763 129.339 0.1191051 135.0763 129.339 -2.880895 135.0763 129.339 0.1191051 122.4121 139.6788 0.1191051 135.0763 129.339 -2.880895 135.0763 129.339 -2.880895 122.4121 139.6788 0.1191051 122.4121 139.6788 -2.880895 130.7995 149.8551 0.1191051 175.2066 113.2557 0.1191051 130.7995 149.8551 -2.880895 130.7995 149.8551 -2.880895 175.2066 113.2557 0.1191051 175.2066 113.2557 -2.880895 122.4121 139.6788 0.1191051 130.7995 149.8551 0.1191051 122.4121 139.6788 -2.880895 122.4121 139.6788 -2.880895 130.7995 149.8551 0.1191051 130.7995 149.8551 -2.880895 96.7581 26.5924 3.657004 99.06061 29.5468 3.657004 107.4487 22.81766 3.657004 79.4891 8.701844 3.657004 94.94891 27.9054 3.657004 96.7581 26.5924 3.657004 70.27876 8.045159 3.657004 74.22597 12.96913 3.657004 79.4891 8.701844 3.657004 105.1462 19.86326 3.657004 106.6265 18.71439 3.657004 87.38399 -5.577328 3.657004 96.7581 26.5924 3.657004 107.4487 22.81766 3.657004 105.1462 19.86326 3.657004 87.38399 -5.577328 3.657004 70.27876 8.045159 3.657004 79.4891 8.701844 3.657004 96.7581 26.5924 3.657004 105.1462 19.86326 3.657004 87.38399 -5.577328 3.657004 87.38399 -5.577328 3.657004 79.4891 8.701844 3.657004 96.7581 26.5924 3.657004 107.4487 22.81766 6.657004 99.06061 29.5468 6.657004 96.7581 26.5924 6.657004 96.7581 26.5924 6.657004 94.94891 27.9054 6.657004 79.4891 8.701844 6.657004 79.4891 8.701844 6.657004 74.22597 12.96913 6.657004 70.27876 8.045159 6.657004 87.38399 -5.577328 6.657004 106.6265 18.71439 6.657004 105.1462 19.86326 6.657004 105.1462 19.86326 6.657004 107.4487 22.81766 6.657004 96.7581 26.5924 6.657004 79.4891 8.701844 6.657004 70.27876 8.045159 6.657004 87.38399 -5.577328 6.657004 87.38399 -5.577328 6.657004 105.1462 19.86326 6.657004 96.7581 26.5924 6.657004 96.7581 26.5924 6.657004 79.4891 8.701844 6.657004 87.38399 -5.577328 6.657004 107.4487 22.81766 6.657004 105.1462 19.86326 6.657004 107.4487 22.81766 3.657004 107.4487 22.81766 3.657004 105.1462 19.86326 6.657004 105.1462 19.86326 3.657004 105.1462 19.86326 6.657004 106.6265 18.71439 6.657004 105.1462 19.86326 3.657004 105.1462 19.86326 3.657004 106.6265 18.71439 6.657004 106.6265 18.71439 3.657004 106.6265 18.71439 6.657004 87.38399 -5.577328 6.657004 106.6265 18.71439 3.657004 106.6265 18.71439 3.657004 87.38399 -5.577328 6.657004 87.38399 -5.577328 3.657004 87.38399 -5.577328 6.657004 70.27876 8.045159 6.657004 87.38399 -5.577328 3.657004 87.38399 -5.577328 3.657004 70.27876 8.045159 6.657004 70.27876 8.045159 3.657004 70.27876 8.045159 6.657004 74.22597 12.96913 6.657004 70.27876 8.045159 3.657004 70.27876 8.045159 3.657004 74.22597 12.96913 6.657004 74.22597 12.96913 3.657004 74.22597 12.96913 6.657004 79.4891 8.701844 6.657004 74.22597 12.96913 3.657004 74.22597 12.96913 3.657004 79.4891 8.701844 6.657004 79.4891 8.701844 3.657004 79.4891 8.701844 6.657004 94.94891 27.9054 6.657004 79.4891 8.701844 3.657004 79.4891 8.701844 3.657004 94.94891 27.9054 6.657004 94.94891 27.9054 3.657004 94.94891 27.9054 6.657004 96.7581 26.5924 6.657004 94.94891 27.9054 3.657004 94.94891 27.9054 3.657004 96.7581 26.5924 6.657004 96.7581 26.5924 3.657004 99.06061 29.5468 6.657004 107.4487 22.81766 6.657004 99.06061 29.5468 3.657004 99.06061 29.5468 3.657004 107.4487 22.81766 6.657004 107.4487 22.81766 3.657004 96.7581 26.5924 6.657004 99.06061 29.5468 6.657004 96.7581 26.5924 3.657004 96.7581 26.5924 3.657004 99.06061 29.5468 6.657004 99.06061 29.5468 3.657004 154.3212 65.49298 -2.655058 183.266 101.1104 -2.655058 186.391 98.64859 -2.655058 162.0512 63.52371 -2.655058 159.9133 60.89754 -2.655058 154.3212 65.49298 -2.655058 177.6754 72.71563 -2.655058 166.9855 59.58478 -2.655058 162.0512 63.52371 -2.655058 187.3778 99.79754 -2.655058 193.7922 94.7098 -2.655058 176.524 73.70037 -2.655058 162.0512 63.52371 -2.655058 154.3212 65.49298 -2.655058 186.391 98.64859 -2.655058 176.524 73.70037 -2.655058 177.6754 72.71563 -2.655058 162.0512 63.52371 -2.655058 186.391 98.64859 -2.655058 187.3778 99.79754 -2.655058 176.524 73.70037 -2.655058 176.524 73.70037 -2.655058 162.0512 63.52371 -2.655058 186.391 98.64859 -2.655058 186.391 98.64859 0.3449419 183.266 101.1104 0.3449419 154.3212 65.49298 0.3449419 154.3212 65.49298 0.3449419 159.9133 60.89754 0.3449419 162.0512 63.52371 0.3449419 162.0512 63.52371 0.3449419 166.9855 59.58478 0.3449419 177.6754 72.71563 0.3449419 176.524 73.70037 0.3449419 193.7922 94.7098 0.3449419 187.3778 99.79754 0.3449419 186.391 98.64859 0.3449419 154.3212 65.49298 0.3449419 162.0512 63.52371 0.3449419 162.0512 63.52371 0.3449419 177.6754 72.71563 0.3449419 176.524 73.70037 0.3449419 176.524 73.70037 0.3449419 187.3778 99.79754 0.3449419 186.391 98.64859 0.3449419 186.391 98.64859 0.3449419 162.0512 63.52371 0.3449419 176.524 73.70037 0.3449419 186.391 98.64859 0.3449419 187.3778 99.79754 0.3449419 186.391 98.64859 -2.655058 186.391 98.64859 -2.655058 187.3778 99.79754 0.3449419 187.3778 99.79754 -2.655058 187.3778 99.79754 0.3449419 193.7922 94.7098 0.3449419 187.3778 99.79754 -2.655058 187.3778 99.79754 -2.655058 193.7922 94.7098 0.3449419 193.7922 94.7098 -2.655058 193.7922 94.7098 0.3449419 176.524 73.70037 0.3449419 193.7922 94.7098 -2.655058 193.7922 94.7098 -2.655058 176.524 73.70037 0.3449419 176.524 73.70037 -2.655058 176.524 73.70037 0.3449419 177.6754 72.71563 0.3449419 176.524 73.70037 -2.655058 176.524 73.70037 -2.655058 177.6754 72.71563 0.3449419 177.6754 72.71563 -2.655058 177.6754 72.71563 0.3449419 166.9855 59.58478 0.3449419 177.6754 72.71563 -2.655058 177.6754 72.71563 -2.655058 166.9855 59.58478 0.3449419 166.9855 59.58478 -2.655058 166.9855 59.58478 0.3449419 162.0512 63.52371 0.3449419 166.9855 59.58478 -2.655058 166.9855 59.58478 -2.655058 162.0512 63.52371 0.3449419 162.0512 63.52371 -2.655058 162.0512 63.52371 0.3449419 159.9133 60.89754 0.3449419 162.0512 63.52371 -2.655058 162.0512 63.52371 -2.655058 159.9133 60.89754 0.3449419 159.9133 60.89754 -2.655058 159.9133 60.89754 0.3449419 154.3212 65.49298 0.3449419 159.9133 60.89754 -2.655058 159.9133 60.89754 -2.655058 154.3212 65.49298 0.3449419 154.3212 65.49298 -2.655058 183.266 101.1104 0.3449419 186.391 98.64859 0.3449419 183.266 101.1104 -2.655058 183.266 101.1104 -2.655058 186.391 98.64859 0.3449419 186.391 98.64859 -2.655058 154.3212 65.49298 0.3449419 183.266 101.1104 0.3449419 154.3212 65.49298 -2.655058 154.3212 65.49298 -2.655058 183.266 101.1104 0.3449419 183.266 101.1104 -2.655058 54.81724 106.0307 0.5435408 57.44869 107.3438 0.5435408 65.34333 92.24388 0.5435408 45.27825 97.65992 0.5435408 43.96249 99.95773 0.5435408 54.81724 106.0307 0.5435408 59.25832 72.05578 0.5435408 50.37685 88.30455 0.5435408 45.27825 97.65992 0.5435408 81.79064 62.86486 0.5435408 69.7846 52.8527 0.5435408 64.52145 62.5363 0.5435408 54.81724 106.0307 0.5435408 65.34333 92.24388 0.5435408 68.96172 85.67873 0.5435408 59.25832 72.05578 0.5435408 45.27825 97.65992 0.5435408 54.81724 106.0307 0.5435408 81.79064 62.86486 0.5435408 64.52145 62.5363 0.5435408 59.25832 72.05578 0.5435408 54.81724 106.0307 0.5435408 68.96172 85.67873 0.5435408 81.79064 62.86486 0.5435408 81.79064 62.86486 0.5435408 59.25832 72.05578 0.5435408 54.81724 106.0307 0.5435408 65.34333 92.24388 3.543541 57.44869 107.3438 3.543541 54.81724 106.0307 3.543541 54.81724 106.0307 3.543541 43.96249 99.95773 3.543541 45.27825 97.65992 3.543541 45.27825 97.65992 3.543541 50.37685 88.30455 3.543541 59.25832 72.05578 3.543541 64.52145 62.5363 3.543541 69.7846 52.8527 3.543541 81.79064 62.86486 3.543541 68.96172 85.67873 3.543541 65.34333 92.24388 3.543541 54.81724 106.0307 3.543541 54.81724 106.0307 3.543541 45.27825 97.65992 3.543541 59.25832 72.05578 3.543541 59.25832 72.05578 3.543541 64.52145 62.5363 3.543541 81.79064 62.86486 3.543541 81.79064 62.86486 3.543541 68.96172 85.67873 3.543541 54.81724 106.0307 3.543541 54.81724 106.0307 3.543541 59.25832 72.05578 3.543541 81.79064 62.86486 3.543541 65.34333 92.24388 3.543541 68.96172 85.67873 3.543541 65.34333 92.24388 0.5435408 65.34333 92.24388 0.5435408 68.96172 85.67873 3.543541 68.96172 85.67873 0.5435408 68.96172 85.67873 3.543541 81.79064 62.86486 3.543541 68.96172 85.67873 0.5435408 68.96172 85.67873 0.5435408 81.79064 62.86486 3.543541 81.79064 62.86486 0.5435408 81.79064 62.86486 3.543541 69.7846 52.8527 3.543541 81.79064 62.86486 0.5435408 81.79064 62.86486 0.5435408 69.7846 52.8527 3.543541 69.7846 52.8527 0.5435408 69.7846 52.8527 3.543541 64.52145 62.5363 3.543541 69.7846 52.8527 0.5435408 69.7846 52.8527 0.5435408 64.52145 62.5363 3.543541 64.52145 62.5363 0.5435408 64.52145 62.5363 3.543541 59.25832 72.05578 3.543541 64.52145 62.5363 0.5435408 64.52145 62.5363 0.5435408 59.25832 72.05578 3.543541 59.25832 72.05578 0.5435408 59.25832 72.05578 3.543541 50.37685 88.30455 3.543541 59.25832 72.05578 0.5435408 59.25832 72.05578 0.5435408 50.37685 88.30455 3.543541 50.37685 88.30455 0.5435408 50.37685 88.30455 3.543541 45.27825 97.65992 3.543541 50.37685 88.30455 0.5435408 50.37685 88.30455 0.5435408 45.27825 97.65992 3.543541 45.27825 97.65992 0.5435408 45.27825 97.65992 3.543541 43.96249 99.95773 3.543541 45.27825 97.65992 0.5435408 45.27825 97.65992 0.5435408 43.96249 99.95773 3.543541 43.96249 99.95773 0.5435408 43.96249 99.95773 3.543541 54.81724 106.0307 3.543541 43.96249 99.95773 0.5435408 43.96249 99.95773 0.5435408 54.81724 106.0307 3.543541 54.81724 106.0307 0.5435408 57.44869 107.3438 3.543541 65.34333 92.24388 3.543541 57.44869 107.3438 0.5435408 57.44869 107.3438 0.5435408 65.34333 92.24388 3.543541 65.34333 92.24388 0.5435408 54.81724 106.0307 3.543541 57.44869 107.3438 3.543541 54.81724 106.0307 0.5435408 54.81724 106.0307 0.5435408 57.44869 107.3438 3.543541 57.44869 107.3438 0.5435408 74.22541 44.48214 2.740584 76.52792 47.43652 2.740584 84.75151 40.87147 2.740584 62.05485 33.32108 2.740584 72.25175 45.95927 2.740584 74.22541 44.48214 2.740584 54.65384 24.12969 2.740584 55.64064 25.44274 2.740584 62.05485 33.32108 2.740584 70.27876 8.045159 2.740584 52.84469 21.83184 2.740584 54.65384 24.12969 2.740584 68.6339 17.40055 2.740584 74.22597 12.96913 2.740584 70.27876 8.045159 2.740584 82.449 37.91708 2.740584 84.09372 36.60407 2.740584 68.6339 17.40055 2.740584 74.22541 44.48214 2.740584 84.75151 40.87147 2.740584 82.449 37.91708 2.740584 54.65384 24.12969 2.740584 62.05485 33.32108 2.740584 74.22541 44.48214 2.740584 68.6339 17.40055 2.740584 70.27876 8.045159 2.740584 54.65384 24.12969 2.740584 74.22541 44.48214 2.740584 82.449 37.91708 2.740584 68.6339 17.40055 2.740584 68.6339 17.40055 2.740584 54.65384 24.12969 2.740584 74.22541 44.48214 2.740584 84.75151 40.87147 5.740584 76.52792 47.43652 5.740584 74.22541 44.48214 5.740584 74.22541 44.48214 5.740584 72.25175 45.95927 5.740584 62.05485 33.32108 5.740584 62.05485 33.32108 5.740584 55.64064 25.44274 5.740584 54.65384 24.12969 5.740584 54.65384 24.12969 5.740584 52.84469 21.83184 5.740584 70.27876 8.045159 5.740584 70.27876 8.045159 5.740584 74.22597 12.96913 5.740584 68.6339 17.40055 5.740584 68.6339 17.40055 5.740584 84.09372 36.60407 5.740584 82.449 37.91708 5.740584 82.449 37.91708 5.740584 84.75151 40.87147 5.740584 74.22541 44.48214 5.740584 74.22541 44.48214 5.740584 62.05485 33.32108 5.740584 54.65384 24.12969 5.740584 54.65384 24.12969 5.740584 70.27876 8.045159 5.740584 68.6339 17.40055 5.740584 68.6339 17.40055 5.740584 82.449 37.91708 5.740584 74.22541 44.48214 5.740584 74.22541 44.48214 5.740584 54.65384 24.12969 5.740584 68.6339 17.40055 5.740584 84.75151 40.87147 5.740584 82.449 37.91708 5.740584 84.75151 40.87147 2.740584 84.75151 40.87147 2.740584 82.449 37.91708 5.740584 82.449 37.91708 2.740584 82.449 37.91708 5.740584 84.09372 36.60407 5.740584 82.449 37.91708 2.740584 82.449 37.91708 2.740584 84.09372 36.60407 5.740584 84.09372 36.60407 2.740584 84.09372 36.60407 5.740584 68.6339 17.40055 5.740584 84.09372 36.60407 2.740584 84.09372 36.60407 2.740584 68.6339 17.40055 5.740584 68.6339 17.40055 2.740584 68.6339 17.40055 5.740584 74.22597 12.96913 5.740584 68.6339 17.40055 2.740584 68.6339 17.40055 2.740584 74.22597 12.96913 5.740584 74.22597 12.96913 2.740584 74.22597 12.96913 5.740584 70.27876 8.045159 5.740584 74.22597 12.96913 2.740584 74.22597 12.96913 2.740584 70.27876 8.045159 5.740584 70.27876 8.045159 2.740584 70.27876 8.045159 5.740584 52.84469 21.83184 5.740584 70.27876 8.045159 2.740584 70.27876 8.045159 2.740584 52.84469 21.83184 5.740584 52.84469 21.83184 2.740584 52.84469 21.83184 5.740584 54.65384 24.12969 5.740584 52.84469 21.83184 2.740584 52.84469 21.83184 2.740584 54.65384 24.12969 5.740584 54.65384 24.12969 2.740584 54.65384 24.12969 5.740584 55.64064 25.44274 5.740584 54.65384 24.12969 2.740584 54.65384 24.12969 2.740584 55.64064 25.44274 5.740584 55.64064 25.44274 2.740584 55.64064 25.44274 5.740584 62.05485 33.32108 5.740584 55.64064 25.44274 2.740584 55.64064 25.44274 2.740584 62.05485 33.32108 5.740584 62.05485 33.32108 2.740584 62.05485 33.32108 5.740584 72.25175 45.95927 5.740584 62.05485 33.32108 2.740584 62.05485 33.32108 2.740584 72.25175 45.95927 5.740584 72.25175 45.95927 2.740584 72.25175 45.95927 5.740584 74.22541 44.48214 5.740584 72.25175 45.95927 2.740584 72.25175 45.95927 2.740584 74.22541 44.48214 5.740584 74.22541 44.48214 2.740584 76.52792 47.43652 5.740584 84.75151 40.87147 5.740584 76.52792 47.43652 2.740584 76.52792 47.43652 2.740584 84.75151 40.87147 5.740584 84.75151 40.87147 2.740584 74.22541 44.48214 5.740584 76.52792 47.43652 5.740584 74.22541 44.48214 2.740584 74.22541 44.48214 2.740584 76.52792 47.43652 5.740584 76.52792 47.43652 2.740584 69.7846 52.8527 2.924242 81.79064 62.86486 2.924242 96.59307 51.0478 2.924242 84.75151 40.87147 2.924242 76.52792 47.43652 2.924242 72.25167 50.88318 2.924242 112.383 18.87867 2.924242 107.4487 22.81766 2.924242 99.06061 29.5468 2.924242 121.9219 30.86044 2.924242 120.4417 28.89083 2.924242 112.383 18.87867 2.924242 96.59307 51.0478 2.924242 113.5337 37.58954 2.924242 121.9219 30.86044 2.924242 72.25167 50.88318 2.924242 69.7846 52.8527 2.924242 96.59307 51.0478 2.924242 99.06061 29.5468 2.924242 84.75151 40.87147 2.924242 72.25167 50.88318 2.924242 121.9219 30.86044 2.924242 112.383 18.87867 2.924242 99.06061 29.5468 2.924242 72.25167 50.88318 2.924242 96.59307 51.0478 2.924242 121.9219 30.86044 2.924242 121.9219 30.86044 2.924242 99.06061 29.5468 2.924242 72.25167 50.88318 2.924242 96.59307 51.0478 5.924242 81.79064 62.86486 5.924242 69.7846 52.8527 5.924242 72.25167 50.88318 5.924242 76.52792 47.43652 5.924242 84.75151 40.87147 5.924242 99.06061 29.5468 5.924242 107.4487 22.81766 5.924242 112.383 18.87867 5.924242 112.383 18.87867 5.924242 120.4417 28.89083 5.924242 121.9219 30.86044 5.924242 121.9219 30.86044 5.924242 113.5337 37.58954 5.924242 96.59307 51.0478 5.924242 96.59307 51.0478 5.924242 69.7846 52.8527 5.924242 72.25167 50.88318 5.924242 72.25167 50.88318 5.924242 84.75151 40.87147 5.924242 99.06061 29.5468 5.924242 99.06061 29.5468 5.924242 112.383 18.87867 5.924242 121.9219 30.86044 5.924242 121.9219 30.86044 5.924242 96.59307 51.0478 5.924242 72.25167 50.88318 5.924242 72.25167 50.88318 5.924242 99.06061 29.5468 5.924242 121.9219 30.86044 5.924242 96.59307 51.0478 5.924242 113.5337 37.58954 5.924242 96.59307 51.0478 2.924242 96.59307 51.0478 2.924242 113.5337 37.58954 5.924242 113.5337 37.58954 2.924242 113.5337 37.58954 5.924242 121.9219 30.86044 5.924242 113.5337 37.58954 2.924242 113.5337 37.58954 2.924242 121.9219 30.86044 5.924242 121.9219 30.86044 2.924242 121.9219 30.86044 5.924242 120.4417 28.89083 5.924242 121.9219 30.86044 2.924242 121.9219 30.86044 2.924242 120.4417 28.89083 5.924242 120.4417 28.89083 2.924242 120.4417 28.89083 5.924242 112.383 18.87867 5.924242 120.4417 28.89083 2.924242 120.4417 28.89083 2.924242 112.383 18.87867 5.924242 112.383 18.87867 2.924242 112.383 18.87867 5.924242 107.4487 22.81766 5.924242 112.383 18.87867 2.924242 112.383 18.87867 2.924242 107.4487 22.81766 5.924242 107.4487 22.81766 2.924242 107.4487 22.81766 5.924242 99.06061 29.5468 5.924242 107.4487 22.81766 2.924242 107.4487 22.81766 2.924242 99.06061 29.5468 5.924242 99.06061 29.5468 2.924242 99.06061 29.5468 5.924242 84.75151 40.87147 5.924242 99.06061 29.5468 2.924242 99.06061 29.5468 2.924242 84.75151 40.87147 5.924242 84.75151 40.87147 2.924242 84.75151 40.87147 5.924242 76.52792 47.43652 5.924242 84.75151 40.87147 2.924242 84.75151 40.87147 2.924242 76.52792 47.43652 5.924242 76.52792 47.43652 2.924242 76.52792 47.43652 5.924242 72.25167 50.88318 5.924242 76.52792 47.43652 2.924242 76.52792 47.43652 2.924242 72.25167 50.88318 5.924242 72.25167 50.88318 2.924242 72.25167 50.88318 5.924242 69.7846 52.8527 5.924242 72.25167 50.88318 2.924242 72.25167 50.88318 2.924242 69.7846 52.8527 5.924242 69.7846 52.8527 2.924242 81.79064 62.86486 5.924242 96.59307 51.0478 5.924242 81.79064 62.86486 2.924242 81.79064 62.86486 2.924242 96.59307 51.0478 5.924242 96.59307 51.0478 2.924242 69.7846 52.8527 5.924242 81.79064 62.86486 5.924242 69.7846 52.8527 2.924242 69.7846 52.8527 2.924242 81.79064 62.86486 5.924242 81.79064 62.86486 2.924242 104.487 75.17513 1.127665 106.7895 75.33932 1.127665 109.75 72.87744 1.127665 96.42809 73.53364 1.127665 101.3621 73.86201 1.127665 102.6779 72.71313 1.127665 92.31665 61.38791 1.127665 91.49418 67.29658 1.127665 96.42809 73.53364 1.127665 113.5337 37.58954 1.127665 96.59307 51.0478 1.127665 99.88235 55.31526 1.127665 124.7174 48.09419 1.127665 118.3033 40.05163 1.127665 116.6586 41.36462 1.127665 121.9209 65.32779 1.127665 129.4866 59.25519 1.127665 122.4147 50.06369 1.127665 111.0658 70.08726 1.127665 112.8749 72.54926 1.127665 121.9209 65.32779 1.127665 104.487 75.17513 1.127665 109.75 72.87744 1.127665 109.5856 71.40027 1.127665 92.31665 61.38791 1.127665 96.42809 73.53364 1.127665 102.6779 72.71313 1.127665 116.6586 41.36462 1.127665 113.5337 37.58954 1.127665 99.88235 55.31526 1.127665 122.4147 50.06369 1.127665 124.7174 48.09419 1.127665 116.6586 41.36462 1.127665 111.0658 70.08726 1.127665 121.9209 65.32779 1.127665 122.4147 50.06369 1.127665 104.487 75.17513 1.127665 109.5856 71.40027 1.127665 111.0658 70.08726 1.127665 99.88235 55.31526 1.127665 92.31665 61.38791 1.127665 102.6779 72.71313 1.127665 122.4147 50.06369 1.127665 116.6586 41.36462 1.127665 99.88235 55.31526 1.127665 104.487 75.17513 1.127665 111.0658 70.08726 1.127665 122.4147 50.06369 1.127665 99.88235 55.31526 1.127665 102.6779 72.71313 1.127665 104.487 75.17513 1.127665 104.487 75.17513 1.127665 122.4147 50.06369 1.127665 99.88235 55.31526 1.127665 109.75 72.87744 4.127665 106.7895 75.33932 4.127665 104.487 75.17513 4.127665 102.6779 72.71313 4.127665 101.3621 73.86201 4.127665 96.42809 73.53364 4.127665 96.42809 73.53364 4.127665 91.49418 67.29658 4.127665 92.31665 61.38791 4.127665 99.88235 55.31526 4.127665 96.59307 51.0478 4.127665 113.5337 37.58954 4.127665 116.6586 41.36462 4.127665 118.3033 40.05163 4.127665 124.7174 48.09419 4.127665 122.4147 50.06369 4.127665 129.4866 59.25519 4.127665 121.9209 65.32779 4.127665 121.9209 65.32779 4.127665 112.8749 72.54926 4.127665 111.0658 70.08726 4.127665 109.5856 71.40027 4.127665 109.75 72.87744 4.127665 104.487 75.17513 4.127665 102.6779 72.71313 4.127665 96.42809 73.53364 4.127665 92.31665 61.38791 4.127665 99.88235 55.31526 4.127665 113.5337 37.58954 4.127665 116.6586 41.36462 4.127665 116.6586 41.36462 4.127665 124.7174 48.09419 4.127665 122.4147 50.06369 4.127665 122.4147 50.06369 4.127665 121.9209 65.32779 4.127665 111.0658 70.08726 4.127665 111.0658 70.08726 4.127665 109.5856 71.40027 4.127665 104.487 75.17513 4.127665 102.6779 72.71313 4.127665 92.31665 61.38791 4.127665 99.88235 55.31526 4.127665 99.88235 55.31526 4.127665 116.6586 41.36462 4.127665 122.4147 50.06369 4.127665 122.4147 50.06369 4.127665 111.0658 70.08726 4.127665 104.487 75.17513 4.127665 104.487 75.17513 4.127665 102.6779 72.71313 4.127665 99.88235 55.31526 4.127665 99.88235 55.31526 4.127665 122.4147 50.06369 4.127665 104.487 75.17513 4.127665 109.75 72.87744 4.127665 109.5856 71.40027 4.127665 109.75 72.87744 1.127665 109.75 72.87744 1.127665 109.5856 71.40027 4.127665 109.5856 71.40027 1.127665 109.5856 71.40027 4.127665 111.0658 70.08726 4.127665 109.5856 71.40027 1.127665 109.5856 71.40027 1.127665 111.0658 70.08726 4.127665 111.0658 70.08726 1.127665 111.0658 70.08726 4.127665 112.8749 72.54926 4.127665 111.0658 70.08726 1.127665 111.0658 70.08726 1.127665 112.8749 72.54926 4.127665 112.8749 72.54926 1.127665 112.8749 72.54926 4.127665 121.9209 65.32779 4.127665 112.8749 72.54926 1.127665 112.8749 72.54926 1.127665 121.9209 65.32779 4.127665 121.9209 65.32779 1.127665 121.9209 65.32779 4.127665 129.4866 59.25519 4.127665 121.9209 65.32779 1.127665 121.9209 65.32779 1.127665 129.4866 59.25519 4.127665 129.4866 59.25519 1.127665 129.4866 59.25519 4.127665 122.4147 50.06369 4.127665 129.4866 59.25519 1.127665 129.4866 59.25519 1.127665 122.4147 50.06369 4.127665 122.4147 50.06369 1.127665 122.4147 50.06369 4.127665 124.7174 48.09419 4.127665 122.4147 50.06369 1.127665 122.4147 50.06369 1.127665 124.7174 48.09419 4.127665 124.7174 48.09419 1.127665 124.7174 48.09419 4.127665 118.3033 40.05163 4.127665 124.7174 48.09419 1.127665 124.7174 48.09419 1.127665 118.3033 40.05163 4.127665 118.3033 40.05163 1.127665 118.3033 40.05163 4.127665 116.6586 41.36462 4.127665 118.3033 40.05163 1.127665 118.3033 40.05163 1.127665 116.6586 41.36462 4.127665 116.6586 41.36462 1.127665 116.6586 41.36462 4.127665 113.5337 37.58954 4.127665 116.6586 41.36462 1.127665 116.6586 41.36462 1.127665 113.5337 37.58954 4.127665 113.5337 37.58954 1.127665 113.5337 37.58954 4.127665 96.59307 51.0478 4.127665 113.5337 37.58954 1.127665 113.5337 37.58954 1.127665 96.59307 51.0478 4.127665 96.59307 51.0478 1.127665 96.59307 51.0478 4.127665 99.88235 55.31526 4.127665 96.59307 51.0478 1.127665 96.59307 51.0478 1.127665 99.88235 55.31526 4.127665 99.88235 55.31526 1.127665 99.88235 55.31526 4.127665 92.31665 61.38791 4.127665 99.88235 55.31526 1.127665 99.88235 55.31526 1.127665 92.31665 61.38791 4.127665 92.31665 61.38791 1.127665 92.31665 61.38791 4.127665 91.49418 67.29658 4.127665 92.31665 61.38791 1.127665 92.31665 61.38791 1.127665 91.49418 67.29658 4.127665 91.49418 67.29658 1.127665 91.49418 67.29658 4.127665 96.42809 73.53364 4.127665 91.49418 67.29658 1.127665 91.49418 67.29658 1.127665 96.42809 73.53364 4.127665 96.42809 73.53364 1.127665 96.42809 73.53364 4.127665 101.3621 73.86201 4.127665 96.42809 73.53364 1.127665 96.42809 73.53364 1.127665 101.3621 73.86201 4.127665 101.3621 73.86201 1.127665 101.3621 73.86201 4.127665 102.6779 72.71313 4.127665 101.3621 73.86201 1.127665 101.3621 73.86201 1.127665 102.6779 72.71313 4.127665 102.6779 72.71313 1.127665 102.6779 72.71313 4.127665 104.487 75.17513 4.127665 102.6779 72.71313 1.127665 102.6779 72.71313 1.127665 104.487 75.17513 4.127665 104.487 75.17513 1.127665 106.7895 75.33932 4.127665 109.75 72.87744 4.127665 106.7895 75.33932 1.127665 106.7895 75.33932 1.127665 109.75 72.87744 4.127665 109.75 72.87744 1.127665 104.487 75.17513 4.127665 106.7895 75.33932 4.127665 104.487 75.17513 1.127665 104.487 75.17513 1.127665 106.7895 75.33932 4.127665 106.7895 75.33932 1.127665</float_array>
          <technique_common>
            <accessor count="1848" source="#verts-array-array" stride="3">
              <param type="float" name="X" />
              <param type="float" name="Y" />
              <param type="float" name="Z" />
            </accessor>
          </technique_common>
        </source>
        <source id="normals-array">
          <float_array count="5544" id="normals-array-array">0 0 -1 0 0 -1 0 0 -1 0 0 -1 0 0 -1 0 0 -1 0 0 1 0 0 1 0 0 1 0 0 1 0 0 1 0 0 1 0.3484502 -0.9373273 0 0.3484502 -0.9373273 0 0.3484502 -0.9373273 0 0.3484502 -0.9373273 0 0.3484502 -0.9373273 0 0.3484502 -0.9373273 0 -0.9375198 -0.347932 0 -0.9375198 -0.347932 0 -0.9375198 -0.347932 0 -0.9375198 -0.347932 0 -0.9375198 -0.347932 0 -0.9375198 -0.347932 0 0.9258243 0.3779543 0 0.9258243 0.3779543 0 0.9258243 0.3779543 0 0.9258243 0.3779543 0 0.9258243 0.3779543 0 0.9258243 0.3779543 0 -0.354551 0.9350367 0 -0.354551 0.9350367 0 -0.354551 0.9350367 0 -0.354551 0.9350367 0 -0.354551 0.9350367 0 -0.354551 0.9350367 0 0 0 -1 0 0 -1 0 0 -1 0 0 -1 0 0 -1 0 0 -1 0 0 1 0 0 1 0 0 1 0 0 1 0 0 1 0 0 1 0.4811222 -0.8766535 0 0.4811222 -0.8766535 0 0.4811222 -0.8766535 0 0.4811222 -0.8766535 0 0.4811222 -0.8766535 0 0.4811222 -0.8766535 0 -0.8793046 -0.4762599 0 -0.8793046 -0.4762599 0 -0.8793046 -0.4762599 0 -0.8793046 -0.4762599 0 -0.8793046 -0.4762599 0 -0.8793046 -0.4762599 0 0.8765653 0.481283 0 0.8765653 0.481283 0 0.8765653 0.481283 0 0.8765653 0.481283 0 0.8765653 0.481283 0 0.8765653 0.481283 0 -0.4726517 0.8812493 0 -0.4726517 0.8812493 0 -0.4726517 0.8812493 0 -0.4726517 0.8812493 0 -0.4726517 0.8812493 0 -0.4726517 0.8812493 0 0 0 -1 0 0 -1 0 0 -1 0 0 -1 0 0 -1 0 0 -1 0 0 -1 0 0 -1 0 0 -1 0 0 -1 0 0 -1 0 0 -1 0 0 -1 0 0 -1 0 0 -1 0 0 -1 0 0 -1 0 0 -1 0 0 -1 0 0 -1 0 0 -1 0 0 -1 0 0 -1 0 0 -1 0 0 -1 0 0 -1 0 0 -1 0 0 -1 0 0 -1 0 0 -1 0 0 -1 0 0 -1 0 0 -1 0 0 -1 0 0 -1 0 0 -1 0 0 -1 0 0 -1 0 0 -1 0 0 -1 0 0 -1 0 0 -1 0 0 -1 0 0 -1 0 0 -1 0 0 -1 0 0 -1 0 0 -1 0 0 1 0 0 1 0 0 1 0 0 1 0 0 1 0 0 1 0 0 1 0 0 1 0 0 1 0 0 1 0 0 1 0 0 1 0 0 1 0 0 1 0 0 1 0 0 1 0 0 1 0 0 1 0 0 1 0 0 1 0 0 1 0 0 1 0 0 1 0 0 1 0 0 1 0 0 1 0 0 1 0 0 1 0 0 1 0 0 1 0 0 1 0 0 1 0 0 1 0 0 1 0 0 1 0 0 1 0 0 1 0 0 1 0 0 1 0 0 1 0 0 1 0 0 1 0 0 1 0 0 1 0 0 1 0 0 1 0 0 1 0 0 1 -1 1.790857e-05 0 -1 1.790857e-05 0 -1 1.790857e-05 0 -1 1.790857e-05 0 -1 1.790857e-05 0 -1 1.790857e-05 0 -0.8750043 -0.4841151 0 -0.8750043 -0.4841151 0 -0.8750043 -0.4841151 0 -0.8750043 -0.4841151 0 -0.8750043 -0.4841151 0 -0.8750043 -0.4841151 0 0.4786964 -0.8779805 0 0.4786964 -0.8779805 0 0.4786964 -0.8779805 0 0.4786964 -0.8779805 0 0.4786964 -0.8779805 0 0.4786964 -0.8779805 0 -0.8758074 -0.4826608 0 -0.8758074 -0.4826608 0 -0.8758074 -0.4826608 0 -0.8758074 -0.4826608 0 -0.8758074 -0.4826608 0 -0.8758074 -0.4826608 0 -0.4792596 0.8776732 0 -0.4792596 0.8776732 0 -0.4792596 0.8776732 0 -0.4792596 0.8776732 0 -0.4792596 0.8776732 0 -0.4792596 0.8776732 0 -0.480769 0.8768473 0 -0.480769 0.8768473 0 -0.480769 0.8768473 0 -0.480769 0.8768473 0 -0.480769 0.8768473 0 -0.480769 0.8768473 0 -1 1.789331e-05 0 -1 1.789331e-05 0 -1 1.789331e-05 0 -1 1.789331e-05 0 -1 1.789331e-05 0 -1 1.789331e-05 0 -0.4795421 0.8775189 0 -0.4795421 0.8775189 0 -0.4795421 0.8775189 0 -0.4795421 0.8775189 0 -0.4795421 0.8775189 0 -0.4795421 0.8775189 0 -0.48231 0.8760006 0 -0.48231 0.8760006 0 -0.48231 0.8760006 0 -0.48231 0.8760006 0 -0.48231 0.8760006 0 -0.48231 0.8760006 0 -0.483296 0.875457 0 -0.483296 0.875457 0 -0.483296 0.875457 0 -0.483296 0.875457 0 -0.483296 0.875457 0 -0.483296 0.875457 0 0.8723301 0.4889174 0 0.8723301 0.4889174 0 0.8723301 0.4889174 0 0.8723301 0.4889174 0 0.8723301 0.4889174 0 0.8723301 0.4889174 0 0.8760332 0.4822509 0 0.8760332 0.4822509 0 0.8760332 0.4822509 0 0.8760332 0.4822509 0 0.8760332 0.4822509 0 0.8760332 0.4822509 0 0.4868784 -0.8734698 0 0.4868784 -0.8734698 0 0.4868784 -0.8734698 0 0.4868784 -0.8734698 0 0.4868784 -0.8734698 0 0.4868784 -0.8734698 0 0.8731381 0.4874729 0 0.8731381 0.4874729 0 0.8731381 0.4874729 0 0.8731381 0.4874729 0 0.8731381 0.4874729 0 0.8731381 0.4874729 0 0.4953642 -0.8686854 0 0.4953642 -0.8686854 0 0.4953642 -0.8686854 0 0.4953642 -0.8686854 0 0.4953642 -0.8686854 0 0.4953642 -0.8686854 0 0.479038 -0.8777942 0 0.479038 -0.8777942 0 0.479038 -0.8777942 0 0.479038 -0.8777942 0 0.479038 -0.8777942 0 0.479038 -0.8777942 0 -0.8711472 -0.491022 0 -0.8711472 -0.491022 0 -0.8711472 -0.491022 0 -0.8711472 -0.491022 0 -0.8711472 -0.491022 0 -0.8711472 -0.491022 0 0.4769896 -0.8789089 0 0.4769896 -0.8789089 0 0.4769896 -0.8789089 0 0.4769896 -0.8789089 0 0.4769896 -0.8789089 0 0.4769896 -0.8789089 0 0 0 -1 0 0 -1 0 0 -1 0 0 -1 0 0 -1 0 0 -1 0 0 1 0 0 1 0 0 1 0 0 1 0 0 1 0 0 1 0.4953645 -0.8686852 0 0.4953645 -0.8686852 0 0.4953645 -0.8686852 0 0.4953645 -0.8686852 0 0.4953645 -0.8686852 0 0.4953645 -0.8686852 0 -0.8645786 -0.5024977 0 -0.8645786 -0.5024977 0 -0.8645786 -0.5024977 0 -0.8645786 -0.5024977 0 -0.8645786 -0.5024977 0 -0.8645786 -0.5024977 0 0.8645777 0.5024991 0 0.8645777 0.5024991 0 0.8645777 0.5024991 0 0.8645777 0.5024991 0 0.8645777 0.5024991 0 0.8645777 0.5024991 0 -0.4953642 0.8686854 0 -0.4953642 0.8686854 0 -0.4953642 0.8686854 0 -0.4953642 0.8686854 0 -0.4953642 0.8686854 0 -0.4953642 0.8686854 0 0 0 -1 0 0 -1 0 0 -1 0 0 -1 0 0 -1 0 0 -1 0 0 1 0 0 1 0 0 1 0 0 1 0 0 1 0 0 1 0.466387 -0.8845808 0 0.466387 -0.8845808 0 0.466387 -0.8845808 0 0.466387 -0.8845808 0 0.466387 -0.8845808 0 0.466387 -0.8845808 0 -0.8757899 -0.4826924 0 -0.8757899 -0.4826924 0 -0.8757899 -0.4826924 0 -0.8757899 -0.4826924 0 -0.8757899 -0.4826924 0 -0.8757899 -0.4826924 0 0.8849965 0.4655977 0 0.8849965 0.4655977 0 0.8849965 0.4655977 0 0.8849965 0.4655977 0 0.8849965 0.4655977 0 0.8849965 0.4655977 0 -0.459588 0.8881322 0 -0.459588 0.8881322 0 -0.459588 0.8881322 0 -0.459588 0.8881322 0 -0.459588 0.8881322 0 -0.459588 0.8881322 0 0 0 -1 0 0 -1 0 0 -1 0 0 -1 0 0 -1 0 0 -1 0 0 1 0 0 1 0 0 1 0 0 1 0 0 1 0 0 1 0.7742106 -0.6329281 0 0.7742106 -0.6329281 0 0.7742106 -0.6329281 0 0.7742106 -0.6329281 0 0.7742106 -0.6329281 0 0.7742106 -0.6329281 0 -0.6258515 -0.7799422 0 -0.6258515 -0.7799422 0 -0.6258515 -0.7799422 0 -0.6258515 -0.7799422 0 -0.6258515 -0.7799422 0 -0.6258515 -0.7799422 0 0.6170171 0.7869497 0 0.6170171 0.7869497 0 0.6170171 0.7869497 0 0.6170171 0.7869497 0 0.6170171 0.7869497 0 0.6170171 0.7869497 0 -0.7761031 0.6306061 0 -0.7761031 0.6306061 0 -0.7761031 0.6306061 0 -0.7761031 0.6306061 0 -0.7761031 0.6306061 0 -0.7761031 0.6306061 0 0 0 -1 0 0 -1 0 0 -1 0 0 -1 0 0 -1 0 0 -1 0 0 -1 0 0 -1 0 0 -1 0 0 -1 0 0 -1 0 0 -1 0 0 1 0 0 1 0 0 1 0 0 1 0 0 1 0 0 1 0 0 1 0 0 1 0 0 1 0 0 1 0 0 1 0 0 1 0.7288121 -0.6847138 0 0.7288121 -0.6847138 0 0.7288121 -0.6847138 0 0.7288121 -0.6847138 0 0.7288121 -0.6847138 0 0.7288121 -0.6847138 0 -0.7063655 -0.7078473 0 -0.7063655 -0.7078473 0 -0.7063655 -0.7078473 0 -0.7063655 -0.7078473 0 -0.7063655 -0.7078473 0 -0.7063655 -0.7078473 0 0.7425864 -0.6697502 0 0.7425864 -0.6697502 0 0.7425864 -0.6697502 0 0.7425864 -0.6697502 0 0.7425864 -0.6697502 0 0.7425864 -0.6697502 0 -0.6782759 -0.7348073 0 -0.6782759 -0.7348073 0 -0.6782759 -0.7348073 0 -0.6782759 -0.7348073 0 -0.6782759 -0.7348073 0 -0.6782759 -0.7348073 0 0.6821203 0.73124 0 0.6821203 0.73124 0 0.6821203 0.73124 0 0.6821203 0.73124 0 0.6821203 0.73124 0 0.6821203 0.73124 0 -0.7320717 0.6812276 0 -0.7320717 0.6812276 0 -0.7320717 0.6812276 0 -0.7320717 0.6812276 0 -0.7320717 0.6812276 0 -0.7320717 0.6812276 0 0 0 -1 0 0 -1 0 0 -1 0 0 -1 0 0 -1 0 0 -1 0 0 -1 0 0 -1 0 0 -1 0 0 1 0 0 1 0 0 1 0 0 1 0 0 1 0 0 1 0 0 1 0 0 1 0 0 1 0.4684323 -0.8834994 0 0.4684323 -0.8834994 0 0.4684323 -0.8834994 0 0.4684323 -0.8834994 0 0.4684323 -0.8834994 0 0.4684323 -0.8834994 0 0.4763606 -0.87925 0 0.4763606 -0.87925 0 0.4763606 -0.87925 0 0.4763606 -0.87925 0 0.4763606 -0.87925 0 0.4763606 -0.87925 0 -0.8794335 -0.4760218 0 -0.8794335 -0.4760218 0 -0.8794335 -0.4760218 0 -0.8794335 -0.4760218 0 -0.8794335 -0.4760218 0 -0.8794335 -0.4760218 0 0.8808739 0.4733511 0 0.8808739 0.4733511 0 0.8808739 0.4733511 0 0.8808739 0.4733511 0 0.8808739 0.4733511 0 0.8808739 0.4733511 0 -0.4776616 0.8785439 0 -0.4776616 0.8785439 0 -0.4776616 0.8785439 0 -0.4776616 0.8785439 0 -0.4776616 0.8785439 0 -0.4776616 0.8785439 0 0 0 -1 0 0 -1 0 0 -1 0 0 -1 0 0 -1 0 0 -1 0 0 -1 0 0 -1 0 0 -1 0 0 -1 0 0 -1 0 0 -1 0 0 1 0 0 1 0 0 1 0 0 1 0 0 1 0 0 1 0 0 1 0 0 1 0 0 1 0 0 1 0 0 1 0 0 1 0.7786932 -0.6274049 0 0.7786932 -0.6274049 0 0.7786932 -0.6274049 0 0.7786932 -0.6274049 0 0.7786932 -0.6274049 0 0.7786932 -0.6274049 0 -0.6154947 -0.788141 0 -0.6154947 -0.788141 0 -0.6154947 -0.788141 0 -0.6154947 -0.788141 0 -0.6154947 -0.788141 0 -0.6154947 -0.788141 0 0.7812943 -0.6241628 0 0.7812943 -0.6241628 0 0.7812943 -0.6241628 0 0.7812943 -0.6241628 0 0.7812943 -0.6241628 0 0.7812943 -0.6241628 0 -0.6301085 -0.7765071 0 -0.6301085 -0.7765071 0 -0.6301085 -0.7765071 0 -0.6301085 -0.7765071 0 -0.6301085 -0.7765071 0 -0.6301085 -0.7765071 0 0.6366201 0.7711776 0 0.6366201 0.7711776 0 0.6366201 0.7711776 0 0.6366201 0.7711776 0 0.6366201 0.7711776 0 0.6366201 0.7711776 0 -0.76908 0.6391526 0 -0.76908 0.6391526 0 -0.76908 0.6391526 0 -0.76908 0.6391526 0 -0.76908 0.6391526 0 -0.76908 0.6391526 0 0 0 -1 0 0 -1 0 0 -1 0 0 -1 0 0 -1 0 0 -1 0 0 -1 0 0 -1 0 0 -1 0 0 -1 0 0 -1 0 0 -1 0 0 -1 0 0 -1 0 0 -1 0 0 -1 0 0 -1 0 0 -1 0 0 -1 0 0 -1 0 0 -1 0 0 1 0 0 1 0 0 1 0 0 1 0 0 1 0 0 1 0 0 1 0 0 1 0 0 1 0 0 1 0 0 1 0 0 1 0 0 1 0 0 1 0 0 1 0 0 1 0 0 1 0 0 1 0 0 1 0 0 1 0 0 1 0.7878938 -0.6158111 0 0.7878938 -0.6158111 0 0.7878938 -0.6158111 0 0.7878938 -0.6158111 0 0.7878938 -0.6158111 0 0.7878938 -0.6158111 0 0.6393929 0.7688802 0 0.6393929 0.7688802 0 0.6393929 0.7688802 0 0.6393929 0.7688802 0 0.6393929 0.7688802 0 0.6393929 0.7688802 0 0.7994117 -0.6007836 0 0.7994117 -0.6007836 0 0.7994117 -0.6007836 0 0.7994117 -0.6007836 0 0.7994117 -0.6007836 0 0.7994117 -0.6007836 0 -0.6500055 -0.7599295 0 -0.6500055 -0.7599295 0 -0.6500055 -0.7599295 0 -0.6500055 -0.7599295 0 -0.6500055 -0.7599295 0 -0.6500055 -0.7599295 0 0.7585992 -0.6515576 0 0.7585992 -0.6515576 0 0.7585992 -0.6515576 0 0.7585992 -0.6515576 0 0.7585992 -0.6515576 0 0.7585992 -0.6515576 0 -0.642403 -0.766367 0 -0.642403 -0.766367 0 -0.642403 -0.766367 0 -0.642403 -0.766367 0 -0.642403 -0.766367 0 -0.642403 -0.766367 0 -0.8093592 -0.5873139 0 -0.8093592 -0.5873139 0 -0.8093592 -0.5873139 0 -0.8093592 -0.5873139 0 -0.8093592 -0.5873139 0 -0.8093592 -0.5873139 0 0.8882276 0.4594037 0 0.8882276 0.4594037 0 0.8882276 0.4594037 0 0.8882276 0.4594037 0 0.8882276 0.4594037 0 0.8882276 0.4594037 0 -0.5079611 0.86138 0 -0.5079611 0.86138 0 -0.5079611 0.86138 0 -0.5079611 0.86138 0 -0.5079611 0.86138 0 -0.5079611 0.86138 0 0 0 -1 0 0 -1 0 0 -1 0 0 -1 0 0 -1 0 0 -1 0 0 -1 0 0 -1 0 0 -1 0 0 -1 0 0 -1 0 0 -1 0 0 -1 0 0 -1 0 0 -1 0 0 -1 0 0 -1 0 0 -1 0 0 1 0 0 1 0 0 1 0 0 1 0 0 1 0 0 1 0 0 1 0 0 1 0 0 1 0 0 1 0 0 1 0 0 1 0 0 1 0 0 1 0 0 1 0 0 1 0 0 1 0 0 1 0.4913025 -0.870989 0 0.4913025 -0.870989 0 0.4913025 -0.870989 0 0.4913025 -0.870989 0 0.4913025 -0.870989 0 0.4913025 -0.870989 0 0.8774734 0.4796253 0 0.8774734 0.4796253 0 0.8774734 0.4796253 0 0.8774734 0.4796253 0 0.8774734 0.4796253 0 0.8774734 0.4796253 0 0.4821839 -0.87607 0 0.4821839 -0.87607 0 0.4821839 -0.87607 0 0.4821839 -0.87607 0 0.4821839 -0.87607 0 0.4821839 -0.87607 0 -0.8757922 -0.4826883 0 -0.8757922 -0.4826883 0 -0.8757922 -0.4826883 0 -0.8757922 -0.4826883 0 -0.8757922 -0.4826883 0 -0.8757922 -0.4826883 0 -0.4781012 0.8783048 0 -0.4781012 0.8783048 0 -0.4781012 0.8783048 0 -0.4781012 0.8783048 0 -0.4781012 0.8783048 0 -0.4781012 0.8783048 0 0.8570187 0.5152853 0 0.8570187 0.5152853 0 0.8570187 0.5152853 0 0.8570187 0.5152853 0 0.8570187 0.5152853 0 0.8570187 0.5152853 0 0.8751495 0.4838526 0 0.8751495 0.4838526 0 0.8751495 0.4838526 0 0.8751495 0.4838526 0 0.8751495 0.4838526 0 0.8751495 0.4838526 0 -0.4913023 0.8709891 0 -0.4913023 0.8709891 0 -0.4913023 0.8709891 0 -0.4913023 0.8709891 0 -0.4913023 0.8709891 0 -0.4913023 0.8709891 0 0 0 -1 0 0 -1 0 0 -1 0 0 -1 0 0 -1 0 0 -1 0 0 -1 0 0 -1 0 0 -1 0 0 -1 0 0 -1 0 0 -1 0 0 -1 0 0 -1 0 0 -1 0 0 -1 0 0 -1 0 0 -1 0 0 1 0 0 1 0 0 1 0 0 1 0 0 1 0 0 1 0 0 1 0 0 1 0 0 1 0 0 1 0 0 1 0 0 1 0 0 1 0 0 1 0 0 1 0 0 1 0 0 1 0 0 1 0.4755375 -0.8796955 0 0.4755375 -0.8796955 0 0.4755375 -0.8796955 0 0.4755375 -0.8796955 0 0.4755375 -0.8796955 0 0.4755375 -0.8796955 0 0.8431555 0.5376697 0 0.8431555 0.5376697 0 0.8431555 0.5376697 0 0.8431555 0.5376697 0 0.8431555 0.5376697 0 0.8431555 0.5376697 0 0.4821832 -0.8760704 0 0.4821832 -0.8760704 0 0.4821832 -0.8760704 0 0.4821832 -0.8760704 0 0.4821832 -0.8760704 0 0.4821832 -0.8760704 0 -0.877905 -0.4788349 0 -0.877905 -0.4788349 0 -0.877905 -0.4788349 0 -0.877905 -0.4788349 0 -0.877905 -0.4788349 0 -0.877905 -0.4788349 0 -0.4781005 0.8783051 0 -0.4781005 0.8783051 0 -0.4781005 0.8783051 0 -0.4781005 0.8783051 0 -0.4781005 0.8783051 0 -0.4781005 0.8783051 0 0.8940554 0.4479563 0 0.8940554 0.4479563 0 0.8940554 0.4479563 0 0.8940554 0.4479563 0 0.8940554 0.4479563 0 0.8940554 0.4479563 0 0.8780665 0.4785387 0 0.8780665 0.4785387 0 0.8780665 0.4785387 0 0.8780665 0.4785387 0 0.8780665 0.4785387 0 0.8780665 0.4785387 0 -0.4755373 0.8796956 0 -0.4755373 0.8796956 0 -0.4755373 0.8796956 0 -0.4755373 0.8796956 0 -0.4755373 0.8796956 0 -0.4755373 0.8796956 0 0 0 -1 0 0 -1 0 0 -1 0 0 -1 0 0 -1 0 0 -1 0 0 -1 0 0 -1 0 0 -1 0 0 -1 0 0 -1 0 0 -1 0 0 -1 0 0 -1 0 0 -1 0 0 -1 0 0 -1 0 0 -1 0 0 -1 0 0 -1 0 0 -1 0 0 -1 0 0 -1 0 0 -1 0 0 1 0 0 1 0 0 1 0 0 1 0 0 1 0 0 1 0 0 1 0 0 1 0 0 1 0 0 1 0 0 1 0 0 1 0 0 1 0 0 1 0 0 1 0 0 1 0 0 1 0 0 1 0 0 1 0 0 1 0 0 1 0 0 1 0 0 1 0 0 1 0.872649 0.488348 0 0.872649 0.488348 0 0.872649 0.488348 0 0.872649 0.488348 0 0.872649 0.488348 0 0.872649 0.488348 0 0.956721 -0.2910067 0 0.956721 -0.2910067 0 0.956721 -0.2910067 0 0.956721 -0.2910067 0 0.956721 -0.2910067 0 0.956721 -0.2910067 0 0.4811779 -0.876623 0 0.4811779 -0.876623 0 0.4811779 -0.876623 0 0.4811779 -0.876623 0 0.4811779 -0.876623 0 0.4811779 -0.876623 0 -0.2787821 -0.9603544 0 -0.2787821 -0.9603544 0 -0.2787821 -0.9603544 0 -0.2787821 -0.9603544 0 -0.2787821 -0.9603544 0 -0.2787821 -0.9603544 0 -0.9134941 -0.406852 0 -0.9134941 -0.406852 0 -0.9134941 -0.406852 0 -0.9134941 -0.406852 0 -0.9134941 -0.406852 0 -0.9134941 -0.406852 0 -0.8849965 -0.4655977 0 -0.8849965 -0.4655977 0 -0.8849965 -0.4655977 0 -0.8849965 -0.4655977 0 -0.8849965 -0.4655977 0 -0.8849965 -0.4655977 0 -0.9252678 -0.3793144 0 -0.9252678 -0.3793144 0 -0.9252678 -0.3793144 0 -0.9252678 -0.3793144 0 -0.9252678 -0.3793144 0 -0.9252678 -0.3793144 0 -0.9613798 0.2752251 0 -0.9613798 0.2752251 0 -0.9613798 0.2752251 0 -0.9613798 0.2752251 0 -0.9613798 0.2752251 0 -0.9613798 0.2752251 0 0.2203767 0.9754148 0 0.2203767 0.9754148 0 0.2203767 0.9754148 0 0.2203767 0.9754148 0 0.2203767 0.9754148 0 0.2203767 0.9754148 0 -0.4811773 0.8766233 0 -0.4811773 0.8766233 0 -0.4811773 0.8766233 0 -0.4811773 0.8766233 0 -0.4811773 0.8766233 0 -0.4811773 0.8766233 0 0 0 -1 0 0 -1 0 0 -1 0 0 -1 0 0 -1 0 0 -1 0 0 -1 0 0 -1 0 0 -1 0 0 -1 0 0 -1 0 0 -1 0 0 -1 0 0 -1 0 0 -1 0 0 -1 0 0 -1 0 0 -1 0 0 1 0 0 1 0 0 1 0 0 1 0 0 1 0 0 1 0 0 1 0 0 1 0 0 1 0 0 1 0 0 1 0 0 1 0 0 1 0 0 1 0 0 1 0 0 1 0 0 1 0 0 1 0.7685725 -0.6397627 0 0.7685725 -0.6397627 0 0.7685725 -0.6397627 0 0.7685725 -0.6397627 0 0.7685725 -0.6397627 0 0.7685725 -0.6397627 0 -0.633419 -0.773809 0 -0.633419 -0.773809 0 -0.633419 -0.773809 0 -0.633419 -0.773809 0 -0.633419 -0.773809 0 -0.633419 -0.773809 0 0.7694014 -0.6387655 0 0.7694014 -0.6387655 0 0.7694014 -0.6387655 0 0.7694014 -0.6387655 0 0.7694014 -0.6387655 0 0.7694014 -0.6387655 0 -0.6324368 -0.7746119 0 -0.6324368 -0.7746119 0 -0.6324368 -0.7746119 0 -0.6324368 -0.7746119 0 -0.6324368 -0.7746119 0 -0.6324368 -0.7746119 0 -0.7627552 0.6466874 0 -0.7627552 0.6466874 0 -0.7627552 0.6466874 0 -0.7627552 0.6466874 0 -0.7627552 0.6466874 0 -0.7627552 0.6466874 0 -0.6324394 -0.7746098 0 -0.6324394 -0.7746098 0 -0.6324394 -0.7746098 0 -0.6324394 -0.7746098 0 -0.6324394 -0.7746098 0 -0.6324394 -0.7746098 0 0.6360062 0.771684 0 0.6360062 0.771684 0 0.6360062 0.771684 0 0.6360062 0.771684 0 0.6360062 0.771684 0 0.6360062 0.771684 0 -0.7716727 0.6360198 0 -0.7716727 0.6360198 0 -0.7716727 0.6360198 0 -0.7716727 0.6360198 0 -0.7716727 0.6360198 0 -0.7716727 0.6360198 0 0 0 -1 0 0 -1 0 0 -1 0 0 -1 0 0 -1 0 0 -1 0 0 -1 0 0 -1 0 0 -1 0 0 -1 0 0 -1 0 0 -1 0 0 -1 0 0 -1 0 0 -1 0 0 -1 0 0 -1 0 0 -1 0 0 -1 0 0 -1 0 0 -1 0 0 -1 0 0 -1 0 0 -1 0 0 1 0 0 1 0 0 1 0 0 1 0 0 1 0 0 1 0 0 1 0 0 1 0 0 1 0 0 1 0 0 1 0 0 1 0 0 1 0 0 1 0 0 1 0 0 1 0 0 1 0 0 1 0 0 1 0 0 1 0 0 1 0 0 1 0 0 1 0 0 1 0.7887517 -0.614712 0 0.7887517 -0.614712 0 0.7887517 -0.614712 0 0.7887517 -0.614712 0 0.7887517 -0.614712 0 0.7887517 -0.614712 0 0.613129 0.7899828 0 0.613129 0.7899828 0 0.613129 0.7899828 0 0.613129 0.7899828 0 0.613129 0.7899828 0 0.613129 0.7899828 0 0.7838641 -0.6209324 0 0.7838641 -0.6209324 0 0.7838641 -0.6209324 0 0.7838641 -0.6209324 0 0.7838641 -0.6209324 0 0.7838641 -0.6209324 0 -0.6229731 -0.7822433 0 -0.6229731 -0.7822433 0 -0.6229731 -0.7822433 0 -0.6229731 -0.7822433 0 -0.6229731 -0.7822433 0 -0.6229731 -0.7822433 0 -0.7802478 0.6254705 0 -0.7802478 0.6254705 0 -0.7802478 0.6254705 0 -0.7802478 0.6254705 0 -0.7802478 0.6254705 0 -0.7802478 0.6254705 0 0.6297915 0.7767642 0 0.6297915 0.7767642 0 0.6297915 0.7767642 0 0.6297915 0.7767642 0 0.6297915 0.7767642 0 0.6297915 0.7767642 0 -0.7789466 0.6270902 0 -0.7789466 0.6270902 0 -0.7789466 0.6270902 0 -0.7789466 0.6270902 0 -0.7789466 0.6270902 0 -0.7789466 0.6270902 0 0.5873579 0.8093273 0 0.5873579 0.8093273 0 0.5873579 0.8093273 0 0.5873579 0.8093273 0 0.5873579 0.8093273 0 0.5873579 0.8093273 0 0.6257507 0.7800231 0 0.6257507 0.7800231 0 0.6257507 0.7800231 0 0.6257507 0.7800231 0 0.6257507 0.7800231 0 0.6257507 0.7800231 0 -0.7887509 0.6147129 0 -0.7887509 0.6147129 0 -0.7887509 0.6147129 0 -0.7887509 0.6147129 0 -0.7887509 0.6147129 0 -0.7887509 0.6147129 0 0 0 -1 0 0 -1 0 0 -1 0 0 -1 0 0 -1 0 0 -1 0 0 -1 0 0 -1 0 0 -1 0 0 -1 0 0 -1 0 0 -1 0 0 -1 0 0 -1 0 0 -1 0 0 -1 0 0 -1 0 0 -1 0 0 -1 0 0 -1 0 0 -1 0 0 -1 0 0 -1 0 0 -1 0 0 1 0 0 1 0 0 1 0 0 1 0 0 1 0 0 1 0 0 1 0 0 1 0 0 1 0 0 1 0 0 1 0 0 1 0 0 1 0 0 1 0 0 1 0 0 1 0 0 1 0 0 1 0 0 1 0 0 1 0 0 1 0 0 1 0 0 1 0 0 1 -0.7586258 0.6515266 0 -0.7586258 0.6515266 0 -0.7586258 0.6515266 0 -0.7586258 0.6515266 0 -0.7586258 0.6515266 0 -0.7586258 0.6515266 0 0.6214265 0.7834724 0 0.6214265 0.7834724 0 0.6214265 0.7834724 0 0.6214265 0.7834724 0 0.6214265 0.7834724 0 0.6214265 0.7834724 0 0.772538 -0.6349685 0 0.772538 -0.6349685 0 0.772538 -0.6349685 0 0.772538 -0.6349685 0 0.772538 -0.6349685 0 0.772538 -0.6349685 0 0.6499877 0.7599448 0 0.6499877 0.7599448 0 0.6499877 0.7599448 0 0.6499877 0.7599448 0 0.6499877 0.7599448 0 0.6499877 0.7599448 0 0.7755042 -0.6313424 0 0.7755042 -0.6313424 0 0.7755042 -0.6313424 0 0.7755042 -0.6313424 0 0.7755042 -0.6313424 0 0.7755042 -0.6313424 0 -0.62388 -0.7815202 0 -0.62388 -0.7815202 0 -0.62388 -0.7815202 0 -0.62388 -0.7815202 0 -0.62388 -0.7815202 0 -0.62388 -0.7815202 0 0.7755022 -0.6313449 0 0.7755022 -0.6313449 0 0.7755022 -0.6313449 0 0.7755022 -0.6313449 0 0.7755022 -0.6313449 0 0.7755022 -0.6313449 0 -0.6348983 -0.7725957 0 -0.6348983 -0.7725957 0 -0.6348983 -0.7725957 0 -0.6348983 -0.7725957 0 -0.6348983 -0.7725957 0 -0.6348983 -0.7725957 0 0.6188271 0.7855272 0 0.6188271 0.7855272 0 0.6188271 0.7855272 0 0.6188271 0.7855272 0 0.6188271 0.7855272 0 0.6188271 0.7855272 0 -0.7760529 0.6306678 0 -0.7760529 0.6306678 0 -0.7760529 0.6306678 0 -0.7760529 0.6306678 0 -0.7760529 0.6306678 0 -0.7760529 0.6306678 0 0 0 -1 0 0 -1 0 0 -1 0 0 -1 0 0 -1 0 0 -1 0 0 -1 0 0 -1 0 0 -1 0 0 -1 0 0 -1 0 0 -1 0 0 -1 0 0 -1 0 0 -1 0 0 -1 0 0 -1 0 0 -1 0 0 -1 0 0 -1 0 0 -1 0 0 -1 0 0 -1 0 0 -1 0 0 -1 0 0 -1 0 0 -1 0 0 1 0 0 1 0 0 1 0 0 1 0 0 1 0 0 1 0 0 1 0 0 1 0 0 1 0 0 1 0 0 1 0 0 1 0 0 1 0 0 1 0 0 1 0 0 1 0 0 1 0 0 1 0 0 1 0 0 1 0 0 1 0 0 1 0 0 1 0 0 1 0 0 1 0 0 1 0 0 1 0.8757899 0.4826924 0 0.8757899 0.4826924 0 0.8757899 0.4826924 0 0.8757899 0.4826924 0 0.8757899 0.4826924 0 0.8757899 0.4826924 0 0.871639 0.4901485 0 0.871639 0.4901485 0 0.871639 0.4901485 0 0.871639 0.4901485 0 0.871639 0.4901485 0 0.871639 0.4901485 0 0.6404536 -0.7679969 0 0.6404536 -0.7679969 0 0.6404536 -0.7679969 0 0.6404536 -0.7679969 0 0.6404536 -0.7679969 0 0.6404536 -0.7679969 0 -0.878612 -0.4775363 0 -0.878612 -0.4775363 0 -0.878612 -0.4775363 0 -0.878612 -0.4775363 0 -0.878612 -0.4775363 0 -0.878612 -0.4775363 0 -0.8751495 -0.4838526 0 -0.8751495 -0.4838526 0 -0.8751495 -0.4838526 0 -0.8751495 -0.4838526 0 -0.8751495 -0.4838526 0 -0.8751495 -0.4838526 0 -0.8774751 -0.4796221 0 -0.8774751 -0.4796221 0 -0.8774751 -0.4796221 0 -0.8774751 -0.4796221 0 -0.8774751 -0.4796221 0 -0.8774751 -0.4796221 0 -0.8780665 -0.4785387 0 -0.8780665 -0.4785387 0 -0.8780665 -0.4785387 0 -0.8780665 -0.4785387 0 -0.8780665 -0.4785387 0 -0.8780665 -0.4785387 0 -0.8677991 -0.4969152 0 -0.8677991 -0.4969152 0 -0.8677991 -0.4969152 0 -0.8677991 -0.4969152 0 -0.8677991 -0.4969152 0 -0.8677991 -0.4969152 0 -0.4882537 0.8727017 0 -0.4882537 0.8727017 0 -0.4882537 0.8727017 0 -0.4882537 0.8727017 0 -0.4882537 0.8727017 0 -0.4882537 0.8727017 0 0.8861886 0.4633246 0 0.8861886 0.4633246 0 0.8861886 0.4633246 0 0.8861886 0.4633246 0 0.8861886 0.4633246 0 0.8861886 0.4633246 0 -0.446493 0.8947871 0 -0.446493 0.8947871 0 -0.446493 0.8947871 0 -0.446493 0.8947871 0 -0.446493 0.8947871 0 -0.446493 0.8947871 0 0 0 -1 0 0 -1 0 0 -1 0 0 -1 0 0 -1 0 0 -1 0 0 -1 0 0 -1 0 0 -1 0 0 -1 0 0 -1 0 0 -1 0 0 -1 0 0 -1 0 0 -1 0 0 -1 0 0 -1 0 0 -1 0 0 -1 0 0 -1 0 0 -1 0 0 -1 0 0 -1 0 0 -1 0 0 -1 0 0 -1 0 0 -1 0 0 -1 0 0 -1 0 0 -1 0 0 -1 0 0 -1 0 0 -1 0 0 1 0 0 1 0 0 1 0 0 1 0 0 1 0 0 1 0 0 1 0 0 1 0 0 1 0 0 1 0 0 1 0 0 1 0 0 1 0 0 1 0 0 1 0 0 1 0 0 1 0 0 1 0 0 1 0 0 1 0 0 1 0 0 1 0 0 1 0 0 1 0 0 1 0 0 1 0 0 1 0 0 1 0 0 1 0 0 1 0 0 1 0 0 1 0 0 1 0.7887496 -0.6147146 0 0.7887496 -0.6147146 0 0.7887496 -0.6147146 0 0.7887496 -0.6147146 0 0.7887496 -0.6147146 0 0.7887496 -0.6147146 0 0.6238928 0.7815099 0 0.6238928 0.7815099 0 0.6238928 0.7815099 0 0.6238928 0.7815099 0 0.6238928 0.7815099 0 0.6238928 0.7815099 0 0.7789456 -0.6270915 0 0.7789456 -0.6270915 0 0.7789456 -0.6270915 0 0.7789456 -0.6270915 0 0.7789456 -0.6270915 0 0.7789456 -0.6270915 0 0.6210791 0.7837479 0 0.6210791 0.7837479 0 0.6210791 0.7837479 0 0.6210791 0.7837479 0 0.6210791 0.7837479 0 0.6210791 0.7837479 0 0.7802478 -0.6254705 0 0.7802478 -0.6254705 0 0.7802478 -0.6254705 0 0.7802478 -0.6254705 0 0.7802478 -0.6254705 0 0.7802478 -0.6254705 0 -0.6202802 -0.7843803 0 -0.6202802 -0.7843803 0 -0.6202802 -0.7843803 0 -0.6202802 -0.7843803 0 -0.6202802 -0.7843803 0 -0.6202802 -0.7843803 0 -0.7857049 0.6186015 0 -0.7857049 0.6186015 0 -0.7857049 0.6186015 0 -0.7857049 0.6186015 0 -0.7857049 0.6186015 0 -0.7857049 0.6186015 0 -0.7994117 0.6007836 0 -0.7994117 0.6007836 0 -0.7994117 0.6007836 0 -0.7994117 0.6007836 0 -0.7994117 0.6007836 0 -0.7994117 0.6007836 0 -0.7754844 0.6313667 0 -0.7754844 0.6313667 0 -0.7754844 0.6313667 0 -0.7754844 0.6313667 0 -0.7754844 0.6313667 0 -0.7754844 0.6313667 0 -0.7782682 0.627932 0 -0.7782682 0.627932 0 -0.7782682 0.627932 0 -0.7782682 0.627932 0 -0.7782682 0.627932 0 -0.7782682 0.627932 0 0.5991938 0.8006041 0 0.5991938 0.8006041 0 0.5991938 0.8006041 0 0.5991938 0.8006041 0 0.5991938 0.8006041 0 0.5991938 0.8006041 0 0.623894 0.781509 0 0.623894 0.781509 0 0.623894 0.781509 0 0.623894 0.781509 0 0.623894 0.781509 0 0.623894 0.781509 0 -0.7887489 0.6147155 0 -0.7887489 0.6147155 0 -0.7887489 0.6147155 0 -0.7887489 0.6147155 0 -0.7887489 0.6147155 0 -0.7887489 0.6147155 0 0 0 -1 0 0 -1 0 0 -1 0 0 -1 0 0 -1 0 0 -1 0 0 -1 0 0 -1 0 0 -1 0 0 -1 0 0 -1 0 0 -1 0 0 -1 0 0 -1 0 0 -1 0 0 -1 0 0 -1 0 0 -1 0 0 -1 0 0 -1 0 0 -1 0 0 -1 0 0 -1 0 0 -1 0 0 -1 0 0 -1 0 0 -1 0 0 -1 0 0 -1 0 0 -1 0 0 1 0 0 1 0 0 1 0 0 1 0 0 1 0 0 1 0 0 1 0 0 1 0 0 1 0 0 1 0 0 1 0 0 1 0 0 1 0 0 1 0 0 1 0 0 1 0 0 1 0 0 1 0 0 1 0 0 1 0 0 1 0 0 1 0 0 1 0 0 1 0 0 1 0 0 1 0 0 1 0 0 1 0 0 1 0 0 1 0.6220344 0.7829899 0 0.6220344 0.7829899 0 0.6220344 0.7829899 0 0.6220344 0.7829899 0 0.6220344 0.7829899 0 0.6220344 0.7829899 0 0.6257487 0.7800247 0 0.6257487 0.7800247 0 0.6257487 0.7800247 0 0.6257487 0.7800247 0 0.6257487 0.7800247 0 0.6257487 0.7800247 0 0.7994215 -0.6007705 0 0.7994215 -0.6007705 0 0.7994215 -0.6007705 0 0.7994215 -0.6007705 0 0.7994215 -0.6007705 0 0.7994215 -0.6007705 0 0.7790048 -0.627018 0 0.7790048 -0.627018 0 0.7790048 -0.627018 0 0.7790048 -0.627018 0 0.7790048 -0.627018 0 0.7790048 -0.627018 0 -0.6238864 -0.781515 0 -0.6238864 -0.781515 0 -0.6238864 -0.781515 0 -0.6238864 -0.781515 0 -0.6238864 -0.781515 0 -0.6238864 -0.781515 0 -0.6257507 -0.7800231 0 -0.6257507 -0.7800231 0 -0.6257507 -0.7800231 0 -0.6257507 -0.7800231 0 -0.6257507 -0.7800231 0 -0.6257507 -0.7800231 0 -0.6205895 -0.7841356 0 -0.6205895 -0.7841356 0 -0.6205895 -0.7841356 0 -0.6205895 -0.7841356 0 -0.6205895 -0.7841356 0 -0.6205895 -0.7841356 0 -0.623894 -0.781509 0 -0.623894 -0.781509 0 -0.623894 -0.781509 0 -0.623894 -0.781509 0 -0.623894 -0.781509 0 -0.623894 -0.781509 0 -0.627539 -0.7785851 0 -0.627539 -0.7785851 0 -0.627539 -0.7785851 0 -0.627539 -0.7785851 0 -0.627539 -0.7785851 0 -0.627539 -0.7785851 0 -0.6238964 -0.781507 0 -0.6238964 -0.781507 0 -0.6238964 -0.781507 0 -0.6238964 -0.781507 0 -0.6238964 -0.781507 0 -0.6238964 -0.781507 0 0.6238935 0.7815093 0 0.6238935 0.7815093 0 0.6238935 0.7815093 0 0.6238935 0.7815093 0 0.6238935 0.7815093 0 0.6238935 0.7815093 0 -0.6404536 0.7679969 0 -0.6404536 0.7679969 0 -0.6404536 0.7679969 0 -0.6404536 0.7679969 0 -0.6404536 0.7679969 0 -0.6404536 0.7679969 0 0 0 -1 0 0 -1 0 0 -1 0 0 -1 0 0 -1 0 0 -1 0 0 -1 0 0 -1 0 0 -1 0 0 -1 0 0 -1 0 0 -1 0 0 -1 0 0 -1 0 0 -1 0 0 -1 0 0 -1 0 0 -1 0 0 -1 0 0 -1 0 0 -1 0 0 -1 0 0 -1 0 0 -1 0 0 -1 0 0 -1 0 0 -1 0 0 -1 0 0 -1 0 0 -1 0 0 -1 0 0 -1 0 0 -1 0 0 -1 0 0 -1 0 0 -1 0 0 -1 0 0 -1 0 0 -1 0 0 -1 0 0 -1 0 0 -1 0 0 -1 0 0 -1 0 0 -1 0 0 -1 0 0 -1 0 0 -1 0 0 -1 0 0 -1 0 0 -1 0 0 -1 0 0 -1 0 0 -1 0 0 1 0 0 1 0 0 1 0 0 1 0 0 1 0 0 1 0 0 1 0 0 1 0 0 1 0 0 1 0 0 1 0 0 1 0 0 1 0 0 1 0 0 1 0 0 1 0 0 1 0 0 1 0 0 1 0 0 1 0 0 1 0 0 1 0 0 1 0 0 1 0 0 1 0 0 1 0 0 1 0 0 1 0 0 1 0 0 1 0 0 1 0 0 1 0 0 1 0 0 1 0 0 1 0 0 1 0 0 1 0 0 1 0 0 1 0 0 1 0 0 1 0 0 1 0 0 1 0 0 1 0 0 1 0 0 1 0 0 1 0 0 1 0 0 1 0 0 1 0 0 1 0 0 1 0 0 1 0 0 1 0.9938616 -0.1106302 0 0.9938616 -0.1106302 0 0.9938616 -0.1106302 0 0.9938616 -0.1106302 0 0.9938616 -0.1106302 0 0.9938616 -0.1106302 0 0.6635805 0.7481048 0 0.6635805 0.7481048 0 0.6635805 0.7481048 0 0.6635805 0.7481048 0 0.6635805 0.7481048 0 0.6635805 0.7481048 0 -0.8058401 0.5921332 0 -0.8058401 0.5921332 0 -0.8058401 0.5921332 0 -0.8058401 0.5921332 0 -0.8058401 0.5921332 0 -0.8058401 0.5921332 0 0.6238894 0.7815127 0 0.6238894 0.7815127 0 0.6238894 0.7815127 0 0.6238894 0.7815127 0 0.6238894 0.7815127 0 0.6238894 0.7815127 0 0.6259516 0.7798619 0 0.6259516 0.7798619 0 0.6259516 0.7798619 0 0.6259516 0.7798619 0 0.6259516 0.7798619 0 0.6259516 0.7798619 0 0.7925616 -0.6097918 0 0.7925616 -0.6097918 0 0.7925616 -0.6097918 0 0.7925616 -0.6097918 0 0.7925616 -0.6097918 0 0.7925616 -0.6097918 0 0.6499952 0.7599383 0 0.6499952 0.7599383 0 0.6499952 0.7599383 0 0.6499952 0.7599383 0 0.6499952 0.7599383 0 0.6499952 0.7599383 0 0.7818156 -0.6235097 0 0.7818156 -0.6235097 0 0.7818156 -0.6235097 0 0.7818156 -0.6235097 0 0.7818156 -0.6235097 0 0.7818156 -0.6235097 0 -0.6238868 -0.7815147 0 -0.6238868 -0.7815147 0 -0.6238868 -0.7815147 0 -0.6238868 -0.7815147 0 -0.6238868 -0.7815147 0 -0.6238868 -0.7815147 0 0.7703331 -0.6376417 0 0.7703331 -0.6376417 0 0.7703331 -0.6376417 0 0.7703331 -0.6376417 0 0.7703331 -0.6376417 0 0.7703331 -0.6376417 0 -0.6220344 -0.7829899 0 -0.6220344 -0.7829899 0 -0.6220344 -0.7829899 0 -0.6220344 -0.7829899 0 -0.6220344 -0.7829899 0 -0.6220344 -0.7829899 0 -0.7920303 0.6104817 0 -0.7920303 0.6104817 0 -0.7920303 0.6104817 0 -0.7920303 0.6104817 0 -0.7920303 0.6104817 0 -0.7920303 0.6104817 0 -0.6259568 -0.7798578 0 -0.6259568 -0.7798578 0 -0.6259568 -0.7798578 0 -0.6259568 -0.7798578 0 -0.6259568 -0.7798578 0 -0.6259568 -0.7798578 0 -0.9904506 -0.1378681 0 -0.9904506 -0.1378681 0 -0.9904506 -0.1378681 0 -0.9904506 -0.1378681 0 -0.9904506 -0.1378681 0 -0.9904506 -0.1378681 0 -0.7842762 0.6204119 0 -0.7842762 0.6204119 0 -0.7842762 0.6204119 0 -0.7842762 0.6204119 0 -0.7842762 0.6204119 0 -0.7842762 0.6204119 0 -0.06640644 0.9977927 0 -0.06640644 0.9977927 0 -0.06640644 0.9977927 0 -0.06640644 0.9977927 0 -0.06640644 0.9977927 0 -0.06640644 0.9977927 0 0.6577191 0.7532633 0 0.6577191 0.7532633 0 0.6577191 0.7532633 0 0.6577191 0.7532633 0 0.6577191 0.7532633 0 0.6577191 0.7532633 0 -0.8058391 0.5921345 0 -0.8058391 0.5921345 0 -0.8058391 0.5921345 0 -0.8058391 0.5921345 0 -0.8058391 0.5921345 0 -0.8058391 0.5921345 0 0.6393876 0.7688846 0 0.6393876 0.7688846 0 0.6393876 0.7688846 0 0.6393876 0.7688846 0 0.6393876 0.7688846 0 0.6393876 0.7688846 0 -0.07112652 0.9974673 0 -0.07112652 0.9974673 0 -0.07112652 0.9974673 0 -0.07112652 0.9974673 0 -0.07112652 0.9974673 0 -0.07112652 0.9974673 0</float_array>
          <technique_common>
            <accessor count="1848" source="#normals-array-array" stride="3">
              <param type="float" name="X" />
              <param type="float" name="Y" />
              <param type="float" name="Z" />
            </accessor>
          </technique_common>
        </source>
        <vertices id="verts-array-vertices">
          <input semantic="POSITION" source="#verts-array" />
        </vertices>
        <triangles count="616" material="material0">
          <input offset="0" semantic="VERTEX" source="#verts-array-vertices" />
          <input offset="1" semantic="NORMAL" source="#normals-array" />
          <p>0 0 1 1 2 2 3 3 4 4 5 5 6 6 7 7 8 8 9 9 10 10 11 11 12 12 13 13 14 14 15 15 16 16 17 17 18 18 19 19 20 20 21 21 22 22 23 23 24 24 25 25 26 26 27 27 28 28 29 29 30 30 31 31 32 32 33 33 34 34 35 35 36 36 37 37 38 38 39 39 40 40 41 41 42 42 43 43 44 44 45 45 46 46 47 47 48 48 49 49 50 50 51 51 52 52 53 53 54 54 55 55 56 56 57 57 58 58 59 59 60 60 61 61 62 62 63 63 64 64 65 65 66 66 67 67 68 68 69 69 70 70 71 71 72 72 73 73 74 74 75 75 76 76 77 77 78 78 79 79 80 80 81 81 82 82 83 83 84 84 85 85 86 86 87 87 88 88 89 89 90 90 91 91 92 92 93 93 94 94 95 95 96 96 97 97 98 98 99 99 100 100 101 101 102 102 103 103 104 104 105 105 106 106 107 107 108 108 109 109 110 110 111 111 112 112 113 113 114 114 115 115 116 116 117 117 118 118 119 119 120 120 121 121 122 122 123 123 124 124 125 125 126 126 127 127 128 128 129 129 130 130 131 131 132 132 133 133 134 134 135 135 136 136 137 137 138 138 139 139 140 140 141 141 142 142 143 143 144 144 145 145 146 146 147 147 148 148 149 149 150 150 151 151 152 152 153 153 154 154 155 155 156 156 157 157 158 158 159 159 160 160 161 161 162 162 163 163 164 164 165 165 166 166 167 167 168 168 169 169 170 170 171 171 172 172 173 173 174 174 175 175 176 176 177 177 178 178 179 179 180 180 181 181 182 182 183 183 184 184 185 185 186 186 187 187 188 188 189 189 190 190 191 191 192 192 193 193 194 194 195 195 196 196 197 197 198 198 199 199 200 200 201 201 202 202 203 203 204 204 205 205 206 206 207 207 208 208 209 209 210 210 211 211 212 212 213 213 214 214 215 215 216 216 217 217 218 218 219 219 220 220 221 221 222 222 223 223 224 224 225 225 226 226 227 227 228 228 229 229 230 230 231 231 232 232 233 233 234 234 235 235 236 236 237 237 238 238 239 239 240 240 241 241 242 242 243 243 244 244 245 245 246 246 247 247 248 248 249 249 250 250 251 251 252 252 253 253 254 254 255 255 256 256 257 257 258 258 259 259 260 260 261 261 262 262 263 263 264 264 265 265 266 266 267 267 268 268 269 269 270 270 271 271 272 272 273 273 274 274 275 275 276 276 277 277 278 278 279 279 280 280 281 281 282 282 283 283 284 284 285 285 286 286 287 287 288 288 289 289 290 290 291 291 292 292 293 293 294 294 295 295 296 296 297 297 298 298 299 299 300 300 301 301 302 302 303 303 304 304 305 305 306 306 307 307 308 308 309 309 310 310 311 311 312 312 313 313 314 314 315 315 316 316 317 317 318 318 319 319 320 320 321 321 322 322 323 323 324 324 325 325 326 326 327 327 328 328 329 329 330 330 331 331 332 332 333 333 334 334 335 335 336 336 337 337 338 338 339 339 340 340 341 341 342 342 343 343 344 344 345 345 346 346 347 347 348 348 349 349 350 350 351 351 352 352 353 353 354 354 355 355 356 356 357 357 358 358 359 359 360 360 361 361 362 362 363 363 364 364 365 365 366 366 367 367 368 368 369 369 370 370 371 371 372 372 373 373 374 374 375 375 376 376 377 377 378 378 379 379 380 380 381 381 382 382 383 383 384 384 385 385 386 386 387 387 388 388 389 389 390 390 391 391 392 392 393 393 394 394 395 395 396 396 397 397 398 398 399 399 400 400 401 401 402 402 403 403 404 404 405 405 406 406 407 407 408 408 409 409 410 410 411 411 412 412 413 413 414 414 415 415 416 416 417 417 418 418 419 419 420 420 421 421 422 422 423 423 424 424 425 425 426 426 427 427 428 428 429 429 430 430 431 431 432 432 433 433 434 434 435 435 436 436 437 437 438 438 439 439 440 440 441 441 442 442 443 443 444 444 445 445 446 446 447 447 448 448 449 449 450 450 451 451 452 452 453 453 454 454 455 455 456 456 457 457 458 458 459 459 460 460 461 461 462 462 463 463 464 464 465 465 466 466 467 467 468 468 469 469 470 470 471 471 472 472 473 473 474 474 475 475 476 476 477 477 478 478 479 479 480 480 481 481 482 482 483 483 484 484 485 485 486 486 487 487 488 488 489 489 490 490 491 491 492 492 493 493 494 494 495 495 496 496 497 497 498 498 499 499 500 500 501 501 502 502 503 503 504 504 505 505 506 506 507 507 508 508 509 509 510 510 511 511 512 512 513 513 514 514 515 515 516 516 517 517 518 518 519 519 520 520 521 521 522 522 523 523 524 524 525 525 526 526 527 527 528 528 529 529 530 530 531 531 532 532 533 533 534 534 535 535 536 536 537 537 538 538 539 539 540 540 541 541 542 542 543 543 544 544 545 545 546 546 547 547 548 548 549 549 550 550 551 551 552 552 553 553 554 554 555 555 556 556 557 557 558 558 559 559 560 560 561 561 562 562 563 563 564 564 565 565 566 566 567 567 568 568 569 569 570 570 571 571 572 572 573 573 574 574 575 575 576 576 577 577 578 578 579 579 580 580 581 581 582 582 583 583 584 584 585 585 586 586 587 587 588 588 589 589 590 590 591 591 592 592 593 593 594 594 595 595 596 596 597 597 598 598 599 599 600 600 601 601 602 602 603 603 604 604 605 605 606 606 607 607 608 608 609 609 610 610 611 611 612 612 613 613 614 614 615 615 616 616 617 617 618 618 619 619 620 620 621 621 622 622 623 623 624 624 625 625 626 626 627 627 628 628 629 629 630 630 631 631 632 632 633 633 634 634 635 635 636 636 637 637 638 638 639 639 640 640 641 641 642 642 643 643 644 644 645 645 646 646 647 647 648 648 649 649 650 650 651 651 652 652 653 653 654 654 655 655 656 656 657 657 658 658 659 659 660 660 661 661 662 662 663 663 664 664 665 665 666 666 667 667 668 668 669 669 670 670 671 671 672 672 673 673 674 674 675 675 676 676 677 677 678 678 679 679 680 680 681 681 682 682 683 683 684 684 685 685 686 686 687 687 688 688 689 689 690 690 691 691 692 692 693 693 694 694 695 695 696 696 697 697 698 698 699 699 700 700 701 701 702 702 703 703 704 704 705 705 706 706 707 707 708 708 709 709 710 710 711 711 712 712 713 713 714 714 715 715 716 716 717 717 718 718 719 719 720 720 721 721 722 722 723 723 724 724 725 725 726 726 727 727 728 728 729 729 730 730 731 731 732 732 733 733 734 734 735 735 736 736 737 737 738 738 739 739 740 740 741 741 742 742 743 743 744 744 745 745 746 746 747 747 748 748 749 749 750 750 751 751 752 752 753 753 754 754 755 755 756 756 757 757 758 758 759 759 760 760 761 761 762 762 763 763 764 764 765 765 766 766 767 767 768 768 769 769 770 770 771 771 772 772 773 773 774 774 775 775 776 776 777 777 778 778 779 779 780 780 781 781 782 782 783 783 784 784 785 785 786 786 787 787 788 788 789 789 790 790 791 791 792 792 793 793 794 794 795 795 796 796 797 797 798 798 799 799 800 800 801 801 802 802 803 803 804 804 805 805 806 806 807 807 808 808 809 809 810 810 811 811 812 812 813 813 814 814 815 815 816 816 817 817 818 818 819 819 820 820 821 821 822 822 823 823 824 824 825 825 826 826 827 827 828 828 829 829 830 830 831 831 832 832 833 833 834 834 835 835 836 836 837 837 838 838 839 839 840 840 841 841 842 842 843 843 844 844 845 845 846 846 847 847 848 848 849 849 850 850 851 851 852 852 853 853 854 854 855 855 856 856 857 857 858 858 859 859 860 860 861 861 862 862 863 863 864 864 865 865 866 866 867 867 868 868 869 869 870 870 871 871 872 872 873 873 874 874 875 875 876 876 877 877 878 878 879 879 880 880 881 881 882 882 883 883 884 884 885 885 886 886 887 887 888 888 889 889 890 890 891 891 892 892 893 893 894 894 895 895 896 896 897 897 898 898 899 899 900 900 901 901 902 902 903 903 904 904 905 905 906 906 907 907 908 908 909 909 910 910 911 911 912 912 913 913 914 914 915 915 916 916 917 917 918 918 919 919 920 920 921 921 922 922 923 923 924 924 925 925 926 926 927 927 928 928 929 929 930 930 931 931 932 932 933 933 934 934 935 935 936 936 937 937 938 938 939 939 940 940 941 941 942 942 943 943 944 944 945 945 946 946 947 947 948 948 949 949 950 950 951 951 952 952 953 953 954 954 955 955 956 956 957 957 958 958 959 959 960 960 961 961 962 962 963 963 964 964 965 965 966 966 967 967 968 968 969 969 970 970 971 971 972 972 973 973 974 974 975 975 976 976 977 977 978 978 979 979 980 980 981 981 982 982 983 983 984 984 985 985 986 986 987 987 988 988 989 989 990 990 991 991 992 992 993 993 994 994 995 995 996 996 997 997 998 998 999 999 1000 1000 1001 1001 1002 1002 1003 1003 1004 1004 1005 1005 1006 1006 1007 1007 1008 1008 1009 1009 1010 1010 1011 1011 1012 1012 1013 1013 1014 1014 1015 1015 1016 1016 1017 1017 1018 1018 1019 1019 1020 1020 1021 1021 1022 1022 1023 1023 1024 1024 1025 1025 1026 1026 1027 1027 1028 1028 1029 1029 1030 1030 1031 1031 1032 1032 1033 1033 1034 1034 1035 1035 1036 1036 1037 1037 1038 1038 1039 1039 1040 1040 1041 1041 1042 1042 1043 1043 1044 1044 1045 1045 1046 1046 1047 1047 1048 1048 1049 1049 1050 1050 1051 1051 1052 1052 1053 1053 1054 1054 1055 1055 1056 1056 1057 1057 1058 1058 1059 1059 1060 1060 1061 1061 1062 1062 1063 1063 1064 1064 1065 1065 1066 1066 1067 1067 1068 1068 1069 1069 1070 1070 1071 1071 1072 1072 1073 1073 1074 1074 1075 1075 1076 1076 1077 1077 1078 1078 1079 1079 1080 1080 1081 1081 1082 1082 1083 1083 1084 1084 1085 1085 1086 1086 1087 1087 1088 1088 1089 1089 1090 1090 1091 1091 1092 1092 1093 1093 1094 1094 1095 1095 1096 1096 1097 1097 1098 1098 1099 1099 1100 1100 1101 1101 1102 1102 1103 1103 1104 1104 1105 1105 1106 1106 1107 1107 1108 1108 1109 1109 1110 1110 1111 1111 1112 1112 1113 1113 1114 1114 1115 1115 1116 1116 1117 1117 1118 1118 1119 1119 1120 1120 1121 1121 1122 1122 1123 1123 1124 1124 1125 1125 1126 1126 1127 1127 1128 1128 1129 1129 1130 1130 1131 1131 1132 1132 1133 1133 1134 1134 1135 1135 1136 1136 1137 1137 1138 1138 1139 1139 1140 1140 1141 1141 1142 1142 1143 1143 1144 1144 1145 1145 1146 1146 1147 1147 1148 1148 1149 1149 1150 1150 1151 1151 1152 1152 1153 1153 1154 1154 1155 1155 1156 1156 1157 1157 1158 1158 1159 1159 1160 1160 1161 1161 1162 1162 1163 1163 1164 1164 1165 1165 1166 1166 1167 1167 1168 1168 1169 1169 1170 1170 1171 1171 1172 1172 1173 1173 1174 1174 1175 1175 1176 1176 1177 1177 1178 1178 1179 1179 1180 1180 1181 1181 1182 1182 1183 1183 1184 1184 1185 1185 1186 1186 1187 1187 1188 1188 1189 1189 1190 1190 1191 1191 1192 1192 1193 1193 1194 1194 1195 1195 1196 1196 1197 1197 1198 1198 1199 1199 1200 1200 1201 1201 1202 1202 1203 1203 1204 1204 1205 1205 1206 1206 1207 1207 1208 1208 1209 1209 1210 1210 1211 1211 1212 1212 1213 1213 1214 1214 1215 1215 1216 1216 1217 1217 1218 1218 1219 1219 1220 1220 1221 1221 1222 1222 1223 1223 1224 1224 1225 1225 1226 1226 1227 1227 1228 1228 1229 1229 1230 1230 1231 1231 1232 1232 1233 1233 1234 1234 1235 1235 1236 1236 1237 1237 1238 1238 1239 1239 1240 1240 1241 1241 1242 1242 1243 1243 1244 1244 1245 1245 1246 1246 1247 1247 1248 1248 1249 1249 1250 1250 1251 1251 1252 1252 1253 1253 1254 1254 1255 1255 1256 1256 1257 1257 1258 1258 1259 1259 1260 1260 1261 1261 1262 1262 1263 1263 1264 1264 1265 1265 1266 1266 1267 1267 1268 1268 1269 1269 1270 1270 1271 1271 1272 1272 1273 1273 1274 1274 1275 1275 1276 1276 1277 1277 1278 1278 1279 1279 1280 1280 1281 1281 1282 1282 1283 1283 1284 1284 1285 1285 1286 1286 1287 1287 1288 1288 1289 1289 1290 1290 1291 1291 1292 1292 1293 1293 1294 1294 1295 1295 1296 1296 1297 1297 1298 1298 1299 1299 1300 1300 1301 1301 1302 1302 1303 1303 1304 1304 1305 1305 1306 1306 1307 1307 1308 1308 1309 1309 1310 1310 1311 1311 1312 1312 1313 1313 1314 1314 1315 1315 1316 1316 1317 1317 1318 1318 1319 1319 1320 1320 1321 1321 1322 1322 1323 1323 1324 1324 1325 1325 1326 1326 1327 1327 1328 1328 1329 1329 1330 1330 1331 1331 1332 1332 1333 1333 1334 1334 1335 1335 1336 1336 1337 1337 1338 1338 1339 1339 1340 1340 1341 1341 1342 1342 1343 1343 1344 1344 1345 1345 1346 1346 1347 1347 1348 1348 1349 1349 1350 1350 1351 1351 1352 1352 1353 1353 1354 1354 1355 1355 1356 1356 1357 1357 1358 1358 1359 1359 1360 1360 1361 1361 1362 1362 1363 1363 1364 1364 1365 1365 1366 1366 1367 1367 1368 1368 1369 1369 1370 1370 1371 1371 1372 1372 1373 1373 1374 1374 1375 1375 1376 1376 1377 1377 1378 1378 1379 1379 1380 1380 1381 1381 1382 1382 1383 1383 1384 1384 1385 1385 1386 1386 1387 1387 1388 1388 1389 1389 1390 1390 1391 1391 1392 1392 1393 1393 1394 1394 1395 1395 1396 1396 1397 1397 1398 1398 1399 1399 1400 1400 1401 1401 1402 1402 1403 1403 1404 1404 1405 1405 1406 1406 1407 1407 1408 1408 1409 1409 1410 1410 1411 1411 1412 1412 1413 1413 1414 1414 1415 1415 1416 1416 1417 1417 1418 1418 1419 1419 1420 1420 1421 1421 1422 1422 1423 1423 1424 1424 1425 1425 1426 1426 1427 1427 1428 1428 1429 1429 1430 1430 1431 1431 1432 1432 1433 1433 1434 1434 1435 1435 1436 1436 1437 1437 1438 1438 1439 1439 1440 1440 1441 1441 1442 1442 1443 1443 1444 1444 1445 1445 1446 1446 1447 1447 1448 1448 1449 1449 1450 1450 1451 1451 1452 1452 1453 1453 1454 1454 1455 1455 1456 1456 1457 1457 1458 1458 1459 1459 1460 1460 1461 1461 1462 1462 1463 1463 1464 1464 1465 1465 1466 1466 1467 1467 1468 1468 1469 1469 1470 1470 1471 1471 1472 1472 1473 1473 1474 1474 1475 1475 1476 1476 1477 1477 1478 1478 1479 1479 1480 1480 1481 1481 1482 1482 1483 1483 1484 1484 1485 1485 1486 1486 1487 1487 1488 1488 1489 1489 1490 1490 1491 1491 1492 1492 1493 1493 1494 1494 1495 1495 1496 1496 1497 1497 1498 1498 1499 1499 1500 1500 1501 1501 1502 1502 1503 1503 1504 1504 1505 1505 1506 1506 1507 1507 1508 1508 1509 1509 1510 1510 1511 1511 1512 1512 1513 1513 1514 1514 1515 1515 1516 1516 1517 1517 1518 1518 1519 1519 1520 1520 1521 1521 1522 1522 1523 1523 1524 1524 1525 1525 1526 1526 1527 1527 1528 1528 1529 1529 1530 1530 1531 1531 1532 1532 1533 1533 1534 1534 1535 1535 1536 1536 1537 1537 1538 1538 1539 1539 1540 1540 1541 1541 1542 1542 1543 1543 1544 1544 1545 1545 1546 1546 1547 1547 1548 1548 1549 1549 1550 1550 1551 1551 1552 1552 1553 1553 1554 1554 1555 1555 1556 1556 1557 1557 1558 1558 1559 1559 1560 1560 1561 1561 1562 1562 1563 1563 1564 1564 1565 1565 1566 1566 1567 1567 1568 1568 1569 1569 1570 1570 1571 1571 1572 1572 1573 1573 1574 1574 1575 1575 1576 1576 1577 1577 1578 1578 1579 1579 1580 1580 1581 1581 1582 1582 1583 1583 1584 1584 1585 1585 1586 1586 1587 1587 1588 1588 1589 1589 1590 1590 1591 1591 1592 1592 1593 1593 1594 1594 1595 1595 1596 1596 1597 1597 1598 1598 1599 1599 1600 1600 1601 1601 1602 1602 1603 1603 1604 1604 1605 1605 1606 1606 1607 1607 1608 1608 1609 1609 1610 1610 1611 1611 1612 1612 1613 1613 1614 1614 1615 1615 1616 1616 1617 1617 1618 1618 1619 1619 1620 1620 1621 1621 1622 1622 1623 1623 1624 1624 1625 1625 1626 1626 1627 1627 1628 1628 1629 1629 1630 1630 1631 1631 1632 1632 1633 1633 1634 1634 1635 1635 1636 1636 1637 1637 1638 1638 1639 1639 1640 1640 1641 1641 1642 1642 1643 1643 1644 1644 1645 1645 1646 1646 1647 1647 1648 1648 1649 1649 1650 1650 1651 1651 1652 1652 1653 1653 1654 1654 1655 1655 1656 1656 1657 1657 1658 1658 1659 1659 1660 1660 1661 1661 1662 1662 1663 1663 1664 1664 1665 1665 1666 1666 1667 1667 1668 1668 1669 1669 1670 1670 1671 1671 1672 1672 1673 1673 1674 1674 1675 1675 1676 1676 1677 1677 1678 1678 1679 1679 1680 1680 1681 1681 1682 1682 1683 1683 1684 1684 1685 1685 1686 1686 1687 1687 1688 1688 1689 1689 1690 1690 1691 1691 1692 1692 1693 1693 1694 1694 1695 1695 1696 1696 1697 1697 1698 1698 1699 1699 1700 1700 1701 1701 1702 1702 1703 1703 1704 1704 1705 1705 1706 1706 1707 1707 1708 1708 1709 1709 1710 1710 1711 1711 1712 1712 1713 1713 1714 1714 1715 1715 1716 1716 1717 1717 1718 1718 1719 1719 1720 1720 1721 1721 1722 1722 1723 1723 1724 1724 1725 1725 1726 1726 1727 1727 1728 1728 1729 1729 1730 1730 1731 1731 1732 1732 1733 1733 1734 1734 1735 1735 1736 1736 1737 1737 1738 1738 1739 1739 1740 1740 1741 1741 1742 1742 1743 1743 1744 1744 1745 1745 1746 1746 1747 1747 1748 1748 1749 1749 1750 1750 1751 1751 1752 1752 1753 1753 1754 1754 1755 1755 1756 1756 1757 1757 1758 1758 1759 1759 1760 1760 1761 1761 1762 1762 1763 1763 1764 1764 1765 1765 1766 1766 1767 1767 1768 1768 1769 1769 1770 1770 1771 1771 1772 1772 1773 1773 1774 1774 1775 1775 1776 1776 1777 1777 1778 1778 1779 1779 1780 1780 1781 1781 1782 1782 1783 1783 1784 1784 1785 1785 1786 1786 1787 1787 1788 1788 1789 1789 1790 1790 1791 1791 1792 1792 1793 1793 1794 1794 1795 1795 1796 1796 1797 1797 1798 1798 1799 1799 1800 1800 1801 1801 1802 1802 1803 1803 1804 1804 1805 1805 1806 1806 1807 1807 1808 1808 1809 1809 1810 1810 1811 1811 1812 1812 1813 1813 1814 1814 1815 1815 1816 1816 1817 1817 1818 1818 1819 1819 1820 1820 1821 1821 1822 1822 1823 1823 1824 1824 1825 1825 1826 1826 1827 1827 1828 1828 1829 1829 1830 1830 1831 1831 1832 1832 1833 1833 1834 1834 1835 1835 1836 1836 1837 1837 1838 1838 1839 1839 1840 1840 1841 1841 1842 1842 1843 1843 1844 1844 1845 1845 1846 1846 1847 1847</p>
        </triangles>
      </mesh>
    </geometry>
  </library_geometries>
  <library_materials>
    <material id="326e7cd2e8934969827a46d962bf48e5" name="defaultmaterial">
      <instance_effect url="#26096473c6ed4b12b8dade1392472a01" />
    </material>
  </library_materials>
  <library_visual_scenes>
    <visual_scene id="scene">
      <node id="node0" name="node0">
        <instance_geometry url="#08418c8e67634efa8c26677256f5b092">
          <bind_material>
            <technique_common>
              <instance_material symbol="material0" target="#326e7cd2e8934969827a46d962bf48e5" />
            </technique_common>
          </bind_material>
        </instance_geometry>
      </node>
    </visual_scene>
  </library_visual_scenes>
  <scene>
    <instance_visual_scene url="#scene" />
  </scene>
</COLLADA>
