<COLLADA xmlns="http://www.collada.org/2005/11/COLLADASchema" version="1.4.1">
  <asset>
    <created>2026-06-28T19:44:22.015777</created>
    <modified>2026-06-28T19:44:22.015780</modified>
    <up_axis>Y_UP</up_axis>
  </asset>
  <library_effects>
    <effect id="432580e853544a85b3366ad236c5181c" name="432580e853544a85b3366ad236c5181c">
      <profile_COMMON>
        <technique sid="common">
          <phong>
            <emission>
              <color>0.0 0.0 0.0 1.0</color>
            </emission>
            <ambient>
              <color>0.0 0.0 0.0 1.0</color>
            </ambient>
            <diffuse>
              <color>0.0 0.0 0.0 1.0</color>
            </diffuse>
            <specular>
              <color>0.0 0.0 0.0 1.0</color>
            </specular>
            <shininess>
              <float>0.0</float>
            </shininess>
            <reflective>
              <color>0.0 0.0 0.0 1.0</color>
            </reflective>
            <reflectivity>
              <float>0.0</float>
            </reflectivity>
            <transparent>
              <color>0.0 0.0 0.0 1.0</color>
            </transparent>
            <transparency>
              <float>1.0</float>
            </transparency>
          </phong>
        </technique>
        <extra>
          <technique profile="GOOGLEEARTH">
            <double_sided>0</double_sided>
          </technique>
        </extra>
      </profile_COMMON>
    </effect>
  </library_effects>
  <library_geometries>
    <geometry id="6642fe98c9fa434895b918ee37cb13d5" name="e8cb74867a6141a8b8b688e6663da090">
      <mesh>
        <source id="verts-array">
          <float_array count="4320" id="verts-array-array">-30.70218 15.14497 -1.908716 -21.82092 19.74056 -1.908716 -18.36713 13.17534 -1.908716 -18.36713 13.17534 -1.908716 -27.08394 8.579738 -1.908716 -30.70218 15.14497 -1.908716 -18.36713 13.17534 1.191284 -21.82092 19.74056 1.191284 -30.70218 15.14497 1.191284 -30.70218 15.14497 1.191284 -27.08394 8.579738 1.191284 -18.36713 13.17534 1.191284 -18.36713 13.17534 1.191284 -27.08394 8.579738 1.191284 -18.36713 13.17534 -1.908716 -18.36713 13.17534 -1.908716 -27.08394 8.579738 1.191284 -27.08394 8.579738 -1.908716 -27.08394 8.579738 1.191284 -30.70218 15.14497 1.191284 -27.08394 8.579738 -1.908716 -27.08394 8.579738 -1.908716 -30.70218 15.14497 1.191284 -30.70218 15.14497 -1.908716 -21.82092 19.74056 1.191284 -18.36713 13.17534 1.191284 -21.82092 19.74056 -1.908716 -21.82092 19.74056 -1.908716 -18.36713 13.17534 1.191284 -18.36713 13.17534 -1.908716 -30.70218 15.14497 1.191284 -21.82092 19.74056 1.191284 -30.70218 15.14497 -1.908716 -30.70218 15.14497 -1.908716 -21.82092 19.74056 1.191284 -21.82092 19.74056 -1.908716 -3.729498 52.40243 -5.353385 18.30888 64.38397 -5.353385 30.47949 41.73407 -5.353385 19.95367 36.15358 -5.353385 8.441024 29.91659 -5.353385 -3.729498 52.40243 -5.353385 -3.729498 52.40243 -5.353385 30.47949 41.73407 -5.353385 19.95367 36.15358 -5.353385 30.47949 41.73407 -2.353385 18.30888 64.38397 -2.353385 -3.729498 52.40243 -2.353385 -3.729498 52.40243 -2.353385 8.441024 29.91659 -2.353385 19.95367 36.15358 -2.353385 19.95367 36.15358 -2.353385 30.47949 41.73407 -2.353385 -3.729498 52.40243 -2.353385 30.47949 41.73407 -2.353385 19.95367 36.15358 -2.353385 30.47949 41.73407 -5.353385 30.47949 41.73407 -5.353385 19.95367 36.15358 -2.353385 19.95367 36.15358 -5.353385 19.95367 36.15358 -2.353385 8.441024 29.91659 -2.353385 19.95367 36.15358 -5.353385 19.95367 36.15358 -5.353385 8.441024 29.91659 -2.353385 8.441024 29.91659 -5.353385 8.441024 29.91659 -2.353385 -3.729498 52.40243 -2.353385 8.441024 29.91659 -5.353385 8.441024 29.91659 -5.353385 -3.729498 52.40243 -2.353385 -3.729498 52.40243 -5.353385 18.30888 64.38397 -2.353385 30.47949 41.73407 -2.353385 18.30888 64.38397 -5.353385 18.30888 64.38397 -5.353385 30.47949 41.73407 -2.353385 30.47949 41.73407 -5.353385 -3.729498 52.40243 -2.353385 18.30888 64.38397 -2.353385 -3.729498 52.40243 -5.353385 -3.729498 52.40243 -5.353385 18.30888 64.38397 -2.353385 18.30888 64.38397 -5.353385 26.20361 2.671044 -3.177821 49.39324 30.57339 -3.177821 67.48483 15.63779 -3.177821 50.87378 2.67127 -3.177821 41.1703 -9.474473 -3.177821 26.20361 2.671044 -3.177821 67.48483 15.63779 -3.177821 54.65658 -0.2830263 -3.177821 50.87378 2.67127 -3.177821 50.87378 2.67127 -3.177821 26.20361 2.671044 -3.177821 67.48483 15.63779 -3.177821 67.48483 15.63779 -0.1778207 49.39324 30.57339 -0.1778207 26.20361 2.671044 -0.1778207 26.20361 2.671044 -0.1778207 41.1703 -9.474473 -0.1778207 50.87378 2.67127 -0.1778207 50.87378 2.67127 -0.1778207 54.65658 -0.2830263 -0.1778207 67.48483 15.63779 -0.1778207 67.48483 15.63779 -0.1778207 26.20361 2.671044 -0.1778207 50.87378 2.67127 -0.1778207 67.48483 15.63779 -0.1778207 54.65658 -0.2830263 -0.1778207 67.48483 15.63779 -3.177821 67.48483 15.63779 -3.177821 54.65658 -0.2830263 -0.1778207 54.65658 -0.2830263 -3.177821 54.65658 -0.2830263 -0.1778207 50.87378 2.67127 -0.1778207 54.65658 -0.2830263 -3.177821 54.65658 -0.2830263 -3.177821 50.87378 2.67127 -0.1778207 50.87378 2.67127 -3.177821 50.87378 2.67127 -0.1778207 41.1703 -9.474473 -0.1778207 50.87378 2.67127 -3.177821 50.87378 2.67127 -3.177821 41.1703 -9.474473 -0.1778207 41.1703 -9.474473 -3.177821 41.1703 -9.474473 -0.1778207 26.20361 2.671044 -0.1778207 41.1703 -9.474473 -3.177821 41.1703 -9.474473 -3.177821 26.20361 2.671044 -0.1778207 26.20361 2.671044 -3.177821 49.39324 30.57339 -0.1778207 67.48483 15.63779 -0.1778207 49.39324 30.57339 -3.177821 49.39324 30.57339 -3.177821 67.48483 15.63779 -0.1778207 67.48483 15.63779 -3.177821 26.20361 2.671044 -0.1778207 49.39324 30.57339 -0.1778207 26.20361 2.671044 -3.177821 26.20361 2.671044 -3.177821 49.39324 30.57339 -0.1778207 49.39324 30.57339 -3.177821 -52.08369 -46.07539 0.7589883 -37.61028 -37.54077 0.7589883 -34.97881 -42.62883 0.7589883 -44.51817 -54.28199 0.7589883 -48.62988 -50.83521 0.7589883 -52.08369 -46.07539 0.7589883 -40.40639 -51.65595 0.7589883 -41.39323 -52.96898 0.7589883 -42.54451 -51.98419 0.7589883 -52.08369 -46.07539 0.7589883 -34.97881 -42.62883 0.7589883 -41.3932 -50.83529 0.7589883 -42.54451 -51.98419 0.7589883 -44.51817 -54.28199 0.7589883 -52.08369 -46.07539 0.7589883 -41.3932 -50.83529 0.7589883 -40.40639 -51.65595 0.7589883 -42.54451 -51.98419 0.7589883 -42.54451 -51.98419 0.7589883 -52.08369 -46.07539 0.7589883 -41.3932 -50.83529 0.7589883 -34.97881 -42.62883 3.758988 -37.61028 -37.54077 3.758988 -52.08369 -46.07539 3.758988 -52.08369 -46.07539 3.758988 -48.62988 -50.83521 3.758988 -44.51817 -54.28199 3.758988 -42.54451 -51.98419 3.758988 -41.39323 -52.96898 3.758988 -40.40639 -51.65595 3.758988 -41.3932 -50.83529 3.758988 -34.97881 -42.62883 3.758988 -52.08369 -46.07539 3.758988 -52.08369 -46.07539 3.758988 -44.51817 -54.28199 3.758988 -42.54451 -51.98419 3.758988 -42.54451 -51.98419 3.758988 -40.40639 -51.65595 3.758988 -41.3932 -50.83529 3.758988 -41.3932 -50.83529 3.758988 -52.08369 -46.07539 3.758988 -42.54451 -51.98419 3.758988 -34.97881 -42.62883 3.758988 -41.3932 -50.83529 3.758988 -34.97881 -42.62883 0.7589883 -34.97881 -42.62883 0.7589883 -41.3932 -50.83529 3.758988 -41.3932 -50.83529 0.7589883 -41.3932 -50.83529 3.758988 -40.40639 -51.65595 3.758988 -41.3932 -50.83529 0.7589883 -41.3932 -50.83529 0.7589883 -40.40639 -51.65595 3.758988 -40.40639 -51.65595 0.7589883 -40.40639 -51.65595 3.758988 -41.39323 -52.96898 3.758988 -40.40639 -51.65595 0.7589883 -40.40639 -51.65595 0.7589883 -41.39323 -52.96898 3.758988 -41.39323 -52.96898 0.7589883 -41.39323 -52.96898 3.758988 -42.54451 -51.98419 3.758988 -41.39323 -52.96898 0.7589883 -41.39323 -52.96898 0.7589883 -42.54451 -51.98419 3.758988 -42.54451 -51.98419 0.7589883 -42.54451 -51.98419 3.758988 -44.51817 -54.28199 3.758988 -42.54451 -51.98419 0.7589883 -42.54451 -51.98419 0.7589883 -44.51817 -54.28199 3.758988 -44.51817 -54.28199 0.7589883 -44.51817 -54.28199 3.758988 -48.62988 -50.83521 3.758988 -44.51817 -54.28199 0.7589883 -44.51817 -54.28199 0.7589883 -48.62988 -50.83521 3.758988 -48.62988 -50.83521 0.7589883 -48.62988 -50.83521 3.758988 -52.08369 -46.07539 3.758988 -48.62988 -50.83521 0.7589883 -48.62988 -50.83521 0.7589883 -52.08369 -46.07539 3.758988 -52.08369 -46.07539 0.7589883 -37.61028 -37.54077 3.758988 -34.97881 -42.62883 3.758988 -37.61028 -37.54077 0.7589883 -37.61028 -37.54077 0.7589883 -34.97881 -42.62883 3.758988 -34.97881 -42.62883 0.7589883 -52.08369 -46.07539 3.758988 -37.61028 -37.54077 3.758988 -52.08369 -46.07539 0.7589883 -52.08369 -46.07539 0.7589883 -37.61028 -37.54077 3.758988 -37.61028 -37.54077 0.7589883 -40.57043 -7.176655 0.02155676 -36.78765 -5.042997 0.02155676 -31.52474 -14.56259 0.02155676 -68.69472 -20.30671 0.02155676 -41.55723 -5.535344 0.02155676 -40.57043 -7.176655 0.02155676 -34.32073 -18.5017 0.02155676 -61.45828 -33.43724 0.02155676 -68.69472 -20.30671 0.02155676 -40.57043 -7.176655 0.02155676 -31.52474 -14.56259 0.02155676 -35.30753 -16.69626 0.02155676 -34.32073 -18.5017 0.02155676 -68.69472 -20.30671 0.02155676 -40.57043 -7.176655 0.02155676 -40.57043 -7.176655 0.02155676 -35.30753 -16.69626 0.02155676 -34.32073 -18.5017 0.02155676 -31.52474 -14.56259 3.021557 -36.78765 -5.042997 3.021557 -40.57043 -7.176655 3.021557 -40.57043 -7.176655 3.021557 -41.55723 -5.535344 3.021557 -68.69472 -20.30671 3.021557 -68.69472 -20.30671 3.021557 -61.45828 -33.43724 3.021557 -34.32073 -18.5017 3.021557 -35.30753 -16.69626 3.021557 -31.52474 -14.56259 3.021557 -40.57043 -7.176655 3.021557 -40.57043 -7.176655 3.021557 -68.69472 -20.30671 3.021557 -34.32073 -18.5017 3.021557 -34.32073 -18.5017 3.021557 -35.30753 -16.69626 3.021557 -40.57043 -7.176655 3.021557 -31.52474 -14.56259 3.021557 -35.30753 -16.69626 3.021557 -31.52474 -14.56259 0.02155676 -31.52474 -14.56259 0.02155676 -35.30753 -16.69626 3.021557 -35.30753 -16.69626 0.02155676 -35.30753 -16.69626 3.021557 -34.32073 -18.5017 3.021557 -35.30753 -16.69626 0.02155676 -35.30753 -16.69626 0.02155676 -34.32073 -18.5017 3.021557 -34.32073 -18.5017 0.02155676 -34.32073 -18.5017 3.021557 -61.45828 -33.43724 3.021557 -34.32073 -18.5017 0.02155676 -34.32073 -18.5017 0.02155676 -61.45828 -33.43724 3.021557 -61.45828 -33.43724 0.02155676 -61.45828 -33.43724 3.021557 -68.69472 -20.30671 3.021557 -61.45828 -33.43724 0.02155676 -61.45828 -33.43724 0.02155676 -68.69472 -20.30671 3.021557 -68.69472 -20.30671 0.02155676 -68.69472 -20.30671 3.021557 -41.55723 -5.535344 3.021557 -68.69472 -20.30671 0.02155676 -68.69472 -20.30671 0.02155676 -41.55723 -5.535344 3.021557 -41.55723 -5.535344 0.02155676 -41.55723 -5.535344 3.021557 -40.57043 -7.176655 3.021557 -41.55723 -5.535344 0.02155676 -41.55723 -5.535344 0.02155676 -40.57043 -7.176655 3.021557 -40.57043 -7.176655 0.02155676 -36.78765 -5.042997 3.021557 -31.52474 -14.56259 3.021557 -36.78765 -5.042997 0.02155676 -36.78765 -5.042997 0.02155676 -31.52474 -14.56259 3.021557 -31.52474 -14.56259 0.02155676 -40.57043 -7.176655 3.021557 -36.78765 -5.042997 3.021557 -40.57043 -7.176655 0.02155676 -40.57043 -7.176655 0.02155676 -36.78765 -5.042997 3.021557 -36.78765 -5.042997 0.02155676 -54.71437 18.42782 -1.803035 -50.76713 20.56146 -1.803035 -45.66875 11.20598 -1.803035 -82.67406 5.297859 -1.803035 -55.53668 20.06913 -1.803035 -54.71437 18.42782 -1.803035 -48.46474 7.266889 -1.803035 -75.60218 -7.668562 -1.803035 -82.67406 5.297859 -1.803035 -54.71437 18.42782 -1.803035 -45.66875 11.20598 -1.803035 -49.61599 9.072335 -1.803035 -49.61599 9.072335 -1.803035 -48.46474 7.266889 -1.803035 -82.67406 5.297859 -1.803035 -82.67406 5.297859 -1.803035 -54.71437 18.42782 -1.803035 -49.61599 9.072335 -1.803035 -45.66875 11.20598 1.196965 -50.76713 20.56146 1.196965 -54.71437 18.42782 1.196965 -54.71437 18.42782 1.196965 -55.53668 20.06913 1.196965 -82.67406 5.297859 1.196965 -82.67406 5.297859 1.196965 -75.60218 -7.668562 1.196965 -48.46474 7.266889 1.196965 -49.61599 9.072335 1.196965 -45.66875 11.20598 1.196965 -54.71437 18.42782 1.196965 -82.67406 5.297859 1.196965 -48.46474 7.266889 1.196965 -49.61599 9.072335 1.196965 -49.61599 9.072335 1.196965 -54.71437 18.42782 1.196965 -82.67406 5.297859 1.196965 -45.66875 11.20598 1.196965 -49.61599 9.072335 1.196965 -45.66875 11.20598 -1.803035 -45.66875 11.20598 -1.803035 -49.61599 9.072335 1.196965 -49.61599 9.072335 -1.803035 -49.61599 9.072335 1.196965 -48.46474 7.266889 1.196965 -49.61599 9.072335 -1.803035 -49.61599 9.072335 -1.803035 -48.46474 7.266889 1.196965 -48.46474 7.266889 -1.803035 -48.46474 7.266889 1.196965 -75.60218 -7.668562 1.196965 -48.46474 7.266889 -1.803035 -48.46474 7.266889 -1.803035 -75.60218 -7.668562 1.196965 -75.60218 -7.668562 -1.803035 -75.60218 -7.668562 1.196965 -82.67406 5.297859 1.196965 -75.60218 -7.668562 -1.803035 -75.60218 -7.668562 -1.803035 -82.67406 5.297859 1.196965 -82.67406 5.297859 -1.803035 -82.67406 5.297859 1.196965 -55.53668 20.06913 1.196965 -82.67406 5.297859 -1.803035 -82.67406 5.297859 -1.803035 -55.53668 20.06913 1.196965 -55.53668 20.06913 -1.803035 -55.53668 20.06913 1.196965 -54.71437 18.42782 1.196965 -55.53668 20.06913 -1.803035 -55.53668 20.06913 -1.803035 -54.71437 18.42782 1.196965 -54.71437 18.42782 -1.803035 -50.76713 20.56146 1.196965 -45.66875 11.20598 1.196965 -50.76713 20.56146 -1.803035 -50.76713 20.56146 -1.803035 -45.66875 11.20598 1.196965 -45.66875 11.20598 -1.803035 -54.71437 18.42782 1.196965 -50.76713 20.56146 1.196965 -54.71437 18.42782 -1.803035 -54.71437 18.42782 -1.803035 -50.76713 20.56146 1.196965 -50.76713 20.56146 -1.803035 -20.99852 31.39381 -2.746381 -17.70918 33.19922 -2.746381 -8.992452 31.22963 -2.746381 -21.82092 19.74056 -2.746381 -23.3011 23.35144 -2.746381 -20.99852 31.39381 -2.746381 -8.005696 7.594877 -2.746381 -17.05141 10.22099 -2.746381 -18.36713 13.17534 -2.746381 -1.920388 18.5916 -2.746381 -4.716341 9.400305 -2.746381 -8.005696 7.594877 -2.746381 -20.99852 31.39381 -2.746381 -8.992452 31.22963 -2.746381 -1.920388 18.5916 -2.746381 -18.36713 13.17534 -2.746381 -21.82092 19.74056 -2.746381 -20.99852 31.39381 -2.746381 -1.920388 18.5916 -2.746381 -8.005696 7.594877 -2.746381 -18.36713 13.17534 -2.746381 -18.36713 13.17534 -2.746381 -20.99852 31.39381 -2.746381 -1.920388 18.5916 -2.746381 -8.992452 31.22963 70.75362 -17.70918 33.19922 70.75362 -20.99852 31.39381 70.75362 -20.99852 31.39381 70.75362 -23.3011 23.35144 70.75362 -21.82092 19.74056 70.75362 -18.36713 13.17534 70.75362 -17.05141 10.22099 70.75362 -8.005696 7.594877 70.75362 -8.005696 7.594877 70.75362 -4.716341 9.400305 70.75362 -1.920388 18.5916 70.75362 -1.920388 18.5916 70.75362 -8.992452 31.22963 70.75362 -20.99852 31.39381 70.75362 -20.99852 31.39381 70.75362 -21.82092 19.74056 70.75362 -18.36713 13.17534 70.75362 -18.36713 13.17534 70.75362 -8.005696 7.594877 70.75362 -1.920388 18.5916 70.75362 -1.920388 18.5916 70.75362 -20.99852 31.39381 70.75362 -18.36713 13.17534 70.75362 -8.992452 31.22963 70.75362 -1.920388 18.5916 70.75362 -8.992452 31.22963 -2.746381 -8.992452 31.22963 -2.746381 -1.920388 18.5916 70.75362 -1.920388 18.5916 -2.746381 -1.920388 18.5916 70.75362 -4.716341 9.400305 70.75362 -1.920388 18.5916 -2.746381 -1.920388 18.5916 -2.746381 -4.716341 9.400305 70.75362 -4.716341 9.400305 -2.746381 -4.716341 9.400305 70.75362 -8.005696 7.594877 70.75362 -4.716341 9.400305 -2.746381 -4.716341 9.400305 -2.746381 -8.005696 7.594877 70.75362 -8.005696 7.594877 -2.746381 -8.005696 7.594877 70.75362 -17.05141 10.22099 70.75362 -8.005696 7.594877 -2.746381 -8.005696 7.594877 -2.746381 -17.05141 10.22099 70.75362 -17.05141 10.22099 -2.746381 -17.05141 10.22099 70.75362 -18.36713 13.17534 70.75362 -17.05141 10.22099 -2.746381 -17.05141 10.22099 -2.746381 -18.36713 13.17534 70.75362 -18.36713 13.17534 -2.746381 -18.36713 13.17534 70.75362 -21.82092 19.74056 70.75362 -18.36713 13.17534 -2.746381 -18.36713 13.17534 -2.746381 -21.82092 19.74056 70.75362 -21.82092 19.74056 -2.746381 -21.82092 19.74056 70.75362 -23.3011 23.35144 70.75362 -21.82092 19.74056 -2.746381 -21.82092 19.74056 -2.746381 -23.3011 23.35144 70.75362 -23.3011 23.35144 -2.746381 -23.3011 23.35144 70.75362 -20.99852 31.39381 70.75362 -23.3011 23.35144 -2.746381 -23.3011 23.35144 -2.746381 -20.99852 31.39381 70.75362 -20.99852 31.39381 -2.746381 -17.70918 33.19922 70.75362 -8.992452 31.22963 70.75362 -17.70918 33.19922 -2.746381 -17.70918 33.19922 -2.746381 -8.992452 31.22963 70.75362 -8.992452 31.22963 -2.746381 -20.99852 31.39381 70.75362 -17.70918 33.19922 70.75362 -20.99852 31.39381 -2.746381 -20.99852 31.39381 -2.746381 -17.70918 33.19922 70.75362 -17.70918 33.19922 -2.746381 26.3677 62.57858 -4.25751 34.75535 72.75472 -4.25751 79.16162 36.15428 -4.25751 44.45917 36.97442 -4.25751 33.60431 45.83735 -4.25751 39.03164 52.23848 -4.25751 79.16162 36.15428 -4.25751 70.28061 25.48565 -4.25751 49.22864 42.71903 -4.25751 39.03164 52.23848 -4.25751 26.3677 62.57858 -4.25751 79.16162 36.15428 -4.25751 49.22864 42.71903 -4.25751 44.45917 36.97442 -4.25751 39.03164 52.23848 -4.25751 39.03164 52.23848 -4.25751 79.16162 36.15428 -4.25751 49.22864 42.71903 -4.25751 79.16162 36.15428 -1.25751 34.75535 72.75472 -1.25751 26.3677 62.57858 -1.25751 39.03164 52.23848 -1.25751 33.60431 45.83735 -1.25751 44.45917 36.97442 -1.25751 49.22864 42.71903 -1.25751 70.28061 25.48565 -1.25751 79.16162 36.15428 -1.25751 79.16162 36.15428 -1.25751 26.3677 62.57858 -1.25751 39.03164 52.23848 -1.25751 39.03164 52.23848 -1.25751 44.45917 36.97442 -1.25751 49.22864 42.71903 -1.25751 49.22864 42.71903 -1.25751 79.16162 36.15428 -1.25751 39.03164 52.23848 -1.25751 79.16162 36.15428 -1.25751 70.28061 25.48565 -1.25751 79.16162 36.15428 -4.25751 79.16162 36.15428 -4.25751 70.28061 25.48565 -1.25751 70.28061 25.48565 -4.25751 70.28061 25.48565 -1.25751 49.22864 42.71903 -1.25751 70.28061 25.48565 -4.25751 70.28061 25.48565 -4.25751 49.22864 42.71903 -1.25751 49.22864 42.71903 -4.25751 49.22864 42.71903 -1.25751 44.45917 36.97442 -1.25751 49.22864 42.71903 -4.25751 49.22864 42.71903 -4.25751 44.45917 36.97442 -1.25751 44.45917 36.97442 -4.25751 44.45917 36.97442 -1.25751 33.60431 45.83735 -1.25751 44.45917 36.97442 -4.25751 44.45917 36.97442 -4.25751 33.60431 45.83735 -1.25751 33.60431 45.83735 -4.25751 33.60431 45.83735 -1.25751 39.03164 52.23848 -1.25751 33.60431 45.83735 -4.25751 33.60431 45.83735 -4.25751 39.03164 52.23848 -1.25751 39.03164 52.23848 -4.25751 39.03164 52.23848 -1.25751 26.3677 62.57858 -1.25751 39.03164 52.23848 -4.25751 39.03164 52.23848 -4.25751 26.3677 62.57858 -1.25751 26.3677 62.57858 -4.25751 34.75535 72.75472 -1.25751 79.16162 36.15428 -1.25751 34.75535 72.75472 -4.25751 34.75535 72.75472 -4.25751 79.16162 36.15428 -1.25751 79.16162 36.15428 -4.25751 26.3677 62.57858 -1.25751 34.75535 72.75472 -1.25751 26.3677 62.57858 -4.25751 26.3677 62.57858 -4.25751 34.75535 72.75472 -1.25751 34.75535 72.75472 -4.25751 0.7110989 -50.50723 2.412529 3.013676 -47.55289 2.412529 11.40165 -54.28221 2.412529 -16.55831 -68.39739 2.412529 -1.09807 -49.19419 2.412529 0.7110989 -50.50723 2.412529 -25.76867 -69.05387 2.412529 -21.82135 -64.12998 2.412529 -16.55831 -68.39739 2.412529 9.09908 -57.23656 2.412529 10.57931 -58.38547 2.412529 -8.663753 -82.67674 2.412529 0.7110989 -50.50723 2.412529 11.40165 -54.28221 2.412529 9.09908 -57.23656 2.412529 -8.663753 -82.67674 2.412529 -25.76867 -69.05387 2.412529 -16.55831 -68.39739 2.412529 0.7110989 -50.50723 2.412529 9.09908 -57.23656 2.412529 -8.663753 -82.67674 2.412529 -8.663753 -82.67674 2.412529 -16.55831 -68.39739 2.412529 0.7110989 -50.50723 2.412529 11.40165 -54.28221 5.412529 3.013676 -47.55289 5.412529 0.7110989 -50.50723 5.412529 0.7110989 -50.50723 5.412529 -1.09807 -49.19419 5.412529 -16.55831 -68.39739 5.412529 -16.55831 -68.39739 5.412529 -21.82135 -64.12998 5.412529 -25.76867 -69.05387 5.412529 -8.663753 -82.67674 5.412529 10.57931 -58.38547 5.412529 9.09908 -57.23656 5.412529 9.09908 -57.23656 5.412529 11.40165 -54.28221 5.412529 0.7110989 -50.50723 5.412529 -16.55831 -68.39739 5.412529 -25.76867 -69.05387 5.412529 -8.663753 -82.67674 5.412529 -8.663753 -82.67674 5.412529 9.09908 -57.23656 5.412529 0.7110989 -50.50723 5.412529 0.7110989 -50.50723 5.412529 -16.55831 -68.39739 5.412529 -8.663753 -82.67674 5.412529 11.40165 -54.28221 5.412529 9.09908 -57.23656 5.412529 11.40165 -54.28221 2.412529 11.40165 -54.28221 2.412529 9.09908 -57.23656 5.412529 9.09908 -57.23656 2.412529 9.09908 -57.23656 5.412529 10.57931 -58.38547 5.412529 9.09908 -57.23656 2.412529 9.09908 -57.23656 2.412529 10.57931 -58.38547 5.412529 10.57931 -58.38547 2.412529 10.57931 -58.38547 5.412529 -8.663753 -82.67674 5.412529 10.57931 -58.38547 2.412529 10.57931 -58.38547 2.412529 -8.663753 -82.67674 5.412529 -8.663753 -82.67674 2.412529 -8.663753 -82.67674 5.412529 -25.76867 -69.05387 5.412529 -8.663753 -82.67674 2.412529 -8.663753 -82.67674 2.412529 -25.76867 -69.05387 5.412529 -25.76867 -69.05387 2.412529 -25.76867 -69.05387 5.412529 -21.82135 -64.12998 5.412529 -25.76867 -69.05387 2.412529 -25.76867 -69.05387 2.412529 -21.82135 -64.12998 5.412529 -21.82135 -64.12998 2.412529 -21.82135 -64.12998 5.412529 -16.55831 -68.39739 5.412529 -21.82135 -64.12998 2.412529 -21.82135 -64.12998 2.412529 -16.55831 -68.39739 5.412529 -16.55831 -68.39739 2.412529 -16.55831 -68.39739 5.412529 -1.09807 -49.19419 5.412529 -16.55831 -68.39739 2.412529 -16.55831 -68.39739 2.412529 -1.09807 -49.19419 5.412529 -1.09807 -49.19419 2.412529 -1.09807 -49.19419 5.412529 0.7110989 -50.50723 5.412529 -1.09807 -49.19419 2.412529 -1.09807 -49.19419 2.412529 0.7110989 -50.50723 5.412529 0.7110989 -50.50723 2.412529 3.013676 -47.55289 5.412529 11.40165 -54.28221 5.412529 3.013676 -47.55289 2.412529 3.013676 -47.55289 2.412529 11.40165 -54.28221 5.412529 11.40165 -54.28221 2.412529 0.7110989 -50.50723 5.412529 3.013676 -47.55289 5.412529 0.7110989 -50.50723 2.412529 0.7110989 -50.50723 2.412529 3.013676 -47.55289 5.412529 3.013676 -47.55289 2.412529 58.27503 -11.60796 -3.986537 87.22073 24.0088 -3.986537 90.34566 21.54691 -3.986537 66.00508 -13.57741 -3.986537 63.86703 -16.20353 -3.986537 58.27503 -11.60796 -3.986537 81.62941 -4.385845 -3.986537 70.9392 -17.51646 -3.986537 66.00508 -13.57741 -3.986537 91.33244 22.69584 -3.986537 97.74677 17.60795 -3.986537 80.47811 -3.401086 -3.986537 66.00508 -13.57741 -3.986537 58.27503 -11.60796 -3.986537 90.34566 21.54691 -3.986537 80.47811 -3.401086 -3.986537 81.62941 -4.385845 -3.986537 66.00508 -13.57741 -3.986537 90.34566 21.54691 -3.986537 91.33244 22.69584 -3.986537 80.47811 -3.401086 -3.986537 80.47811 -3.401086 -3.986537 66.00508 -13.57741 -3.986537 90.34566 21.54691 -3.986537 90.34566 21.54691 -0.986537 87.22073 24.0088 -0.986537 58.27503 -11.60796 -0.986537 58.27503 -11.60796 -0.986537 63.86703 -16.20353 -0.986537 66.00508 -13.57741 -0.986537 66.00508 -13.57741 -0.986537 70.9392 -17.51646 -0.986537 81.62941 -4.385845 -0.986537 80.47811 -3.401086 -0.986537 97.74677 17.60795 -0.986537 91.33244 22.69584 -0.986537 90.34566 21.54691 -0.986537 58.27503 -11.60796 -0.986537 66.00508 -13.57741 -0.986537 66.00508 -13.57741 -0.986537 81.62941 -4.385845 -0.986537 80.47811 -3.401086 -0.986537 80.47811 -3.401086 -0.986537 91.33244 22.69584 -0.986537 90.34566 21.54691 -0.986537 90.34566 21.54691 -0.986537 66.00508 -13.57741 -0.986537 80.47811 -3.401086 -0.986537 90.34566 21.54691 -0.986537 91.33244 22.69584 -0.986537 90.34566 21.54691 -3.986537 90.34566 21.54691 -3.986537 91.33244 22.69584 -0.986537 91.33244 22.69584 -3.986537 91.33244 22.69584 -0.986537 97.74677 17.60795 -0.986537 91.33244 22.69584 -3.986537 91.33244 22.69584 -3.986537 97.74677 17.60795 -0.986537 97.74677 17.60795 -3.986537 97.74677 17.60795 -0.986537 80.47811 -3.401086 -0.986537 97.74677 17.60795 -3.986537 97.74677 17.60795 -3.986537 80.47811 -3.401086 -0.986537 80.47811 -3.401086 -3.986537 80.47811 -3.401086 -0.986537 81.62941 -4.385845 -0.986537 80.47811 -3.401086 -3.986537 80.47811 -3.401086 -3.986537 81.62941 -4.385845 -0.986537 81.62941 -4.385845 -3.986537 81.62941 -4.385845 -0.986537 70.9392 -17.51646 -0.986537 81.62941 -4.385845 -3.986537 81.62941 -4.385845 -3.986537 70.9392 -17.51646 -0.986537 70.9392 -17.51646 -3.986537 70.9392 -17.51646 -0.986537 66.00508 -13.57741 -0.986537 70.9392 -17.51646 -3.986537 70.9392 -17.51646 -3.986537 66.00508 -13.57741 -0.986537 66.00508 -13.57741 -3.986537 66.00508 -13.57741 -0.986537 63.86703 -16.20353 -0.986537 66.00508 -13.57741 -3.986537 66.00508 -13.57741 -3.986537 63.86703 -16.20353 -0.986537 63.86703 -16.20353 -3.986537 63.86703 -16.20353 -0.986537 58.27503 -11.60796 -0.986537 63.86703 -16.20353 -3.986537 63.86703 -16.20353 -3.986537 58.27503 -11.60796 -0.986537 58.27503 -11.60796 -3.986537 87.22073 24.0088 -0.986537 90.34566 21.54691 -0.986537 87.22073 24.0088 -3.986537 87.22073 24.0088 -3.986537 90.34566 21.54691 -0.986537 90.34566 21.54691 -3.986537 58.27503 -11.60796 -0.986537 87.22073 24.0088 -0.986537 58.27503 -11.60796 -3.986537 58.27503 -11.60796 -3.986537 87.22073 24.0088 -0.986537 87.22073 24.0088 -3.986537 -41.22795 28.932 -0.8606225 -38.59647 30.24502 -0.8606225 -30.70218 15.14497 -0.8606225 -50.76713 20.56146 -0.8606225 -52.08284 22.8593 -0.8606225 -41.22795 28.932 -0.8606225 -36.78765 -5.042997 -0.8606225 -45.66875 11.20598 -0.8606225 -50.76713 20.56146 -0.8606225 -14.25554 -14.23443 -0.8606225 -26.2618 -24.24631 -0.8606225 -31.52474 -14.56259 -0.8606225 -41.22795 28.932 -0.8606225 -30.70218 15.14497 -0.8606225 -27.08394 8.579738 -0.8606225 -36.78765 -5.042997 -0.8606225 -50.76713 20.56146 -0.8606225 -41.22795 28.932 -0.8606225 -14.25554 -14.23443 -0.8606225 -31.52474 -14.56259 -0.8606225 -36.78765 -5.042997 -0.8606225 -41.22795 28.932 -0.8606225 -27.08394 8.579738 -0.8606225 -14.25554 -14.23443 -0.8606225 -14.25554 -14.23443 -0.8606225 -36.78765 -5.042997 -0.8606225 -41.22795 28.932 -0.8606225 -30.70218 15.14497 2.139377 -38.59647 30.24502 2.139377 -41.22795 28.932 2.139377 -41.22795 28.932 2.139377 -52.08284 22.8593 2.139377 -50.76713 20.56146 2.139377 -50.76713 20.56146 2.139377 -45.66875 11.20598 2.139377 -36.78765 -5.042997 2.139377 -31.52474 -14.56259 2.139377 -26.2618 -24.24631 2.139377 -14.25554 -14.23443 2.139377 -27.08394 8.579738 2.139377 -30.70218 15.14497 2.139377 -41.22795 28.932 2.139377 -41.22795 28.932 2.139377 -50.76713 20.56146 2.139377 -36.78765 -5.042997 2.139377 -36.78765 -5.042997 2.139377 -31.52474 -14.56259 2.139377 -14.25554 -14.23443 2.139377 -14.25554 -14.23443 2.139377 -27.08394 8.579738 2.139377 -41.22795 28.932 2.139377 -41.22795 28.932 2.139377 -36.78765 -5.042997 2.139377 -14.25554 -14.23443 2.139377 -30.70218 15.14497 2.139377 -27.08394 8.579738 2.139377 -30.70218 15.14497 -0.8606225 -30.70218 15.14497 -0.8606225 -27.08394 8.579738 2.139377 -27.08394 8.579738 -0.8606225 -27.08394 8.579738 2.139377 -14.25554 -14.23443 2.139377 -27.08394 8.579738 -0.8606225 -27.08394 8.579738 -0.8606225 -14.25554 -14.23443 2.139377 -14.25554 -14.23443 -0.8606225 -14.25554 -14.23443 2.139377 -26.2618 -24.24631 2.139377 -14.25554 -14.23443 -0.8606225 -14.25554 -14.23443 -0.8606225 -26.2618 -24.24631 2.139377 -26.2618 -24.24631 -0.8606225 -26.2618 -24.24631 2.139377 -31.52474 -14.56259 2.139377 -26.2618 -24.24631 -0.8606225 -26.2618 -24.24631 -0.8606225 -31.52474 -14.56259 2.139377 -31.52474 -14.56259 -0.8606225 -31.52474 -14.56259 2.139377 -36.78765 -5.042997 2.139377 -31.52474 -14.56259 -0.8606225 -31.52474 -14.56259 -0.8606225 -36.78765 -5.042997 2.139377 -36.78765 -5.042997 -0.8606225 -36.78765 -5.042997 2.139377 -45.66875 11.20598 2.139377 -36.78765 -5.042997 -0.8606225 -36.78765 -5.042997 -0.8606225 -45.66875 11.20598 2.139377 -45.66875 11.20598 -0.8606225 -45.66875 11.20598 2.139377 -50.76713 20.56146 2.139377 -45.66875 11.20598 -0.8606225 -45.66875 11.20598 -0.8606225 -50.76713 20.56146 2.139377 -50.76713 20.56146 -0.8606225 -50.76713 20.56146 2.139377 -52.08284 22.8593 2.139377 -50.76713 20.56146 -0.8606225 -50.76713 20.56146 -0.8606225 -52.08284 22.8593 2.139377 -52.08284 22.8593 -0.8606225 -52.08284 22.8593 2.139377 -41.22795 28.932 2.139377 -52.08284 22.8593 -0.8606225 -52.08284 22.8593 -0.8606225 -41.22795 28.932 2.139377 -41.22795 28.932 -0.8606225 -38.59647 30.24502 2.139377 -30.70218 15.14497 2.139377 -38.59647 30.24502 -0.8606225 -38.59647 30.24502 -0.8606225 -30.70218 15.14497 2.139377 -30.70218 15.14497 -0.8606225 -41.22795 28.932 2.139377 -38.59647 30.24502 2.139377 -41.22795 28.932 -0.8606225 -41.22795 28.932 -0.8606225 -38.59647 30.24502 2.139377 -38.59647 30.24502 -0.8606225 -21.82119 -32.61698 1.474163 -19.5186 -29.66265 1.474163 -11.29517 -36.22789 1.474163 -33.992 -43.77775 1.474163 -23.79481 -31.1398 1.474163 -21.82119 -32.61698 1.474163 -41.39323 -52.96898 1.474163 -40.40639 -51.65595 1.474163 -33.992 -43.77775 1.474163 -25.76867 -69.05387 1.474163 -43.20242 -55.26679 1.474163 -41.39323 -52.96898 1.474163 -27.41332 -59.69843 1.474163 -21.82135 -64.12998 1.474163 -25.76867 -69.05387 1.474163 -13.59775 -39.18222 1.474163 -11.95306 -40.49527 1.474163 -27.41332 -59.69843 1.474163 -21.82119 -32.61698 1.474163 -11.29517 -36.22789 1.474163 -13.59775 -39.18222 1.474163 -41.39323 -52.96898 1.474163 -33.992 -43.77775 1.474163 -21.82119 -32.61698 1.474163 -27.41332 -59.69843 1.474163 -25.76867 -69.05387 1.474163 -41.39323 -52.96898 1.474163 -21.82119 -32.61698 1.474163 -13.59775 -39.18222 1.474163 -27.41332 -59.69843 1.474163 -27.41332 -59.69843 1.474163 -41.39323 -52.96898 1.474163 -21.82119 -32.61698 1.474163 -11.29517 -36.22789 4.474163 -19.5186 -29.66265 4.474163 -21.82119 -32.61698 4.474163 -21.82119 -32.61698 4.474163 -23.79481 -31.1398 4.474163 -33.992 -43.77775 4.474163 -33.992 -43.77775 4.474163 -40.40639 -51.65595 4.474163 -41.39323 -52.96898 4.474163 -41.39323 -52.96898 4.474163 -43.20242 -55.26679 4.474163 -25.76867 -69.05387 4.474163 -25.76867 -69.05387 4.474163 -21.82135 -64.12998 4.474163 -27.41332 -59.69843 4.474163 -27.41332 -59.69843 4.474163 -11.95306 -40.49527 4.474163 -13.59775 -39.18222 4.474163 -13.59775 -39.18222 4.474163 -11.29517 -36.22789 4.474163 -21.82119 -32.61698 4.474163 -21.82119 -32.61698 4.474163 -33.992 -43.77775 4.474163 -41.39323 -52.96898 4.474163 -41.39323 -52.96898 4.474163 -25.76867 -69.05387 4.474163 -27.41332 -59.69843 4.474163 -27.41332 -59.69843 4.474163 -13.59775 -39.18222 4.474163 -21.82119 -32.61698 4.474163 -21.82119 -32.61698 4.474163 -41.39323 -52.96898 4.474163 -27.41332 -59.69843 4.474163 -11.29517 -36.22789 4.474163 -13.59775 -39.18222 4.474163 -11.29517 -36.22789 1.474163 -11.29517 -36.22789 1.474163 -13.59775 -39.18222 4.474163 -13.59775 -39.18222 1.474163 -13.59775 -39.18222 4.474163 -11.95306 -40.49527 4.474163 -13.59775 -39.18222 1.474163 -13.59775 -39.18222 1.474163 -11.95306 -40.49527 4.474163 -11.95306 -40.49527 1.474163 -11.95306 -40.49527 4.474163 -27.41332 -59.69843 4.474163 -11.95306 -40.49527 1.474163 -11.95306 -40.49527 1.474163 -27.41332 -59.69843 4.474163 -27.41332 -59.69843 1.474163 -27.41332 -59.69843 4.474163 -21.82135 -64.12998 4.474163 -27.41332 -59.69843 1.474163 -27.41332 -59.69843 1.474163 -21.82135 -64.12998 4.474163 -21.82135 -64.12998 1.474163 -21.82135 -64.12998 4.474163 -25.76867 -69.05387 4.474163 -21.82135 -64.12998 1.474163 -21.82135 -64.12998 1.474163 -25.76867 -69.05387 4.474163 -25.76867 -69.05387 1.474163 -25.76867 -69.05387 4.474163 -43.20242 -55.26679 4.474163 -25.76867 -69.05387 1.474163 -25.76867 -69.05387 1.474163 -43.20242 -55.26679 4.474163 -43.20242 -55.26679 1.474163 -43.20242 -55.26679 4.474163 -41.39323 -52.96898 4.474163 -43.20242 -55.26679 1.474163 -43.20242 -55.26679 1.474163 -41.39323 -52.96898 4.474163 -41.39323 -52.96898 1.474163 -41.39323 -52.96898 4.474163 -40.40639 -51.65595 4.474163 -41.39323 -52.96898 1.474163 -41.39323 -52.96898 1.474163 -40.40639 -51.65595 4.474163 -40.40639 -51.65595 1.474163 -40.40639 -51.65595 4.474163 -33.992 -43.77775 4.474163 -40.40639 -51.65595 1.474163 -40.40639 -51.65595 1.474163 -33.992 -43.77775 4.474163 -33.992 -43.77775 1.474163 -33.992 -43.77775 4.474163 -23.79481 -31.1398 4.474163 -33.992 -43.77775 1.474163 -33.992 -43.77775 1.474163 -23.79481 -31.1398 4.474163 -23.79481 -31.1398 1.474163 -23.79481 -31.1398 4.474163 -21.82119 -32.61698 4.474163 -23.79481 -31.1398 1.474163 -23.79481 -31.1398 1.474163 -21.82119 -32.61698 4.474163 -21.82119 -32.61698 1.474163 -19.5186 -29.66265 4.474163 -11.29517 -36.22789 4.474163 -19.5186 -29.66265 1.474163 -19.5186 -29.66265 1.474163 -11.29517 -36.22789 4.474163 -11.29517 -36.22789 1.474163 -21.82119 -32.61698 4.474163 -19.5186 -29.66265 4.474163 -21.82119 -32.61698 1.474163 -21.82119 -32.61698 1.474163 -19.5186 -29.66265 4.474163 -19.5186 -29.66265 1.474163 -26.2618 -24.24631 1.575175 -14.25554 -14.23443 1.575175 0.5466258 -26.05183 1.575175 -11.29517 -36.22789 1.575175 -19.5186 -29.66265 1.575175 -23.79478 -26.21589 1.575175 16.33577 -58.22132 1.575175 11.40165 -54.28221 1.575175 3.013676 -47.55289 1.575175 25.87497 -46.23977 1.575175 24.39475 -48.20934 1.575175 16.33577 -58.22132 1.575175 0.5466258 -26.05183 1.575175 17.48699 -39.51047 1.575175 25.87497 -46.23977 1.575175 -23.79478 -26.21589 1.575175 -26.2618 -24.24631 1.575175 0.5466258 -26.05183 1.575175 3.013676 -47.55289 1.575175 -11.29517 -36.22789 1.575175 -23.79478 -26.21589 1.575175 25.87497 -46.23977 1.575175 16.33577 -58.22132 1.575175 3.013676 -47.55289 1.575175 -23.79478 -26.21589 1.575175 0.5466258 -26.05183 1.575175 25.87497 -46.23977 1.575175 25.87497 -46.23977 1.575175 3.013676 -47.55289 1.575175 -23.79478 -26.21589 1.575175 0.5466258 -26.05183 4.575175 -14.25554 -14.23443 4.575175 -26.2618 -24.24631 4.575175 -23.79478 -26.21589 4.575175 -19.5186 -29.66265 4.575175 -11.29517 -36.22789 4.575175 3.013676 -47.55289 4.575175 11.40165 -54.28221 4.575175 16.33577 -58.22132 4.575175 16.33577 -58.22132 4.575175 24.39475 -48.20934 4.575175 25.87497 -46.23977 4.575175 25.87497 -46.23977 4.575175 17.48699 -39.51047 4.575175 0.5466258 -26.05183 4.575175 0.5466258 -26.05183 4.575175 -26.2618 -24.24631 4.575175 -23.79478 -26.21589 4.575175 -23.79478 -26.21589 4.575175 -11.29517 -36.22789 4.575175 3.013676 -47.55289 4.575175 3.013676 -47.55289 4.575175 16.33577 -58.22132 4.575175 25.87497 -46.23977 4.575175 25.87497 -46.23977 4.575175 0.5466258 -26.05183 4.575175 -23.79478 -26.21589 4.575175 -23.79478 -26.21589 4.575175 3.013676 -47.55289 4.575175 25.87497 -46.23977 4.575175 0.5466258 -26.05183 4.575175 17.48699 -39.51047 4.575175 0.5466258 -26.05183 1.575175 0.5466258 -26.05183 1.575175 17.48699 -39.51047 4.575175 17.48699 -39.51047 1.575175 17.48699 -39.51047 4.575175 25.87497 -46.23977 4.575175 17.48699 -39.51047 1.575175 17.48699 -39.51047 1.575175 25.87497 -46.23977 4.575175 25.87497 -46.23977 1.575175 25.87497 -46.23977 4.575175 24.39475 -48.20934 4.575175 25.87497 -46.23977 1.575175 25.87497 -46.23977 1.575175 24.39475 -48.20934 4.575175 24.39475 -48.20934 1.575175 24.39475 -48.20934 4.575175 16.33577 -58.22132 4.575175 24.39475 -48.20934 1.575175 24.39475 -48.20934 1.575175 16.33577 -58.22132 4.575175 16.33577 -58.22132 1.575175 16.33577 -58.22132 4.575175 11.40165 -54.28221 4.575175 16.33577 -58.22132 1.575175 16.33577 -58.22132 1.575175 11.40165 -54.28221 4.575175 11.40165 -54.28221 1.575175 11.40165 -54.28221 4.575175 3.013676 -47.55289 4.575175 11.40165 -54.28221 1.575175 11.40165 -54.28221 1.575175 3.013676 -47.55289 4.575175 3.013676 -47.55289 1.575175 3.013676 -47.55289 4.575175 -11.29517 -36.22789 4.575175 3.013676 -47.55289 1.575175 3.013676 -47.55289 1.575175 -11.29517 -36.22789 4.575175 -11.29517 -36.22789 1.575175 -11.29517 -36.22789 4.575175 -19.5186 -29.66265 4.575175 -11.29517 -36.22789 1.575175 -11.29517 -36.22789 1.575175 -19.5186 -29.66265 4.575175 -19.5186 -29.66265 1.575175 -19.5186 -29.66265 4.575175 -23.79478 -26.21589 4.575175 -19.5186 -29.66265 1.575175 -19.5186 -29.66265 1.575175 -23.79478 -26.21589 4.575175 -23.79478 -26.21589 1.575175 -23.79478 -26.21589 4.575175 -26.2618 -24.24631 4.575175 -23.79478 -26.21589 1.575175 -23.79478 -26.21589 1.575175 -26.2618 -24.24631 4.575175 -26.2618 -24.24631 1.575175 -14.25554 -14.23443 4.575175 0.5466258 -26.05183 4.575175 -14.25554 -14.23443 1.575175 -14.25554 -14.23443 1.575175 0.5466258 -26.05183 4.575175 0.5466258 -26.05183 1.575175 -26.2618 -24.24631 4.575175 -14.25554 -14.23443 4.575175 -26.2618 -24.24631 1.575175 -26.2618 -24.24631 1.575175 -14.25554 -14.23443 4.575175 -14.25554 -14.23443 1.575175 8.441088 -1.924675 -0.3840466 10.74364 -1.76054 -0.3840466 13.70407 -4.222485 -0.3840466 0.3821548 -3.565986 -0.3840466 5.316197 -3.237722 -0.3840466 6.631943 -4.386632 -0.3840466 -3.729558 -15.71162 -0.3840466 -4.551895 -9.802932 -0.3840466 0.3821548 -3.565986 -0.3840466 17.48699 -39.51047 -0.3840466 0.5466258 -26.05183 -0.3840466 3.836001 -21.78444 -0.3840466 28.67084 -29.00607 -0.3840466 22.25659 -37.04849 -0.3840466 20.61189 -35.73546 -0.3840466 25.87476 -11.77242 -0.3840466 33.44035 -17.84518 -0.3840466 26.36826 -27.03653 -0.3840466 15.01983 -7.012694 -0.3840466 16.82897 -4.550734 -0.3840466 25.87476 -11.77242 -0.3840466 8.441088 -1.924675 -0.3840466 13.70407 -4.222485 -0.3840466 13.53961 -5.699657 -0.3840466 -3.729558 -15.71162 -0.3840466 0.3821548 -3.565986 -0.3840466 6.631943 -4.386632 -0.3840466 20.61189 -35.73546 -0.3840466 17.48699 -39.51047 -0.3840466 3.836001 -21.78444 -0.3840466 26.36826 -27.03653 -0.3840466 28.67084 -29.00607 -0.3840466 20.61189 -35.73546 -0.3840466 15.01983 -7.012694 -0.3840466 25.87476 -11.77242 -0.3840466 26.36826 -27.03653 -0.3840466 8.441088 -1.924675 -0.3840466 13.53961 -5.699657 -0.3840466 15.01983 -7.012694 -0.3840466 3.836001 -21.78444 -0.3840466 -3.729558 -15.71162 -0.3840466 6.631943 -4.386632 -0.3840466 26.36826 -27.03653 -0.3840466 20.61189 -35.73546 -0.3840466 3.836001 -21.78444 -0.3840466 8.441088 -1.924675 -0.3840466 15.01983 -7.012694 -0.3840466 26.36826 -27.03653 -0.3840466 3.836001 -21.78444 -0.3840466 6.631943 -4.386632 -0.3840466 8.441088 -1.924675 -0.3840466 8.441088 -1.924675 -0.3840466 26.36826 -27.03653 -0.3840466 3.836001 -21.78444 -0.3840466 13.70407 -4.222485 2.615953 10.74364 -1.76054 2.615953 8.441088 -1.924675 2.615953 6.631943 -4.386632 2.615953 5.316197 -3.237722 2.615953 0.3821548 -3.565986 2.615953 0.3821548 -3.565986 2.615953 -4.551895 -9.802932 2.615953 -3.729558 -15.71162 2.615953 3.836001 -21.78444 2.615953 0.5466258 -26.05183 2.615953 17.48699 -39.51047 2.615953 20.61189 -35.73546 2.615953 22.25659 -37.04849 2.615953 28.67084 -29.00607 2.615953 26.36826 -27.03653 2.615953 33.44035 -17.84518 2.615953 25.87476 -11.77242 2.615953 25.87476 -11.77242 2.615953 16.82897 -4.550734 2.615953 15.01983 -7.012694 2.615953 13.53961 -5.699657 2.615953 13.70407 -4.222485 2.615953 8.441088 -1.924675 2.615953 6.631943 -4.386632 2.615953 0.3821548 -3.565986 2.615953 -3.729558 -15.71162 2.615953 3.836001 -21.78444 2.615953 17.48699 -39.51047 2.615953 20.61189 -35.73546 2.615953 20.61189 -35.73546 2.615953 28.67084 -29.00607 2.615953 26.36826 -27.03653 2.615953 26.36826 -27.03653 2.615953 25.87476 -11.77242 2.615953 15.01983 -7.012694 2.615953 15.01983 -7.012694 2.615953 13.53961 -5.699657 2.615953 8.441088 -1.924675 2.615953 6.631943 -4.386632 2.615953 -3.729558 -15.71162 2.615953 3.836001 -21.78444 2.615953 3.836001 -21.78444 2.615953 20.61189 -35.73546 2.615953 26.36826 -27.03653 2.615953 26.36826 -27.03653 2.615953 15.01983 -7.012694 2.615953 8.441088 -1.924675 2.615953 8.441088 -1.924675 2.615953 6.631943 -4.386632 2.615953 3.836001 -21.78444 2.615953 3.836001 -21.78444 2.615953 26.36826 -27.03653 2.615953 8.441088 -1.924675 2.615953 13.70407 -4.222485 2.615953 13.53961 -5.699657 2.615953 13.70407 -4.222485 -0.3840466 13.70407 -4.222485 -0.3840466 13.53961 -5.699657 2.615953 13.53961 -5.699657 -0.3840466 13.53961 -5.699657 2.615953 15.01983 -7.012694 2.615953 13.53961 -5.699657 -0.3840466 13.53961 -5.699657 -0.3840466 15.01983 -7.012694 2.615953 15.01983 -7.012694 -0.3840466 15.01983 -7.012694 2.615953 16.82897 -4.550734 2.615953 15.01983 -7.012694 -0.3840466 15.01983 -7.012694 -0.3840466 16.82897 -4.550734 2.615953 16.82897 -4.550734 -0.3840466 16.82897 -4.550734 2.615953 25.87476 -11.77242 2.615953 16.82897 -4.550734 -0.3840466 16.82897 -4.550734 -0.3840466 25.87476 -11.77242 2.615953 25.87476 -11.77242 -0.3840466 25.87476 -11.77242 2.615953 33.44035 -17.84518 2.615953 25.87476 -11.77242 -0.3840466 25.87476 -11.77242 -0.3840466 33.44035 -17.84518 2.615953 33.44035 -17.84518 -0.3840466 33.44035 -17.84518 2.615953 26.36826 -27.03653 2.615953 33.44035 -17.84518 -0.3840466 33.44035 -17.84518 -0.3840466 26.36826 -27.03653 2.615953 26.36826 -27.03653 -0.3840466 26.36826 -27.03653 2.615953 28.67084 -29.00607 2.615953 26.36826 -27.03653 -0.3840466 26.36826 -27.03653 -0.3840466 28.67084 -29.00607 2.615953 28.67084 -29.00607 -0.3840466 28.67084 -29.00607 2.615953 22.25659 -37.04849 2.615953 28.67084 -29.00607 -0.3840466 28.67084 -29.00607 -0.3840466 22.25659 -37.04849 2.615953 22.25659 -37.04849 -0.3840466 22.25659 -37.04849 2.615953 20.61189 -35.73546 2.615953 22.25659 -37.04849 -0.3840466 22.25659 -37.04849 -0.3840466 20.61189 -35.73546 2.615953 20.61189 -35.73546 -0.3840466 20.61189 -35.73546 2.615953 17.48699 -39.51047 2.615953 20.61189 -35.73546 -0.3840466 20.61189 -35.73546 -0.3840466 17.48699 -39.51047 2.615953 17.48699 -39.51047 -0.3840466 17.48699 -39.51047 2.615953 0.5466258 -26.05183 2.615953 17.48699 -39.51047 -0.3840466 17.48699 -39.51047 -0.3840466 0.5466258 -26.05183 2.615953 0.5466258 -26.05183 -0.3840466 0.5466258 -26.05183 2.615953 3.836001 -21.78444 2.615953 0.5466258 -26.05183 -0.3840466 0.5466258 -26.05183 -0.3840466 3.836001 -21.78444 2.615953 3.836001 -21.78444 -0.3840466 3.836001 -21.78444 2.615953 -3.729558 -15.71162 2.615953 3.836001 -21.78444 -0.3840466 3.836001 -21.78444 -0.3840466 -3.729558 -15.71162 2.615953 -3.729558 -15.71162 -0.3840466 -3.729558 -15.71162 2.615953 -4.551895 -9.802932 2.615953 -3.729558 -15.71162 -0.3840466 -3.729558 -15.71162 -0.3840466 -4.551895 -9.802932 2.615953 -4.551895 -9.802932 -0.3840466 -4.551895 -9.802932 2.615953 0.3821548 -3.565986 2.615953 -4.551895 -9.802932 -0.3840466 -4.551895 -9.802932 -0.3840466 0.3821548 -3.565986 2.615953 0.3821548 -3.565986 -0.3840466 0.3821548 -3.565986 2.615953 5.316197 -3.237722 2.615953 0.3821548 -3.565986 -0.3840466 0.3821548 -3.565986 -0.3840466 5.316197 -3.237722 2.615953 5.316197 -3.237722 -0.3840466 5.316197 -3.237722 2.615953 6.631943 -4.386632 2.615953 5.316197 -3.237722 -0.3840466 5.316197 -3.237722 -0.3840466 6.631943 -4.386632 2.615953 6.631943 -4.386632 -0.3840466 6.631943 -4.386632 2.615953 8.441088 -1.924675 2.615953 6.631943 -4.386632 -0.3840466 6.631943 -4.386632 -0.3840466 8.441088 -1.924675 2.615953 8.441088 -1.924675 -0.3840466 10.74364 -1.76054 2.615953 13.70407 -4.222485 2.615953 10.74364 -1.76054 -0.3840466 10.74364 -1.76054 -0.3840466 13.70407 -4.222485 2.615953 13.70407 -4.222485 -0.3840466 8.441088 -1.924675 2.615953 10.74364 -1.76054 2.615953 8.441088 -1.924675 -0.3840466 8.441088 -1.924675 -0.3840466 10.74364 -1.76054 2.615953 10.74364 -1.76054 -0.3840466</float_array>
          <technique_common>
            <accessor count="1440" source="#verts-array-array" stride="3">
              <param type="float" name="X" />
              <param type="float" name="Y" />
              <param type="float" name="Z" />
            </accessor>
          </technique_common>
        </source>
        <source id="normals-array">
          <float_array count="4320" id="normals-array-array">0 0 -1 0 0 -1 0 0 -1 0 0 -1 0 0 -1 0 0 -1 0 0 1 0 0 1 0 0 1 0 0 1 0 0 1 0 0 1 0.4663668 -0.8845914 0 0.4663668 -0.8845914 0 0.4663668 -0.8845914 0 0.4663668 -0.8845914 0 0.4663668 -0.8845914 0 0.4663668 -0.8845914 0 -0.875801 -0.4826724 0 -0.875801 -0.4826724 0 -0.875801 -0.4826724 0 -0.875801 -0.4826724 0 -0.875801 -0.4826724 0 -0.875801 -0.4826724 0 0.8850071 0.4655775 0 0.8850071 0.4655775 0 0.8850071 0.4655775 0 0.8850071 0.4655775 0 0.8850071 0.4655775 0 0.8850071 0.4655775 0 -0.4595677 0.8881427 0 -0.4595677 0.8881427 0 -0.4595677 0.8881427 0 -0.4595677 0.8881427 0 -0.4595677 0.8881427 0 -0.4595677 0.8881427 0 0 0 -1 0 0 -1 0 0 -1 0 0 -1 0 0 -1 0 0 -1 0 0 -1 0 0 -1 0 0 -1 0 0 1 0 0 1 0 0 1 0 0 1 0 0 1 0 0 1 0 0 1 0 0 1 0 0 1 0.4684121 -0.8835101 0 0.4684121 -0.8835101 0 0.4684121 -0.8835101 0 0.4684121 -0.8835101 0 0.4684121 -0.8835101 0 0.4684121 -0.8835101 0 0.4763405 -0.8792609 0 0.4763405 -0.8792609 0 0.4763405 -0.8792609 0 0.4763405 -0.8792609 0 0.4763405 -0.8792609 0 0.4763405 -0.8792609 0 -0.8794444 -0.4760017 0 -0.8794444 -0.4760017 0 -0.8794444 -0.4760017 0 -0.8794444 -0.4760017 0 -0.8794444 -0.4760017 0 -0.8794444 -0.4760017 0 0.8808847 0.473331 0 0.8808847 0.473331 0 0.8808847 0.473331 0 0.8808847 0.473331 0 0.8808847 0.473331 0 0.8808847 0.473331 0 -0.4776415 0.8785548 0 -0.4776415 0.8785548 0 -0.4776415 0.8785548 0 -0.4776415 0.8785548 0 -0.4776415 0.8785548 0 -0.4776415 0.8785548 0 0 0 -1 0 0 -1 0 0 -1 0 0 -1 0 0 -1 0 0 -1 0 0 -1 0 0 -1 0 0 -1 0 0 -1 0 0 -1 0 0 -1 0 0 1 0 0 1 0 0 1 0 0 1 0 0 1 0 0 1 0 0 1 0 0 1 0 0 1 0 0 1 0 0 1 0 0 1 0.7786788 -0.6274227 0 0.7786788 -0.6274227 0 0.7786788 -0.6274227 0 0.7786788 -0.6274227 0 0.7786788 -0.6274227 0 0.7786788 -0.6274227 0 -0.6155127 -0.7881269 0 -0.6155127 -0.7881269 0 -0.6155127 -0.7881269 0 -0.6155127 -0.7881269 0 -0.6155127 -0.7881269 0 -0.6155127 -0.7881269 0 0.78128 -0.6241807 0 0.78128 -0.6241807 0 0.78128 -0.6241807 0 0.78128 -0.6241807 0 0.78128 -0.6241807 0 0.78128 -0.6241807 0 -0.6301262 -0.7764927 0 -0.6301262 -0.7764927 0 -0.6301262 -0.7764927 0 -0.6301262 -0.7764927 0 -0.6301262 -0.7764927 0 -0.6301262 -0.7764927 0 0.6366377 0.7711631 0 0.6366377 0.7711631 0 0.6366377 0.7711631 0 0.6366377 0.7711631 0 0.6366377 0.7711631 0 0.6366377 0.7711631 0 -0.7690654 0.6391701 0 -0.7690654 0.6391701 0 -0.7690654 0.6391701 0 -0.7690654 0.6391701 0 -0.7690654 0.6391701 0 -0.7690654 0.6391701 0 0 0 -1 0 0 -1 0 0 -1 0 0 -1 0 0 -1 0 0 -1 0 0 -1 0 0 -1 0 0 -1 0 0 -1 0 0 -1 0 0 -1 0 0 -1 0 0 -1 0 0 -1 0 0 -1 0 0 -1 0 0 -1 0 0 -1 0 0 -1 0 0 -1 0 0 1 0 0 1 0 0 1 0 0 1 0 0 1 0 0 1 0 0 1 0 0 1 0 0 1 0 0 1 0 0 1 0 0 1 0 0 1 0 0 1 0 0 1 0 0 1 0 0 1 0 0 1 0 0 1 0 0 1 0 0 1 0.7878798 -0.6158291 0 0.7878798 -0.6158291 0 0.7878798 -0.6158291 0 0.7878798 -0.6158291 0 0.7878798 -0.6158291 0 0.7878798 -0.6158291 0 0.6394105 0.7688656 0 0.6394105 0.7688656 0 0.6394105 0.7688656 0 0.6394105 0.7688656 0 0.6394105 0.7688656 0 0.6394105 0.7688656 0 0.799398 -0.6008018 0 0.799398 -0.6008018 0 0.799398 -0.6008018 0 0.799398 -0.6008018 0 0.799398 -0.6008018 0 0.799398 -0.6008018 0 -0.6500229 -0.7599146 0 -0.6500229 -0.7599146 0 -0.6500229 -0.7599146 0 -0.6500229 -0.7599146 0 -0.6500229 -0.7599146 0 -0.6500229 -0.7599146 0 0.7585843 -0.6515749 0 0.7585843 -0.6515749 0 0.7585843 -0.6515749 0 0.7585843 -0.6515749 0 0.7585843 -0.6515749 0 0.7585843 -0.6515749 0 -0.6424205 -0.7663523 0 -0.6424205 -0.7663523 0 -0.6424205 -0.7663523 0 -0.6424205 -0.7663523 0 -0.6424205 -0.7663523 0 -0.6424205 -0.7663523 0 -0.8093727 -0.5872954 0 -0.8093727 -0.5872954 0 -0.8093727 -0.5872954 0 -0.8093727 -0.5872954 0 -0.8093727 -0.5872954 0 -0.8093727 -0.5872954 0 0.8882381 0.4593834 0 0.8882381 0.4593834 0 0.8882381 0.4593834 0 0.8882381 0.4593834 0 0.8882381 0.4593834 0 0.8882381 0.4593834 0 -0.5079415 0.8613916 0 -0.5079415 0.8613916 0 -0.5079415 0.8613916 0 -0.5079415 0.8613916 0 -0.5079415 0.8613916 0 -0.5079415 0.8613916 0 0 0 -1 0 0 -1 0 0 -1 0 0 -1 0 0 -1 0 0 -1 0 0 -1 0 0 -1 0 0 -1 0 0 -1 0 0 -1 0 0 -1 0 0 -1 0 0 -1 0 0 -1 0 0 -1 0 0 -1 0 0 -1 0 0 1 0 0 1 0 0 1 0 0 1 0 0 1 0 0 1 0 0 1 0 0 1 0 0 1 0 0 1 0 0 1 0 0 1 0 0 1 0 0 1 0 0 1 0 0 1 0 0 1 0 0 1 0.4912826 -0.8710002 0 0.4912826 -0.8710002 0 0.4912826 -0.8710002 0 0.4912826 -0.8710002 0 0.4912826 -0.8710002 0 0.4912826 -0.8710002 0 0.8774844 0.4796052 0 0.8774844 0.4796052 0 0.8774844 0.4796052 0 0.8774844 0.4796052 0 0.8774844 0.4796052 0 0.8774844 0.4796052 0 0.4821638 -0.8760811 0 0.4821638 -0.8760811 0 0.4821638 -0.8760811 0 0.4821638 -0.8760811 0 0.4821638 -0.8760811 0 0.4821638 -0.8760811 0 -0.8758032 -0.4826683 0 -0.8758032 -0.4826683 0 -0.8758032 -0.4826683 0 -0.8758032 -0.4826683 0 -0.8758032 -0.4826683 0 -0.8758032 -0.4826683 0 -0.4780811 0.8783157 0 -0.4780811 0.8783157 0 -0.4780811 0.8783157 0 -0.4780811 0.8783157 0 -0.4780811 0.8783157 0 -0.4780811 0.8783157 0 0.8570305 0.5152657 0 0.8570305 0.5152657 0 0.8570305 0.5152657 0 0.8570305 0.5152657 0 0.8570305 0.5152657 0 0.8570305 0.5152657 0 0.8751606 0.4838326 0 0.8751606 0.4838326 0 0.8751606 0.4838326 0 0.8751606 0.4838326 0 0.8751606 0.4838326 0 0.8751606 0.4838326 0 -0.4912824 0.8710004 0 -0.4912824 0.8710004 0 -0.4912824 0.8710004 0 -0.4912824 0.8710004 0 -0.4912824 0.8710004 0 -0.4912824 0.8710004 0 0 0 -1 0 0 -1 0 0 -1 0 0 -1 0 0 -1 0 0 -1 0 0 -1 0 0 -1 0 0 -1 0 0 -1 0 0 -1 0 0 -1 0 0 -1 0 0 -1 0 0 -1 0 0 -1 0 0 -1 0 0 -1 0 0 1 0 0 1 0 0 1 0 0 1 0 0 1 0 0 1 0 0 1 0 0 1 0 0 1 0 0 1 0 0 1 0 0 1 0 0 1 0 0 1 0 0 1 0 0 1 0 0 1 0 0 1 0.4755174 -0.8797063 0 0.4755174 -0.8797063 0 0.4755174 -0.8797063 0 0.4755174 -0.8797063 0 0.4755174 -0.8797063 0 0.4755174 -0.8797063 0 0.8431678 0.5376505 0 0.8431678 0.5376505 0 0.8431678 0.5376505 0 0.8431678 0.5376505 0 0.8431678 0.5376505 0 0.8431678 0.5376505 0 0.4821632 -0.8760814 0 0.4821632 -0.8760814 0 0.4821632 -0.8760814 0 0.4821632 -0.8760814 0 0.4821632 -0.8760814 0 0.4821632 -0.8760814 0 -0.8779159 -0.4788149 0 -0.8779159 -0.4788149 0 -0.8779159 -0.4788149 0 -0.8779159 -0.4788149 0 -0.8779159 -0.4788149 0 -0.8779159 -0.4788149 0 -0.4780805 0.878316 0 -0.4780805 0.878316 0 -0.4780805 0.878316 0 -0.4780805 0.878316 0 -0.4780805 0.878316 0 -0.4780805 0.878316 0 0.8940657 0.4479359 0 0.8940657 0.4479359 0 0.8940657 0.4479359 0 0.8940657 0.4479359 0 0.8940657 0.4479359 0 0.8940657 0.4479359 0 0.8780774 0.4785186 0 0.8780774 0.4785186 0 0.8780774 0.4785186 0 0.8780774 0.4785186 0 0.8780774 0.4785186 0 0.8780774 0.4785186 0 -0.4755172 0.8797064 0 -0.4755172 0.8797064 0 -0.4755172 0.8797064 0 -0.4755172 0.8797064 0 -0.4755172 0.8797064 0 -0.4755172 0.8797064 0 0 0 -1 0 0 -1 0 0 -1 0 0 -1 0 0 -1 0 0 -1 0 0 -1 0 0 -1 0 0 -1 0 0 -1 0 0 -1 0 0 -1 0 0 -1 0 0 -1 0 0 -1 0 0 -1 0 0 -1 0 0 -1 0 0 -1 0 0 -1 0 0 -1 0 0 -1 0 0 -1 0 0 -1 0 0 1 0 0 1 0 0 1 0 0 1 0 0 1 0 0 1 0 0 1 0 0 1 0 0 1 0 0 1 0 0 1 0 0 1 0 0 1 0 0 1 0 0 1 0 0 1 0 0 1 0 0 1 0 0 1 0 0 1 0 0 1 0 0 1 0 0 1 0 0 1 0.8726601 0.488328 0 0.8726601 0.488328 0 0.8726601 0.488328 0 0.8726601 0.488328 0 0.8726601 0.488328 0 0.8726601 0.488328 0 0.9567144 -0.2910286 0 0.9567144 -0.2910286 0 0.9567144 -0.2910286 0 0.9567144 -0.2910286 0 0.9567144 -0.2910286 0 0.9567144 -0.2910286 0 0.4811579 -0.876634 0 0.4811579 -0.876634 0 0.4811579 -0.876634 0 0.4811579 -0.876634 0 0.4811579 -0.876634 0 0.4811579 -0.876634 0 -0.278804 -0.960348 0 -0.278804 -0.960348 0 -0.278804 -0.960348 0 -0.278804 -0.960348 0 -0.278804 -0.960348 0 -0.278804 -0.960348 0 -0.9135034 -0.4068311 0 -0.9135034 -0.4068311 0 -0.9135034 -0.4068311 0 -0.9135034 -0.4068311 0 -0.9135034 -0.4068311 0 -0.9135034 -0.4068311 0 -0.8850071 -0.4655775 0 -0.8850071 -0.4655775 0 -0.8850071 -0.4655775 0 -0.8850071 -0.4655775 0 -0.8850071 -0.4655775 0 -0.8850071 -0.4655775 0 -0.9252765 -0.3792933 0 -0.9252765 -0.3792933 0 -0.9252765 -0.3792933 0 -0.9252765 -0.3792933 0 -0.9252765 -0.3792933 0 -0.9252765 -0.3792933 0 -0.9613735 0.275247 0 -0.9613735 0.275247 0 -0.9613735 0.275247 0 -0.9613735 0.275247 0 -0.9613735 0.275247 0 -0.9613735 0.275247 0 0.220399 0.9754098 0 0.220399 0.9754098 0 0.220399 0.9754098 0 0.220399 0.9754098 0 0.220399 0.9754098 0 0.220399 0.9754098 0 -0.4811573 0.8766343 0 -0.4811573 0.8766343 0 -0.4811573 0.8766343 0 -0.4811573 0.8766343 0 -0.4811573 0.8766343 0 -0.4811573 0.8766343 0 0 0 -1 0 0 -1 0 0 -1 0 0 -1 0 0 -1 0 0 -1 0 0 -1 0 0 -1 0 0 -1 0 0 -1 0 0 -1 0 0 -1 0 0 -1 0 0 -1 0 0 -1 0 0 -1 0 0 -1 0 0 -1 0 0 1 0 0 1 0 0 1 0 0 1 0 0 1 0 0 1 0 0 1 0 0 1 0 0 1 0 0 1 0 0 1 0 0 1 0 0 1 0 0 1 0 0 1 0 0 1 0 0 1 0 0 1 0.7685579 -0.6397802 0 0.7685579 -0.6397802 0 0.7685579 -0.6397802 0 0.7685579 -0.6397802 0 0.7685579 -0.6397802 0 0.7685579 -0.6397802 0 -0.6334367 -0.7737945 0 -0.6334367 -0.7737945 0 -0.6334367 -0.7737945 0 -0.6334367 -0.7737945 0 -0.6334367 -0.7737945 0 -0.6334367 -0.7737945 0 0.7693869 -0.6387831 0 0.7693869 -0.6387831 0 0.7693869 -0.6387831 0 0.7693869 -0.6387831 0 0.7693869 -0.6387831 0 0.7693869 -0.6387831 0 -0.6324545 -0.7745975 0 -0.6324545 -0.7745975 0 -0.6324545 -0.7745975 0 -0.6324545 -0.7745975 0 -0.6324545 -0.7745975 0 -0.6324545 -0.7745975 0 -0.7627404 0.6467048 0 -0.7627404 0.6467048 0 -0.7627404 0.6467048 0 -0.7627404 0.6467048 0 -0.7627404 0.6467048 0 -0.7627404 0.6467048 0 -0.6324571 -0.7745954 0 -0.6324571 -0.7745954 0 -0.6324571 -0.7745954 0 -0.6324571 -0.7745954 0 -0.6324571 -0.7745954 0 -0.6324571 -0.7745954 0 0.6360238 0.7716694 0 0.6360238 0.7716694 0 0.6360238 0.7716694 0 0.6360238 0.7716694 0 0.6360238 0.7716694 0 0.6360238 0.7716694 0 -0.7716582 0.6360374 0 -0.7716582 0.6360374 0 -0.7716582 0.6360374 0 -0.7716582 0.6360374 0 -0.7716582 0.6360374 0 -0.7716582 0.6360374 0 0 0 -1 0 0 -1 0 0 -1 0 0 -1 0 0 -1 0 0 -1 0 0 -1 0 0 -1 0 0 -1 0 0 -1 0 0 -1 0 0 -1 0 0 -1 0 0 -1 0 0 -1 0 0 -1 0 0 -1 0 0 -1 0 0 -1 0 0 -1 0 0 -1 0 0 -1 0 0 -1 0 0 -1 0 0 1 0 0 1 0 0 1 0 0 1 0 0 1 0 0 1 0 0 1 0 0 1 0 0 1 0 0 1 0 0 1 0 0 1 0 0 1 0 0 1 0 0 1 0 0 1 0 0 1 0 0 1 0 0 1 0 0 1 0 0 1 0 0 1 0 0 1 0 0 1 0.7887376 -0.61473 0 0.7887376 -0.61473 0 0.7887376 -0.61473 0 0.7887376 -0.61473 0 0.7887376 -0.61473 0 0.7887376 -0.61473 0 0.6131471 0.7899688 0 0.6131471 0.7899688 0 0.6131471 0.7899688 0 0.6131471 0.7899688 0 0.6131471 0.7899688 0 0.6131471 0.7899688 0 0.7838499 -0.6209503 0 0.7838499 -0.6209503 0 0.7838499 -0.6209503 0 0.7838499 -0.6209503 0 0.7838499 -0.6209503 0 0.7838499 -0.6209503 0 -0.622991 -0.782229 0 -0.622991 -0.782229 0 -0.622991 -0.782229 0 -0.622991 -0.782229 0 -0.622991 -0.782229 0 -0.622991 -0.782229 0 -0.7802335 0.6254884 0 -0.7802335 0.6254884 0 -0.7802335 0.6254884 0 -0.7802335 0.6254884 0 -0.7802335 0.6254884 0 -0.7802335 0.6254884 0 0.6298092 0.7767499 0 0.6298092 0.7767499 0 0.6298092 0.7767499 0 0.6298092 0.7767499 0 0.6298092 0.7767499 0 0.6298092 0.7767499 0 -0.7789323 0.627108 0 -0.7789323 0.627108 0 -0.7789323 0.627108 0 -0.7789323 0.627108 0 -0.7789323 0.627108 0 -0.7789323 0.627108 0 0.5873764 0.8093139 0 0.5873764 0.8093139 0 0.5873764 0.8093139 0 0.5873764 0.8093139 0 0.5873764 0.8093139 0 0.5873764 0.8093139 0 0.6257685 0.7800088 0 0.6257685 0.7800088 0 0.6257685 0.7800088 0 0.6257685 0.7800088 0 0.6257685 0.7800088 0 0.6257685 0.7800088 0 -0.7887369 0.6147309 0 -0.7887369 0.6147309 0 -0.7887369 0.6147309 0 -0.7887369 0.6147309 0 -0.7887369 0.6147309 0 -0.7887369 0.6147309 0 0 0 -1 0 0 -1 0 0 -1 0 0 -1 0 0 -1 0 0 -1 0 0 -1 0 0 -1 0 0 -1 0 0 -1 0 0 -1 0 0 -1 0 0 -1 0 0 -1 0 0 -1 0 0 -1 0 0 -1 0 0 -1 0 0 -1 0 0 -1 0 0 -1 0 0 -1 0 0 -1 0 0 -1 0 0 1 0 0 1 0 0 1 0 0 1 0 0 1 0 0 1 0 0 1 0 0 1 0 0 1 0 0 1 0 0 1 0 0 1 0 0 1 0 0 1 0 0 1 0 0 1 0 0 1 0 0 1 0 0 1 0 0 1 0 0 1 0 0 1 0 0 1 0 0 1 -0.7586109 0.6515439 0 -0.7586109 0.6515439 0 -0.7586109 0.6515439 0 -0.7586109 0.6515439 0 -0.7586109 0.6515439 0 -0.7586109 0.6515439 0 0.6214444 0.7834583 0 0.6214444 0.7834583 0 0.6214444 0.7834583 0 0.6214444 0.7834583 0 0.6214444 0.7834583 0 0.6214444 0.7834583 0 0.7725235 -0.6349861 0 0.7725235 -0.6349861 0 0.7725235 -0.6349861 0 0.7725235 -0.6349861 0 0.7725235 -0.6349861 0 0.7725235 -0.6349861 0 0.650005 0.7599299 0 0.650005 0.7599299 0 0.650005 0.7599299 0 0.650005 0.7599299 0 0.650005 0.7599299 0 0.650005 0.7599299 0 0.7754898 -0.6313602 0 0.7754898 -0.6313602 0 0.7754898 -0.6313602 0 0.7754898 -0.6313602 0 0.7754898 -0.6313602 0 0.7754898 -0.6313602 0 -0.6238978 -0.7815059 0 -0.6238978 -0.7815059 0 -0.6238978 -0.7815059 0 -0.6238978 -0.7815059 0 -0.6238978 -0.7815059 0 -0.6238978 -0.7815059 0 0.7754878 -0.6313626 0 0.7754878 -0.6313626 0 0.7754878 -0.6313626 0 0.7754878 -0.6313626 0 0.7754878 -0.6313626 0 0.7754878 -0.6313626 0 -0.634916 -0.7725812 0 -0.634916 -0.7725812 0 -0.634916 -0.7725812 0 -0.634916 -0.7725812 0 -0.634916 -0.7725812 0 -0.634916 -0.7725812 0 0.618845 0.7855131 0 0.618845 0.7855131 0 0.618845 0.7855131 0 0.618845 0.7855131 0 0.618845 0.7855131 0 0.618845 0.7855131 0 -0.7760385 0.6306856 0 -0.7760385 0.6306856 0 -0.7760385 0.6306856 0 -0.7760385 0.6306856 0 -0.7760385 0.6306856 0 -0.7760385 0.6306856 0 0 0 -1 0 0 -1 0 0 -1 0 0 -1 0 0 -1 0 0 -1 0 0 -1 0 0 -1 0 0 -1 0 0 -1 0 0 -1 0 0 -1 0 0 -1 0 0 -1 0 0 -1 0 0 -1 0 0 -1 0 0 -1 0 0 -1 0 0 -1 0 0 -1 0 0 -1 0 0 -1 0 0 -1 0 0 -1 0 0 -1 0 0 -1 0 0 1 0 0 1 0 0 1 0 0 1 0 0 1 0 0 1 0 0 1 0 0 1 0 0 1 0 0 1 0 0 1 0 0 1 0 0 1 0 0 1 0 0 1 0 0 1 0 0 1 0 0 1 0 0 1 0 0 1 0 0 1 0 0 1 0 0 1 0 0 1 0 0 1 0 0 1 0 0 1 0.875801 0.4826724 0 0.875801 0.4826724 0 0.875801 0.4826724 0 0.875801 0.4826724 0 0.875801 0.4826724 0 0.875801 0.4826724 0 0.8716502 0.4901286 0 0.8716502 0.4901286 0 0.8716502 0.4901286 0 0.8716502 0.4901286 0 0.8716502 0.4901286 0 0.8716502 0.4901286 0 0.640436 -0.7680115 0 0.640436 -0.7680115 0 0.640436 -0.7680115 0 0.640436 -0.7680115 0 0.640436 -0.7680115 0 0.640436 -0.7680115 0 -0.8786229 -0.4775162 0 -0.8786229 -0.4775162 0 -0.8786229 -0.4775162 0 -0.8786229 -0.4775162 0 -0.8786229 -0.4775162 0 -0.8786229 -0.4775162 0 -0.8751606 -0.4838326 0 -0.8751606 -0.4838326 0 -0.8751606 -0.4838326 0 -0.8751606 -0.4838326 0 -0.8751606 -0.4838326 0 -0.8751606 -0.4838326 0 -0.8774861 -0.4796021 0 -0.8774861 -0.4796021 0 -0.8774861 -0.4796021 0 -0.8774861 -0.4796021 0 -0.8774861 -0.4796021 0 -0.8774861 -0.4796021 0 -0.8780774 -0.4785186 0 -0.8780774 -0.4785186 0 -0.8780774 -0.4785186 0 -0.8780774 -0.4785186 0 -0.8780774 -0.4785186 0 -0.8780774 -0.4785186 0 -0.8678105 -0.4968954 0 -0.8678105 -0.4968954 0 -0.8678105 -0.4968954 0 -0.8678105 -0.4968954 0 -0.8678105 -0.4968954 0 -0.8678105 -0.4968954 0 -0.4882338 0.8727129 0 -0.4882338 0.8727129 0 -0.4882338 0.8727129 0 -0.4882338 0.8727129 0 -0.4882338 0.8727129 0 -0.4882338 0.8727129 0 0.8861992 0.4633044 0 0.8861992 0.4633044 0 0.8861992 0.4633044 0 0.8861992 0.4633044 0 0.8861992 0.4633044 0 0.8861992 0.4633044 0 -0.4464725 0.8947973 0 -0.4464725 0.8947973 0 -0.4464725 0.8947973 0 -0.4464725 0.8947973 0 -0.4464725 0.8947973 0 -0.4464725 0.8947973 0 0 0 -1 0 0 -1 0 0 -1 0 0 -1 0 0 -1 0 0 -1 0 0 -1 0 0 -1 0 0 -1 0 0 -1 0 0 -1 0 0 -1 0 0 -1 0 0 -1 0 0 -1 0 0 -1 0 0 -1 0 0 -1 0 0 -1 0 0 -1 0 0 -1 0 0 -1 0 0 -1 0 0 -1 0 0 -1 0 0 -1 0 0 -1 0 0 -1 0 0 -1 0 0 -1 0 0 -1 0 0 -1 0 0 -1 0 0 1 0 0 1 0 0 1 0 0 1 0 0 1 0 0 1 0 0 1 0 0 1 0 0 1 0 0 1 0 0 1 0 0 1 0 0 1 0 0 1 0 0 1 0 0 1 0 0 1 0 0 1 0 0 1 0 0 1 0 0 1 0 0 1 0 0 1 0 0 1 0 0 1 0 0 1 0 0 1 0 0 1 0 0 1 0 0 1 0 0 1 0 0 1 0 0 1 0.7887356 -0.6147326 0 0.7887356 -0.6147326 0 0.7887356 -0.6147326 0 0.7887356 -0.6147326 0 0.7887356 -0.6147326 0 0.7887356 -0.6147326 0 0.6239107 0.7814956 0 0.6239107 0.7814956 0 0.6239107 0.7814956 0 0.6239107 0.7814956 0 0.6239107 0.7814956 0 0.6239107 0.7814956 0 0.7789313 -0.6271093 0 0.7789313 -0.6271093 0 0.7789313 -0.6271093 0 0.7789313 -0.6271093 0 0.7789313 -0.6271093 0 0.7789313 -0.6271093 0 0.621097 0.7837337 0 0.621097 0.7837337 0 0.621097 0.7837337 0 0.621097 0.7837337 0 0.621097 0.7837337 0 0.621097 0.7837337 0 0.7802335 -0.6254884 0 0.7802335 -0.6254884 0 0.7802335 -0.6254884 0 0.7802335 -0.6254884 0 0.7802335 -0.6254884 0 0.7802335 -0.6254884 0 -0.6202981 -0.7843662 0 -0.6202981 -0.7843662 0 -0.6202981 -0.7843662 0 -0.6202981 -0.7843662 0 -0.6202981 -0.7843662 0 -0.6202981 -0.7843662 0 -0.7856907 0.6186195 0 -0.7856907 0.6186195 0 -0.7856907 0.6186195 0 -0.7856907 0.6186195 0 -0.7856907 0.6186195 0 -0.7856907 0.6186195 0 -0.799398 0.6008018 0 -0.799398 0.6008018 0 -0.799398 0.6008018 0 -0.799398 0.6008018 0 -0.799398 0.6008018 0 -0.799398 0.6008018 0 -0.77547 0.6313844 0 -0.77547 0.6313844 0 -0.77547 0.6313844 0 -0.77547 0.6313844 0 -0.77547 0.6313844 0 -0.77547 0.6313844 0 -0.7782538 0.6279498 0 -0.7782538 0.6279498 0 -0.7782538 0.6279498 0 -0.7782538 0.6279498 0 -0.7782538 0.6279498 0 -0.7782538 0.6279498 0 0.599212 0.8005904 0 0.599212 0.8005904 0 0.599212 0.8005904 0 0.599212 0.8005904 0 0.599212 0.8005904 0 0.599212 0.8005904 0 0.6239118 0.7814948 0 0.6239118 0.7814948 0 0.6239118 0.7814948 0 0.6239118 0.7814948 0 0.6239118 0.7814948 0 0.6239118 0.7814948 0 -0.7887349 0.6147335 0 -0.7887349 0.6147335 0 -0.7887349 0.6147335 0 -0.7887349 0.6147335 0 -0.7887349 0.6147335 0 -0.7887349 0.6147335 0 0 0 -1 0 0 -1 0 0 -1 0 0 -1 0 0 -1 0 0 -1 0 0 -1 0 0 -1 0 0 -1 0 0 -1 0 0 -1 0 0 -1 0 0 -1 0 0 -1 0 0 -1 0 0 -1 0 0 -1 0 0 -1 0 0 -1 0 0 -1 0 0 -1 0 0 -1 0 0 -1 0 0 -1 0 0 -1 0 0 -1 0 0 -1 0 0 -1 0 0 -1 0 0 -1 0 0 1 0 0 1 0 0 1 0 0 1 0 0 1 0 0 1 0 0 1 0 0 1 0 0 1 0 0 1 0 0 1 0 0 1 0 0 1 0 0 1 0 0 1 0 0 1 0 0 1 0 0 1 0 0 1 0 0 1 0 0 1 0 0 1 0 0 1 0 0 1 0 0 1 0 0 1 0 0 1 0 0 1 0 0 1 0 0 1 0.6220523 0.7829757 0 0.6220523 0.7829757 0 0.6220523 0.7829757 0 0.6220523 0.7829757 0 0.6220523 0.7829757 0 0.6220523 0.7829757 0 0.6257665 0.7800104 0 0.6257665 0.7800104 0 0.6257665 0.7800104 0 0.6257665 0.7800104 0 0.6257665 0.7800104 0 0.6257665 0.7800104 0 0.7994078 -0.6007888 0 0.7994078 -0.6007888 0 0.7994078 -0.6007888 0 0.7994078 -0.6007888 0 0.7994078 -0.6007888 0 0.7994078 -0.6007888 0 0.7789905 -0.6270358 0 0.7789905 -0.6270358 0 0.7789905 -0.6270358 0 0.7789905 -0.6270358 0 0.7789905 -0.6270358 0 0.7789905 -0.6270358 0 -0.6239042 -0.7815008 0 -0.6239042 -0.7815008 0 -0.6239042 -0.7815008 0 -0.6239042 -0.7815008 0 -0.6239042 -0.7815008 0 -0.6239042 -0.7815008 0 -0.6257685 -0.7800088 0 -0.6257685 -0.7800088 0 -0.6257685 -0.7800088 0 -0.6257685 -0.7800088 0 -0.6257685 -0.7800088 0 -0.6257685 -0.7800088 0 -0.6206075 -0.7841214 0 -0.6206075 -0.7841214 0 -0.6206075 -0.7841214 0 -0.6206075 -0.7841214 0 -0.6206075 -0.7841214 0 -0.6206075 -0.7841214 0 -0.6239118 -0.7814948 0 -0.6239118 -0.7814948 0 -0.6239118 -0.7814948 0 -0.6239118 -0.7814948 0 -0.6239118 -0.7814948 0 -0.6239118 -0.7814948 0 -0.6275568 -0.7785708 0 -0.6275568 -0.7785708 0 -0.6275568 -0.7785708 0 -0.6275568 -0.7785708 0 -0.6275568 -0.7785708 0 -0.6275568 -0.7785708 0 -0.6239143 -0.7814928 0 -0.6239143 -0.7814928 0 -0.6239143 -0.7814928 0 -0.6239143 -0.7814928 0 -0.6239143 -0.7814928 0 -0.6239143 -0.7814928 0 0.6239114 0.7814951 0 0.6239114 0.7814951 0 0.6239114 0.7814951 0 0.6239114 0.7814951 0 0.6239114 0.7814951 0 0.6239114 0.7814951 0 -0.640436 0.7680115 0 -0.640436 0.7680115 0 -0.640436 0.7680115 0 -0.640436 0.7680115 0 -0.640436 0.7680115 0 -0.640436 0.7680115 0 0 0 -1 0 0 -1 0 0 -1 0 0 -1 0 0 -1 0 0 -1 0 0 -1 0 0 -1 0 0 -1 0 0 -1 0 0 -1 0 0 -1 0 0 -1 0 0 -1 0 0 -1 0 0 -1 0 0 -1 0 0 -1 0 0 -1 0 0 -1 0 0 -1 0 0 -1 0 0 -1 0 0 -1 0 0 -1 0 0 -1 0 0 -1 0 0 -1 0 0 -1 0 0 -1 0 0 -1 0 0 -1 0 0 -1 0 0 -1 0 0 -1 0 0 -1 0 0 -1 0 0 -1 0 0 -1 0 0 -1 0 0 -1 0 0 -1 0 0 -1 0 0 -1 0 0 -1 0 0 -1 0 0 -1 0 0 -1 0 0 -1 0 0 -1 0 0 -1 0 0 -1 0 0 -1 0 0 -1 0 0 1 0 0 1 0 0 1 0 0 1 0 0 1 0 0 1 0 0 1 0 0 1 0 0 1 0 0 1 0 0 1 0 0 1 0 0 1 0 0 1 0 0 1 0 0 1 0 0 1 0 0 1 0 0 1 0 0 1 0 0 1 0 0 1 0 0 1 0 0 1 0 0 1 0 0 1 0 0 1 0 0 1 0 0 1 0 0 1 0 0 1 0 0 1 0 0 1 0 0 1 0 0 1 0 0 1 0 0 1 0 0 1 0 0 1 0 0 1 0 0 1 0 0 1 0 0 1 0 0 1 0 0 1 0 0 1 0 0 1 0 0 1 0 0 1 0 0 1 0 0 1 0 0 1 0 0 1 0 0 1 0.9938591 -0.1106529 0 0.9938591 -0.1106529 0 0.9938591 -0.1106529 0 0.9938591 -0.1106529 0 0.9938591 -0.1106529 0 0.9938591 -0.1106529 0 0.6635976 0.7480897 0 0.6635976 0.7480897 0 0.6635976 0.7480897 0 0.6635976 0.7480897 0 0.6635976 0.7480897 0 0.6635976 0.7480897 0 -0.8058266 0.5921516 0 -0.8058266 0.5921516 0 -0.8058266 0.5921516 0 -0.8058266 0.5921516 0 -0.8058266 0.5921516 0 -0.8058266 0.5921516 0 0.6239072 0.7814984 0 0.6239072 0.7814984 0 0.6239072 0.7814984 0 0.6239072 0.7814984 0 0.6239072 0.7814984 0 0.6239072 0.7814984 0 0.6259694 0.7798476 0 0.6259694 0.7798476 0 0.6259694 0.7798476 0 0.6259694 0.7798476 0 0.6259694 0.7798476 0 0.6259694 0.7798476 0 0.7925477 -0.6098099 0 0.7925477 -0.6098099 0 0.7925477 -0.6098099 0 0.7925477 -0.6098099 0 0.7925477 -0.6098099 0 0.7925477 -0.6098099 0 0.6500125 0.7599235 0 0.6500125 0.7599235 0 0.6500125 0.7599235 0 0.6500125 0.7599235 0 0.6500125 0.7599235 0 0.6500125 0.7599235 0 0.7818013 -0.6235276 0 0.7818013 -0.6235276 0 0.7818013 -0.6235276 0 0.7818013 -0.6235276 0 0.7818013 -0.6235276 0 0.7818013 -0.6235276 0 -0.6239046 -0.7815005 0 -0.6239046 -0.7815005 0 -0.6239046 -0.7815005 0 -0.6239046 -0.7815005 0 -0.6239046 -0.7815005 0 -0.6239046 -0.7815005 0 0.7703185 -0.6376593 0 0.7703185 -0.6376593 0 0.7703185 -0.6376593 0 0.7703185 -0.6376593 0 0.7703185 -0.6376593 0 0.7703185 -0.6376593 0 -0.6220523 -0.7829757 0 -0.6220523 -0.7829757 0 -0.6220523 -0.7829757 0 -0.6220523 -0.7829757 0 -0.6220523 -0.7829757 0 -0.6220523 -0.7829757 0 -0.7920164 0.6104998 0 -0.7920164 0.6104998 0 -0.7920164 0.6104998 0 -0.7920164 0.6104998 0 -0.7920164 0.6104998 0 -0.7920164 0.6104998 0 -0.6259746 -0.7798435 0 -0.6259746 -0.7798435 0 -0.6259746 -0.7798435 0 -0.6259746 -0.7798435 0 -0.6259746 -0.7798435 0 -0.6259746 -0.7798435 0 -0.9904537 -0.1378455 0 -0.9904537 -0.1378455 0 -0.9904537 -0.1378455 0 -0.9904537 -0.1378455 0 -0.9904537 -0.1378455 0 -0.9904537 -0.1378455 0 -0.784262 0.6204298 0 -0.784262 0.6204298 0 -0.784262 0.6204298 0 -0.784262 0.6204298 0 -0.784262 0.6204298 0 -0.784262 0.6204298 0 -0.06638365 0.9977942 0 -0.06638365 0.9977942 0 -0.06638365 0.9977942 0 -0.06638365 0.9977942 0 -0.06638365 0.9977942 0 -0.06638365 0.9977942 0 0.6577363 0.7532482 0 0.6577363 0.7532482 0 0.6577363 0.7532482 0 0.6577363 0.7532482 0 0.6577363 0.7532482 0 0.6577363 0.7532482 0 -0.8058256 0.5921529 0 -0.8058256 0.5921529 0 -0.8058256 0.5921529 0 -0.8058256 0.5921529 0 -0.8058256 0.5921529 0 -0.8058256 0.5921529 0 0.6394051 0.76887 0 0.6394051 0.76887 0 0.6394051 0.76887 0 0.6394051 0.76887 0 0.6394051 0.76887 0 0.6394051 0.76887 0 -0.07110374 0.9974689 0 -0.07110374 0.9974689 0 -0.07110374 0.9974689 0 -0.07110374 0.9974689 0 -0.07110374 0.9974689 0 -0.07110374 0.9974689 0</float_array>
          <technique_common>
            <accessor count="1440" source="#normals-array-array" stride="3">
              <param type="float" name="X" />
              <param type="float" name="Y" />
              <param type="float" name="Z" />
            </accessor>
          </technique_common>
        </source>
        <vertices id="verts-array-vertices">
          <input semantic="POSITION" source="#verts-array" />
        </vertices>
        <triangles count="480" material="material0">
          <input offset="0" semantic="VERTEX" source="#verts-array-vertices" />
          <input offset="1" semantic="NORMAL" source="#normals-array" />
          <p>0 0 1 1 2 2 3 3 4 4 5 5 6 6 7 7 8 8 9 9 10 10 11 11 12 12 13 13 14 14 15 15 16 16 17 17 18 18 19 19 20 20 21 21 22 22 23 23 24 24 25 25 26 26 27 27 28 28 29 29 30 30 31 31 32 32 33 33 34 34 35 35 36 36 37 37 38 38 39 39 40 40 41 41 42 42 43 43 44 44 45 45 46 46 47 47 48 48 49 49 50 50 51 51 52 52 53 53 54 54 55 55 56 56 57 57 58 58 59 59 60 60 61 61 62 62 63 63 64 64 65 65 66 66 67 67 68 68 69 69 70 70 71 71 72 72 73 73 74 74 75 75 76 76 77 77 78 78 79 79 80 80 81 81 82 82 83 83 84 84 85 85 86 86 87 87 88 88 89 89 90 90 91 91 92 92 93 93 94 94 95 95 96 96 97 97 98 98 99 99 100 100 101 101 102 102 103 103 104 104 105 105 106 106 107 107 108 108 109 109 110 110 111 111 112 112 113 113 114 114 115 115 116 116 117 117 118 118 119 119 120 120 121 121 122 122 123 123 124 124 125 125 126 126 127 127 128 128 129 129 130 130 131 131 132 132 133 133 134 134 135 135 136 136 137 137 138 138 139 139 140 140 141 141 142 142 143 143 144 144 145 145 146 146 147 147 148 148 149 149 150 150 151 151 152 152 153 153 154 154 155 155 156 156 157 157 158 158 159 159 160 160 161 161 162 162 163 163 164 164 165 165 166 166 167 167 168 168 169 169 170 170 171 171 172 172 173 173 174 174 175 175 176 176 177 177 178 178 179 179 180 180 181 181 182 182 183 183 184 184 185 185 186 186 187 187 188 188 189 189 190 190 191 191 192 192 193 193 194 194 195 195 196 196 197 197 198 198 199 199 200 200 201 201 202 202 203 203 204 204 205 205 206 206 207 207 208 208 209 209 210 210 211 211 212 212 213 213 214 214 215 215 216 216 217 217 218 218 219 219 220 220 221 221 222 222 223 223 224 224 225 225 226 226 227 227 228 228 229 229 230 230 231 231 232 232 233 233 234 234 235 235 236 236 237 237 238 238 239 239 240 240 241 241 242 242 243 243 244 244 245 245 246 246 247 247 248 248 249 249 250 250 251 251 252 252 253 253 254 254 255 255 256 256 257 257 258 258 259 259 260 260 261 261 262 262 263 263 264 264 265 265 266 266 267 267 268 268 269 269 270 270 271 271 272 272 273 273 274 274 275 275 276 276 277 277 278 278 279 279 280 280 281 281 282 282 283 283 284 284 285 285 286 286 287 287 288 288 289 289 290 290 291 291 292 292 293 293 294 294 295 295 296 296 297 297 298 298 299 299 300 300 301 301 302 302 303 303 304 304 305 305 306 306 307 307 308 308 309 309 310 310 311 311 312 312 313 313 314 314 315 315 316 316 317 317 318 318 319 319 320 320 321 321 322 322 323 323 324 324 325 325 326 326 327 327 328 328 329 329 330 330 331 331 332 332 333 333 334 334 335 335 336 336 337 337 338 338 339 339 340 340 341 341 342 342 343 343 344 344 345 345 346 346 347 347 348 348 349 349 350 350 351 351 352 352 353 353 354 354 355 355 356 356 357 357 358 358 359 359 360 360 361 361 362 362 363 363 364 364 365 365 366 366 367 367 368 368 369 369 370 370 371 371 372 372 373 373 374 374 375 375 376 376 377 377 378 378 379 379 380 380 381 381 382 382 383 383 384 384 385 385 386 386 387 387 388 388 389 389 390 390 391 391 392 392 393 393 394 394 395 395 396 396 397 397 398 398 399 399 400 400 401 401 402 402 403 403 404 404 405 405 406 406 407 407 408 408 409 409 410 410 411 411 412 412 413 413 414 414 415 415 416 416 417 417 418 418 419 419 420 420 421 421 422 422 423 423 424 424 425 425 426 426 427 427 428 428 429 429 430 430 431 431 432 432 433 433 434 434 435 435 436 436 437 437 438 438 439 439 440 440 441 441 442 442 443 443 444 444 445 445 446 446 447 447 448 448 449 449 450 450 451 451 452 452 453 453 454 454 455 455 456 456 457 457 458 458 459 459 460 460 461 461 462 462 463 463 464 464 465 465 466 466 467 467 468 468 469 469 470 470 471 471 472 472 473 473 474 474 475 475 476 476 477 477 478 478 479 479 480 480 481 481 482 482 483 483 484 484 485 485 486 486 487 487 488 488 489 489 490 490 491 491 492 492 493 493 494 494 495 495 496 496 497 497 498 498 499 499 500 500 501 501 502 502 503 503 504 504 505 505 506 506 507 507 508 508 509 509 510 510 511 511 512 512 513 513 514 514 515 515 516 516 517 517 518 518 519 519 520 520 521 521 522 522 523 523 524 524 525 525 526 526 527 527 528 528 529 529 530 530 531 531 532 532 533 533 534 534 535 535 536 536 537 537 538 538 539 539 540 540 541 541 542 542 543 543 544 544 545 545 546 546 547 547 548 548 549 549 550 550 551 551 552 552 553 553 554 554 555 555 556 556 557 557 558 558 559 559 560 560 561 561 562 562 563 563 564 564 565 565 566 566 567 567 568 568 569 569 570 570 571 571 572 572 573 573 574 574 575 575 576 576 577 577 578 578 579 579 580 580 581 581 582 582 583 583 584 584 585 585 586 586 587 587 588 588 589 589 590 590 591 591 592 592 593 593 594 594 595 595 596 596 597 597 598 598 599 599 600 600 601 601 602 602 603 603 604 604 605 605 606 606 607 607 608 608 609 609 610 610 611 611 612 612 613 613 614 614 615 615 616 616 617 617 618 618 619 619 620 620 621 621 622 622 623 623 624 624 625 625 626 626 627 627 628 628 629 629 630 630 631 631 632 632 633 633 634 634 635 635 636 636 637 637 638 638 639 639 640 640 641 641 642 642 643 643 644 644 645 645 646 646 647 647 648 648 649 649 650 650 651 651 652 652 653 653 654 654 655 655 656 656 657 657 658 658 659 659 660 660 661 661 662 662 663 663 664 664 665 665 666 666 667 667 668 668 669 669 670 670 671 671 672 672 673 673 674 674 675 675 676 676 677 677 678 678 679 679 680 680 681 681 682 682 683 683 684 684 685 685 686 686 687 687 688 688 689 689 690 690 691 691 692 692 693 693 694 694 695 695 696 696 697 697 698 698 699 699 700 700 701 701 702 702 703 703 704 704 705 705 706 706 707 707 708 708 709 709 710 710 711 711 712 712 713 713 714 714 715 715 716 716 717 717 718 718 719 719 720 720 721 721 722 722 723 723 724 724 725 725 726 726 727 727 728 728 729 729 730 730 731 731 732 732 733 733 734 734 735 735 736 736 737 737 738 738 739 739 740 740 741 741 742 742 743 743 744 744 745 745 746 746 747 747 748 748 749 749 750 750 751 751 752 752 753 753 754 754 755 755 756 756 757 757 758 758 759 759 760 760 761 761 762 762 763 763 764 764 765 765 766 766 767 767 768 768 769 769 770 770 771 771 772 772 773 773 774 774 775 775 776 776 777 777 778 778 779 779 780 780 781 781 782 782 783 783 784 784 785 785 786 786 787 787 788 788 789 789 790 790 791 791 792 792 793 793 794 794 795 795 796 796 797 797 798 798 799 799 800 800 801 801 802 802 803 803 804 804 805 805 806 806 807 807 808 808 809 809 810 810 811 811 812 812 813 813 814 814 815 815 816 816 817 817 818 818 819 819 820 820 821 821 822 822 823 823 824 824 825 825 826 826 827 827 828 828 829 829 830 830 831 831 832 832 833 833 834 834 835 835 836 836 837 837 838 838 839 839 840 840 841 841 842 842 843 843 844 844 845 845 846 846 847 847 848 848 849 849 850 850 851 851 852 852 853 853 854 854 855 855 856 856 857 857 858 858 859 859 860 860 861 861 862 862 863 863 864 864 865 865 866 866 867 867 868 868 869 869 870 870 871 871 872 872 873 873 874 874 875 875 876 876 877 877 878 878 879 879 880 880 881 881 882 882 883 883 884 884 885 885 886 886 887 887 888 888 889 889 890 890 891 891 892 892 893 893 894 894 895 895 896 896 897 897 898 898 899 899 900 900 901 901 902 902 903 903 904 904 905 905 906 906 907 907 908 908 909 909 910 910 911 911 912 912 913 913 914 914 915 915 916 916 917 917 918 918 919 919 920 920 921 921 922 922 923 923 924 924 925 925 926 926 927 927 928 928 929 929 930 930 931 931 932 932 933 933 934 934 935 935 936 936 937 937 938 938 939 939 940 940 941 941 942 942 943 943 944 944 945 945 946 946 947 947 948 948 949 949 950 950 951 951 952 952 953 953 954 954 955 955 956 956 957 957 958 958 959 959 960 960 961 961 962 962 963 963 964 964 965 965 966 966 967 967 968 968 969 969 970 970 971 971 972 972 973 973 974 974 975 975 976 976 977 977 978 978 979 979 980 980 981 981 982 982 983 983 984 984 985 985 986 986 987 987 988 988 989 989 990 990 991 991 992 992 993 993 994 994 995 995 996 996 997 997 998 998 999 999 1000 1000 1001 1001 1002 1002 1003 1003 1004 1004 1005 1005 1006 1006 1007 1007 1008 1008 1009 1009 1010 1010 1011 1011 1012 1012 1013 1013 1014 1014 1015 1015 1016 1016 1017 1017 1018 1018 1019 1019 1020 1020 1021 1021 1022 1022 1023 1023 1024 1024 1025 1025 1026 1026 1027 1027 1028 1028 1029 1029 1030 1030 1031 1031 1032 1032 1033 1033 1034 1034 1035 1035 1036 1036 1037 1037 1038 1038 1039 1039 1040 1040 1041 1041 1042 1042 1043 1043 1044 1044 1045 1045 1046 1046 1047 1047 1048 1048 1049 1049 1050 1050 1051 1051 1052 1052 1053 1053 1054 1054 1055 1055 1056 1056 1057 1057 1058 1058 1059 1059 1060 1060 1061 1061 1062 1062 1063 1063 1064 1064 1065 1065 1066 1066 1067 1067 1068 1068 1069 1069 1070 1070 1071 1071 1072 1072 1073 1073 1074 1074 1075 1075 1076 1076 1077 1077 1078 1078 1079 1079 1080 1080 1081 1081 1082 1082 1083 1083 1084 1084 1085 1085 1086 1086 1087 1087 1088 1088 1089 1089 1090 1090 1091 1091 1092 1092 1093 1093 1094 1094 1095 1095 1096 1096 1097 1097 1098 1098 1099 1099 1100 1100 1101 1101 1102 1102 1103 1103 1104 1104 1105 1105 1106 1106 1107 1107 1108 1108 1109 1109 1110 1110 1111 1111 1112 1112 1113 1113 1114 1114 1115 1115 1116 1116 1117 1117 1118 1118 1119 1119 1120 1120 1121 1121 1122 1122 1123 1123 1124 1124 1125 1125 1126 1126 1127 1127 1128 1128 1129 1129 1130 1130 1131 1131 1132 1132 1133 1133 1134 1134 1135 1135 1136 1136 1137 1137 1138 1138 1139 1139 1140 1140 1141 1141 1142 1142 1143 1143 1144 1144 1145 1145 1146 1146 1147 1147 1148 1148 1149 1149 1150 1150 1151 1151 1152 1152 1153 1153 1154 1154 1155 1155 1156 1156 1157 1157 1158 1158 1159 1159 1160 1160 1161 1161 1162 1162 1163 1163 1164 1164 1165 1165 1166 1166 1167 1167 1168 1168 1169 1169 1170 1170 1171 1171 1172 1172 1173 1173 1174 1174 1175 1175 1176 1176 1177 1177 1178 1178 1179 1179 1180 1180 1181 1181 1182 1182 1183 1183 1184 1184 1185 1185 1186 1186 1187 1187 1188 1188 1189 1189 1190 1190 1191 1191 1192 1192 1193 1193 1194 1194 1195 1195 1196 1196 1197 1197 1198 1198 1199 1199 1200 1200 1201 1201 1202 1202 1203 1203 1204 1204 1205 1205 1206 1206 1207 1207 1208 1208 1209 1209 1210 1210 1211 1211 1212 1212 1213 1213 1214 1214 1215 1215 1216 1216 1217 1217 1218 1218 1219 1219 1220 1220 1221 1221 1222 1222 1223 1223 1224 1224 1225 1225 1226 1226 1227 1227 1228 1228 1229 1229 1230 1230 1231 1231 1232 1232 1233 1233 1234 1234 1235 1235 1236 1236 1237 1237 1238 1238 1239 1239 1240 1240 1241 1241 1242 1242 1243 1243 1244 1244 1245 1245 1246 1246 1247 1247 1248 1248 1249 1249 1250 1250 1251 1251 1252 1252 1253 1253 1254 1254 1255 1255 1256 1256 1257 1257 1258 1258 1259 1259 1260 1260 1261 1261 1262 1262 1263 1263 1264 1264 1265 1265 1266 1266 1267 1267 1268 1268 1269 1269 1270 1270 1271 1271 1272 1272 1273 1273 1274 1274 1275 1275 1276 1276 1277 1277 1278 1278 1279 1279 1280 1280 1281 1281 1282 1282 1283 1283 1284 1284 1285 1285 1286 1286 1287 1287 1288 1288 1289 1289 1290 1290 1291 1291 1292 1292 1293 1293 1294 1294 1295 1295 1296 1296 1297 1297 1298 1298 1299 1299 1300 1300 1301 1301 1302 1302 1303 1303 1304 1304 1305 1305 1306 1306 1307 1307 1308 1308 1309 1309 1310 1310 1311 1311 1312 1312 1313 1313 1314 1314 1315 1315 1316 1316 1317 1317 1318 1318 1319 1319 1320 1320 1321 1321 1322 1322 1323 1323 1324 1324 1325 1325 1326 1326 1327 1327 1328 1328 1329 1329 1330 1330 1331 1331 1332 1332 1333 1333 1334 1334 1335 1335 1336 1336 1337 1337 1338 1338 1339 1339 1340 1340 1341 1341 1342 1342 1343 1343 1344 1344 1345 1345 1346 1346 1347 1347 1348 1348 1349 1349 1350 1350 1351 1351 1352 1352 1353 1353 1354 1354 1355 1355 1356 1356 1357 1357 1358 1358 1359 1359 1360 1360 1361 1361 1362 1362 1363 1363 1364 1364 1365 1365 1366 1366 1367 1367 1368 1368 1369 1369 1370 1370 1371 1371 1372 1372 1373 1373 1374 1374 1375 1375 1376 1376 1377 1377 1378 1378 1379 1379 1380 1380 1381 1381 1382 1382 1383 1383 1384 1384 1385 1385 1386 1386 1387 1387 1388 1388 1389 1389 1390 1390 1391 1391 1392 1392 1393 1393 1394 1394 1395 1395 1396 1396 1397 1397 1398 1398 1399 1399 1400 1400 1401 1401 1402 1402 1403 1403 1404 1404 1405 1405 1406 1406 1407 1407 1408 1408 1409 1409 1410 1410 1411 1411 1412 1412 1413 1413 1414 1414 1415 1415 1416 1416 1417 1417 1418 1418 1419 1419 1420 1420 1421 1421 1422 1422 1423 1423 1424 1424 1425 1425 1426 1426 1427 1427 1428 1428 1429 1429 1430 1430 1431 1431 1432 1432 1433 1433 1434 1434 1435 1435 1436 1436 1437 1437 1438 1438 1439 1439</p>
        </triangles>
      </mesh>
    </geometry>
  </library_geometries>
  <library_materials>
    <material id="cf393dbf1a224c19856ae6bf8a81e418" name="defaultmaterial">
      <instance_effect url="#432580e853544a85b3366ad236c5181c" />
    </material>
  </library_materials>
  <library_visual_scenes>
    <visual_scene id="scene">
      <node id="node0" name="node0">
        <instance_geometry url="#6642fe98c9fa434895b918ee37cb13d5">
          <bind_material>
            <technique_common>
              <instance_material symbol="material0" target="#cf393dbf1a224c19856ae6bf8a81e418" />
            </technique_common>
          </bind_material>
        </instance_geometry>
      </node>
    </visual_scene>
  </library_visual_scenes>
  <scene>
    <instance_visual_scene url="#scene" />
  </scene>
</COLLADA>
